Asap-BoldItalic.ufo
<glyph name="numbersign" format="2">
  <advance width="534"/>
  <unicode hex="0023"/>
  <outline>
    <contour>
      <point x="69" y="-2" type="curve" smooth="yes"/>
      <point x="82" y="-2" type="line" smooth="yes"/>
      <point x="114" y="-2"/>
      <point x="135" y="8"/>
      <point x="141" y="29" type="curve" smooth="yes"/>
      <point x="186" y="183" type="line"/>
      <point x="280" y="183" type="line"/>
      <point x="235" y="25" type="line" smooth="yes"/>
      <point x="230" y="7"/>
      <point x="242" y="-2"/>
      <point x="276" y="-2" type="curve" smooth="yes"/>
      <point x="289" y="-2" type="line" smooth="yes"/>
      <point x="321" y="-2"/>
      <point x="342" y="8"/>
      <point x="348" y="29" type="curve" smooth="yes"/>
      <point x="393" y="183" type="line"/>
      <point x="455" y="183" type="line" smooth="yes"/>
      <point x="476" y="183"/>
      <point x="486" y="197"/>
      <point x="490" y="233" type="curve" smooth="yes"/>
      <point x="491" y="243" type="line" smooth="yes"/>
      <point x="495" y="279"/>
      <point x="488" y="293"/>
      <point x="467" y="293" type="curve" smooth="yes"/>
      <point x="424" y="293" type="line"/>
      <point x="457" y="403" type="line"/>
      <point x="510" y="403" type="line" smooth="yes"/>
      <point x="531" y="403"/>
      <point x="541" y="417"/>
      <point x="545" y="453" type="curve" smooth="yes"/>
      <point x="546" y="463" type="line" smooth="yes"/>
      <point x="550" y="499"/>
      <point x="543" y="513"/>
      <point x="522" y="513" type="curve" smooth="yes"/>
      <point x="488" y="513" type="line"/>
      <point x="530" y="660" type="line" smooth="yes"/>
      <point x="535" y="677"/>
      <point x="521" y="686"/>
      <point x="489" y="686" type="curve" smooth="yes"/>
      <point x="476" y="686" type="line" smooth="yes"/>
      <point x="444" y="686"/>
      <point x="422" y="676"/>
      <point x="416" y="655" type="curve" smooth="yes"/>
      <point x="375" y="513" type="line"/>
      <point x="281" y="513" type="line"/>
      <point x="323" y="660" type="line" smooth="yes"/>
      <point x="328" y="677"/>
      <point x="314" y="686"/>
      <point x="282" y="686" type="curve" smooth="yes"/>
      <point x="269" y="686" type="line" smooth="yes"/>
      <point x="237" y="686"/>
      <point x="215" y="676"/>
      <point x="209" y="655" type="curve" smooth="yes"/>
      <point x="168" y="513" type="line"/>
      <point x="100" y="513" type="line" smooth="yes"/>
      <point x="79" y="513"/>
      <point x="69" y="499"/>
      <point x="65" y="463" type="curve" smooth="yes"/>
      <point x="64" y="453" type="line" smooth="yes"/>
      <point x="60" y="417"/>
      <point x="67" y="403"/>
      <point x="88" y="403" type="curve" smooth="yes"/>
      <point x="137" y="403" type="line"/>
      <point x="104" y="293" type="line"/>
      <point x="42" y="293" type="line" smooth="yes"/>
      <point x="21" y="293"/>
      <point x="11" y="279"/>
      <point x="7" y="243" type="curve" smooth="yes"/>
      <point x="6" y="233" type="line" smooth="yes"/>
      <point x="2" y="197"/>
      <point x="9" y="183"/>
      <point x="30" y="183" type="curve" smooth="yes"/>
      <point x="73" y="183" type="line"/>
      <point x="27" y="25" type="line" smooth="yes"/>
      <point x="22" y="6"/>
      <point x="35" y="-2"/>
    </contour>
    <contour>
      <point x="217" y="293" type="line"/>
      <point x="250" y="403" type="line"/>
      <point x="344" y="403" type="line"/>
      <point x="311" y="293" type="line"/>
    </contour>
  </outline>
</glyph>
<glyph name="dollar" format="2">
  <advance width="500"/>
  <unicode hex="0024"/>
  <outline>
    <contour>
      <point x="219" y="-75" type="curve" smooth="yes"/>
      <point x="236" y="-75" type="line" smooth="yes"/>
      <point x="248" y="-75"/>
      <point x="257" y="-69"/>
      <point x="258" y="-55" type="curve" smooth="yes"/>
      <point x="263" y="-6" type="line"/>
      <point x="365" y="5"/>
      <point x="476" y="65"/>
      <point x="476" y="233" type="curve" smooth="yes"/>
      <point x="476" y="345"/>
      <point x="384" y="385"/>
      <point x="308" y="420" type="curve"/>
      <point x="324" y="576" type="line"/>
      <point x="362" y="575"/>
      <point x="386" y="565"/>
      <point x="403" y="559" type="curve" smooth="yes"/>
      <point x="414" y="555"/>
      <point x="421" y="551"/>
      <point x="426" y="551" type="curve" smooth="yes"/>
      <point x="450" y="551"/>
      <point x="490" y="614"/>
      <point x="490" y="640" type="curve" smooth="yes"/>
      <point x="490" y="651"/>
      <point x="481" y="663"/>
      <point x="466" y="674" type="curve" smooth="yes"/>
      <point x="441" y="692"/>
      <point x="395" y="705"/>
      <point x="338" y="707" type="curve"/>
      <point x="339" y="720"/>
      <point x="342" y="742"/>
      <point x="342" y="745" type="curve" smooth="yes"/>
      <point x="342" y="759"/>
      <point x="338" y="765"/>
      <point x="324" y="765" type="curve" smooth="yes"/>
      <point x="307" y="765" type="line" smooth="yes"/>
      <point x="293" y="765"/>
      <point x="286" y="759"/>
      <point x="285" y="745" type="curve" smooth="yes"/>
      <point x="281" y="706" type="line"/>
      <point x="168" y="695"/>
      <point x="57" y="633"/>
      <point x="57" y="483" type="curve" smooth="yes"/>
      <point x="57" y="363"/>
      <point x="156" y="323"/>
      <point x="237" y="289" type="curve"/>
      <point x="219" y="123" type="line"/>
      <point x="157" y="123"/>
      <point x="113" y="150"/>
      <point x="86" y="168" type="curve" smooth="yes"/>
      <point x="74" y="176"/>
      <point x="66" y="181"/>
      <point x="60" y="181" type="curve" smooth="yes"/>
      <point x="49" y="181"/>
      <point x="34" y="171"/>
      <point x="34" y="70" type="curve" smooth="yes"/>
      <point x="34" y="56"/>
      <point x="42" y="44"/>
      <point x="54" y="34" type="curve" smooth="yes"/>
      <point x="87" y="6"/>
      <point x="156" y="-5"/>
      <point x="206" y="-7" type="curve"/>
      <point x="204" y="-23"/>
      <point x="201" y="-50"/>
      <point x="201" y="-55" type="curve" smooth="yes"/>
      <point x="201" y="-69"/>
      <point x="204" y="-75"/>
    </contour>
    <contour>
      <point x="277" y="133" type="curve"/>
      <point x="291" y="260" type="line"/>
      <point x="312" y="245"/>
      <point x="327" y="227"/>
      <point x="327" y="203" type="curve" smooth="yes"/>
      <point x="327" y="164"/>
      <point x="305" y="143"/>
    </contour>
    <contour>
      <point x="253" y="447" type="line"/>
      <point x="225" y="463"/>
      <point x="206" y="482"/>
      <point x="206" y="510" type="curve" smooth="yes"/>
      <point x="206" y="527"/>
      <point x="213" y="559"/>
      <point x="266" y="571" type="curve"/>
    </contour>
  </outline>
</glyph>
<glyph name="percent" format="2">
  <advance width="765"/>
  <unicode hex="0025"/>
  <outline>
    <contour>
      <point x="197" y="372" type="curve" smooth="yes"/>
      <point x="269" y="372"/>
      <point x="366" y="406"/>
      <point x="366" y="573" type="curve" smooth="yes"/>
      <point x="366" y="684"/>
      <point x="296" y="708"/>
      <point x="232" y="708" type="curve" smooth="yes"/>
      <point x="161" y="708"/>
      <point x="62" y="675"/>
      <point x="62" y="508" type="curve" smooth="yes"/>
      <point x="62" y="396"/>
      <point x="133" y="372"/>
    </contour>
    <contour>
      <point x="544" y="-8" type="curve" smooth="yes"/>
      <point x="615" y="-8"/>
      <point x="714" y="25"/>
      <point x="714" y="191" type="curve" smooth="yes"/>
      <point x="714" y="303"/>
      <point x="643" y="328"/>
      <point x="579" y="328" type="curve" smooth="yes"/>
      <point x="506" y="328"/>
      <point x="410" y="294"/>
      <point x="410" y="127" type="curve" smooth="yes"/>
      <point x="410" y="16"/>
      <point x="480" y="-8"/>
    </contour>
    <contour>
      <point x="552" y="74" type="curve" smooth="yes"/>
      <point x="521" y="74"/>
      <point x="512" y="103"/>
      <point x="512" y="134" type="curve" smooth="yes"/>
      <point x="512" y="177"/>
      <point x="523" y="242"/>
      <point x="570" y="242" type="curve" smooth="yes"/>
      <point x="601" y="242"/>
      <point x="610" y="214"/>
      <point x="610" y="182" type="curve" smooth="yes"/>
      <point x="610" y="142"/>
      <point x="597" y="74"/>
    </contour>
    <contour>
      <point x="205" y="454" type="curve" smooth="yes"/>
      <point x="173" y="454"/>
      <point x="165" y="485"/>
      <point x="165" y="517" type="curve" smooth="yes"/>
      <point x="165" y="560"/>
      <point x="177" y="622"/>
      <point x="223" y="622" type="curve" smooth="yes"/>
      <point x="254" y="622"/>
      <point x="263" y="595"/>
      <point x="263" y="565" type="curve" smooth="yes"/>
      <point x="263" y="525"/>
      <point x="252" y="454"/>
    </contour>
    <component base="fraction" xOffset="232"/>
  </outline>
</glyph>
<glyph name="ampersand" format="2">
  <advance width="624"/>
  <unicode hex="0026"/>
  <outline>
    <contour>
      <point x="211" y="-8" type="curve" smooth="yes"/>
      <point x="289" y="-8"/>
      <point x="339" y="5"/>
      <point x="397" y="32" type="curve"/>
      <point x="420" y="4"/>
      <point x="455" y="-8"/>
      <point x="500" y="-8" type="curve" smooth="yes"/>
      <point x="535" y="-8"/>
      <point x="581" y="7"/>
      <point x="588" y="44" type="curve" smooth="yes"/>
      <point x="595" y="79"/>
      <point x="595" y="97"/>
      <point x="595" y="103" type="curve" smooth="yes"/>
      <point x="595" y="112"/>
      <point x="593" y="115"/>
      <point x="587" y="115" type="curve" smooth="yes"/>
      <point x="582" y="115"/>
      <point x="572" y="109"/>
      <point x="550" y="109" type="curve" smooth="yes"/>
      <point x="529" y="109"/>
      <point x="517" y="121"/>
      <point x="520" y="147" type="curve" smooth="yes"/>
      <point x="536" y="309" type="line"/>
      <point x="577" y="309" type="line" smooth="yes"/>
      <point x="598" y="309"/>
      <point x="608" y="324"/>
      <point x="612" y="359" type="curve" smooth="yes"/>
      <point x="614" y="376" type="line" smooth="yes"/>
      <point x="618" y="411"/>
      <point x="610" y="426"/>
      <point x="589" y="426" type="curve" smooth="yes"/>
      <point x="548" y="426" type="line"/>
      <point x="554" y="490" type="line" smooth="yes"/>
      <point x="557" y="516"/>
      <point x="539" y="531"/>
      <point x="499" y="531" type="curve" smooth="yes"/>
      <point x="481" y="531" type="line" smooth="yes"/>
      <point x="434" y="531"/>
      <point x="421" y="519"/>
      <point x="415" y="490" type="curve" smooth="yes"/>
      <point x="401" y="426" type="line"/>
      <point x="306" y="426" type="line" smooth="yes"/>
      <point x="245" y="426"/>
      <point x="211" y="455"/>
      <point x="211" y="499" type="curve" smooth="yes"/>
      <point x="211" y="554"/>
      <point x="246" y="591"/>
      <point x="302" y="591" type="curve" smooth="yes"/>
      <point x="325" y="591"/>
      <point x="345" y="584"/>
      <point x="350" y="584" type="curve" smooth="yes"/>
      <point x="364" y="584"/>
      <point x="394" y="620"/>
      <point x="394" y="669" type="curve" smooth="yes"/>
      <point x="394" y="705"/>
      <point x="332" y="708"/>
      <point x="288" y="708" type="curve" smooth="yes"/>
      <point x="156" y="708"/>
      <point x="64" y="631"/>
      <point x="64" y="512" type="curve" smooth="yes"/>
      <point x="64" y="453"/>
      <point x="94" y="408"/>
      <point x="142" y="387" type="curve"/>
      <point x="142" y="383" type="line"/>
      <point x="52" y="350"/>
      <point x="6" y="271"/>
      <point x="6" y="177" type="curve" smooth="yes"/>
      <point x="6" y="60"/>
      <point x="87" y="-8"/>
    </contour>
    <contour>
      <point x="246" y="109" type="curve" smooth="yes"/>
      <point x="191" y="109"/>
      <point x="156" y="139"/>
      <point x="156" y="193" type="curve" smooth="yes"/>
      <point x="156" y="267"/>
      <point x="198" y="309"/>
      <point x="285" y="309" type="curve" smooth="yes"/>
      <point x="388" y="309" type="line"/>
      <point x="383" y="265"/>
      <point x="371" y="152"/>
      <point x="371" y="135" type="curve"/>
      <point x="324" y="116"/>
      <point x="280" y="109"/>
    </contour>
  </outline>
</glyph>
<glyph name="quotesingle" format="2">
  <advance width="183"/>
  <unicode hex="0027"/>
  <outline>
    <contour>
      <point x="105" y="464" type="curve" smooth="yes"/>
      <point x="120" y="464" type="line" smooth="yes"/>
      <point x="141" y="464"/>
      <point x="152" y="473"/>
      <point x="157" y="494" type="curve" smooth="yes"/>
      <point x="197" y="665" type="line" smooth="yes"/>
      <point x="203" y="690"/>
      <point x="184" y="702"/>
      <point x="141" y="702" type="curve" smooth="yes"/>
      <point x="134" y="702" type="line" smooth="yes"/>
      <point x="92" y="702"/>
      <point x="71" y="691"/>
      <point x="71" y="667" type="curve" smooth="yes"/>
      <point x="71" y="494" type="line" smooth="yes"/>
      <point x="71" y="473"/>
      <point x="84" y="464"/>
    </contour>
  </outline>
</glyph>
<glyph name="parenleft" format="2">
  <advance width="301"/>
  <unicode hex="0028"/>
  <outline>
    <contour>
      <point x="280" y="783" type="curve" smooth="yes"/>
      <point x="270" y="783"/>
      <point x="260" y="778"/>
      <point x="251" y="767" type="curve" smooth="yes"/>
      <point x="118" y="602"/>
      <point x="46" y="399"/>
      <point x="46" y="200" type="curve" smooth="yes"/>
      <point x="46" y="58"/>
      <point x="81" y="-78"/>
      <point x="149" y="-192" type="curve" smooth="yes"/>
      <point x="156" y="-203"/>
      <point x="164" y="-208"/>
      <point x="174" y="-208" type="curve" smooth="yes"/>
      <point x="199" y="-208"/>
      <point x="236" y="-181"/>
      <point x="236" y="-156" type="curve" smooth="yes"/>
      <point x="236" y="-152"/>
      <point x="235" y="-147"/>
      <point x="233" y="-142" type="curve" smooth="yes"/>
      <point x="182" y="-18"/>
      <point x="162" y="80"/>
      <point x="162" y="190" type="curve" smooth="yes"/>
      <point x="162" y="369"/>
      <point x="209" y="536"/>
      <point x="325" y="717" type="curve" smooth="yes"/>
      <point x="329" y="724"/>
      <point x="332" y="733"/>
      <point x="332" y="739" type="curve" smooth="yes"/>
      <point x="332" y="761"/>
      <point x="299" y="783"/>
    </contour>
  </outline>
</glyph>
<glyph name="parenright" format="2">
  <advance width="301"/>
  <unicode hex="0029"/>
  <outline>
    <contour>
      <point x="122" y="783" type="curve" smooth="yes"/>
      <point x="97" y="783"/>
      <point x="59" y="756"/>
      <point x="59" y="731" type="curve" smooth="yes"/>
      <point x="59" y="726"/>
      <point x="61" y="722"/>
      <point x="63" y="717" type="curve" smooth="yes"/>
      <point x="117" y="588"/>
      <point x="134" y="497"/>
      <point x="134" y="388" type="curve" smooth="yes"/>
      <point x="134" y="197"/>
      <point x="86" y="40"/>
      <point x="-27" y="-143" type="curve" smooth="yes"/>
      <point x="-32" y="-151"/>
      <point x="-34" y="-158"/>
      <point x="-34" y="-164" type="curve" smooth="yes"/>
      <point x="-34" y="-186"/>
      <point x="-2" y="-208"/>
      <point x="17" y="-208" type="curve" smooth="yes"/>
      <point x="27" y="-208"/>
      <point x="37" y="-203"/>
      <point x="46" y="-192" type="curve" smooth="yes"/>
      <point x="200" y="0"/>
      <point x="251" y="211"/>
      <point x="251" y="378" type="curve" smooth="yes"/>
      <point x="251" y="518"/>
      <point x="215" y="652"/>
      <point x="147" y="767" type="curve" smooth="yes"/>
      <point x="140" y="778"/>
      <point x="132" y="783"/>
    </contour>
  </outline>
</glyph>
<glyph name="asterisk" format="2">
  <advance width="373"/>
  <unicode hex="002A"/>
  <outline>
    <contour>
      <point x="117" y="411" type="curve" smooth="yes"/>
      <point x="124" y="411"/>
      <point x="132" y="415"/>
      <point x="141" y="426" type="curve" smooth="yes"/>
      <point x="209" y="509" type="line"/>
      <point x="259" y="426" type="line" smooth="yes"/>
      <point x="265" y="416"/>
      <point x="273" y="411"/>
      <point x="281" y="411" type="curve" smooth="yes"/>
      <point x="297" y="411"/>
      <point x="317" y="431"/>
      <point x="317" y="443" type="curve" smooth="yes"/>
      <point x="317" y="448"/>
      <point x="315" y="454"/>
      <point x="311" y="460" type="curve" smooth="yes"/>
      <point x="262" y="539" type="line"/>
      <point x="341" y="563" type="line" smooth="yes"/>
      <point x="359" y="568"/>
      <point x="365" y="576"/>
      <point x="365" y="592" type="curve" smooth="yes"/>
      <point x="365" y="612"/>
      <point x="352" y="623"/>
      <point x="340" y="623" type="curve" smooth="yes"/>
      <point x="336" y="623"/>
      <point x="332" y="622"/>
      <point x="327" y="621" type="curve" smooth="yes"/>
      <point x="249" y="596" type="line"/>
      <point x="258" y="678" type="line"/>
      <point x="258" y="698"/>
      <point x="254" y="708"/>
      <point x="231" y="708" type="curve" smooth="yes"/>
      <point x="210" y="708"/>
      <point x="200" y="699"/>
      <point x="198" y="678" type="curve" smooth="yes"/>
      <point x="189" y="596" type="line"/>
      <point x="115" y="621" type="line" smooth="yes"/>
      <point x="110" y="622"/>
      <point x="105" y="623"/>
      <point x="101" y="623" type="curve" smooth="yes"/>
      <point x="80" y="623"/>
      <point x="70" y="600"/>
      <point x="70" y="585" type="curve" smooth="yes"/>
      <point x="70" y="575"/>
      <point x="76" y="567"/>
      <point x="89" y="563" type="curve" smooth="yes"/>
      <point x="161" y="539" type="line"/>
      <point x="97" y="460" type="line"/>
      <point x="90" y="453"/>
      <point x="86" y="445"/>
      <point x="86" y="439" type="curve" smooth="yes"/>
      <point x="86" y="427"/>
      <point x="103" y="411"/>
    </contour>
  </outline>
</glyph>
<glyph name="plus" format="2">
  <advance width="560"/>
  <unicode hex="002B"/>
  <outline>
    <contour>
      <point x="247" y="0" type="curve" smooth="yes"/>
      <point x="261" y="0" type="line" smooth="yes"/>
      <point x="296" y="0"/>
      <point x="312" y="9"/>
      <point x="314" y="30" type="curve" smooth="yes"/>
      <point x="330" y="182" type="line"/>
      <point x="484" y="182" type="line" smooth="yes"/>
      <point x="503" y="182"/>
      <point x="513" y="194"/>
      <point x="516" y="226" type="curve" smooth="yes"/>
      <point x="518" y="247" type="line" smooth="yes"/>
      <point x="521" y="275"/>
      <point x="515" y="289"/>
      <point x="496" y="289" type="curve" smooth="yes"/>
      <point x="341" y="289" type="line"/>
      <point x="357" y="441" type="line" smooth="yes"/>
      <point x="359" y="464"/>
      <point x="347" y="473"/>
      <point x="310" y="473" type="curve" smooth="yes"/>
      <point x="296" y="473" type="line" smooth="yes"/>
      <point x="261" y="473"/>
      <point x="245" y="464"/>
      <point x="243" y="443" type="curve" smooth="yes"/>
      <point x="227" y="289" type="line"/>
      <point x="71" y="289" type="line" smooth="yes"/>
      <point x="52" y="289"/>
      <point x="42" y="277"/>
      <point x="39" y="249" type="curve" smooth="yes"/>
      <point x="37" y="228" type="line" smooth="yes"/>
      <point x="34" y="196"/>
      <point x="40" y="182"/>
      <point x="59" y="182" type="curve" smooth="yes"/>
      <point x="216" y="182" type="line"/>
      <point x="200" y="32" type="line" smooth="yes"/>
      <point x="198" y="9"/>
      <point x="210" y="0"/>
    </contour>
  </outline>
</glyph>
<glyph name="hyphen" format="2">
  <advance width="320"/>
  <unicode hex="002D"/>
  <outline>
    <contour>
      <point x="50" y="212" type="curve" smooth="yes"/>
      <point x="259" y="212" type="line" smooth="yes"/>
      <point x="278" y="212"/>
      <point x="288" y="224"/>
      <point x="291" y="256" type="curve" smooth="yes"/>
      <point x="293" y="277" type="line" smooth="yes"/>
      <point x="296" y="305"/>
      <point x="290" y="319"/>
      <point x="271" y="319" type="curve" smooth="yes"/>
      <point x="62" y="319" type="line" smooth="yes"/>
      <point x="43" y="319"/>
      <point x="33" y="307"/>
      <point x="30" y="279" type="curve" smooth="yes"/>
      <point x="28" y="258" type="line" smooth="yes"/>
      <point x="25" y="226"/>
      <point x="31" y="212"/>
    </contour>
  </outline>
</glyph>
<glyph name="slash" format="2">
  <advance width="422"/>
  <unicode hex="002F"/>
  <outline>
    <contour>
      <point x="13" y="-79" type="curve" smooth="yes"/>
      <point x="31" y="-79" type="line" smooth="yes"/>
      <point x="62" y="-79"/>
      <point x="81" y="-75"/>
      <point x="92" y="-54" type="curve" smooth="yes"/>
      <point x="458" y="664" type="line" smooth="yes"/>
      <point x="465" y="678"/>
      <point x="467" y="682"/>
      <point x="467" y="686" type="curve" smooth="yes"/>
      <point x="467" y="696"/>
      <point x="453" y="702"/>
      <point x="416" y="702" type="curve" smooth="yes"/>
      <point x="403" y="702" type="line" smooth="yes"/>
      <point x="372" y="702"/>
      <point x="351" y="696"/>
      <point x="341" y="677" type="curve" smooth="yes"/>
      <point x="-24" y="-41" type="line" smooth="yes"/>
      <point x="-29" y="-51"/>
      <point x="-34" y="-60"/>
      <point x="-34" y="-63" type="curve" smooth="yes"/>
      <point x="-34" y="-73"/>
      <point x="-22" y="-79"/>
    </contour>
  </outline>
</glyph>
<glyph name="zero" format="2">
  <advance width="535"/>
  <unicode hex="0030"/>
  <outline>
    <contour>
      <point x="240" y="-8" type="curve" smooth="yes"/>
      <point x="399" y="-8"/>
      <point x="519" y="156"/>
      <point x="519" y="426" type="curve" smooth="yes"/>
      <point x="519" y="605"/>
      <point x="445" y="708"/>
      <point x="315" y="708" type="curve" smooth="yes"/>
      <point x="154" y="708"/>
      <point x="36" y="543"/>
      <point x="36" y="271" type="curve" smooth="yes"/>
      <point x="36" y="94"/>
      <point x="110" y="-8"/>
    </contour>
    <contour>
      <point x="252" y="109" type="curve" smooth="yes"/>
      <point x="208" y="109"/>
      <point x="185" y="159"/>
      <point x="185" y="256" type="curve" smooth="yes"/>
      <point x="185" y="475"/>
      <point x="242" y="591"/>
      <point x="303" y="591" type="curve" smooth="yes"/>
      <point x="347" y="591"/>
      <point x="370" y="540"/>
      <point x="370" y="441" type="curve" smooth="yes"/>
      <point x="370" y="223"/>
      <point x="312" y="109"/>
    </contour>
  </outline>
</glyph>
<glyph name="one" format="2">
  <advance width="535"/>
  <unicode hex="0031"/>
  <outline>
    <contour>
      <point x="59" y="0" type="curve" smooth="yes"/>
      <point x="445" y="0" type="line" smooth="yes"/>
      <point x="467" y="0"/>
      <point x="477" y="15"/>
      <point x="481" y="50" type="curve" smooth="yes"/>
      <point x="483" y="67" type="line" smooth="yes"/>
      <point x="487" y="102"/>
      <point x="479" y="117"/>
      <point x="457" y="117" type="curve" smooth="yes"/>
      <point x="351" y="117" type="line"/>
      <point x="410" y="675" type="line" smooth="yes"/>
      <point x="412" y="691"/>
      <point x="388" y="704"/>
      <point x="371" y="704" type="curve"/>
      <point x="118" y="658" type="line" smooth="yes"/>
      <point x="89" y="653"/>
      <point x="88" y="635"/>
      <point x="88" y="605" type="curve" smooth="yes"/>
      <point x="88" y="577"/>
      <point x="92" y="543"/>
      <point x="120" y="547" type="curve" smooth="yes"/>
      <point x="250" y="566" type="line"/>
      <point x="203" y="117" type="line"/>
      <point x="71" y="117" type="line" smooth="yes"/>
      <point x="49" y="117"/>
      <point x="39" y="102"/>
      <point x="35" y="67" type="curve" smooth="yes"/>
      <point x="33" y="50" type="line" smooth="yes"/>
      <point x="29" y="15"/>
      <point x="37" y="0"/>
    </contour>
  </outline>
</glyph>
<glyph name="two" format="2">
  <advance width="535"/>
  <unicode hex="0032"/>
  <outline>
    <contour>
      <point x="44" y="0" type="curve" smooth="yes"/>
      <point x="433" y="0" type="line" smooth="yes"/>
      <point x="454" y="0"/>
      <point x="464" y="15"/>
      <point x="468" y="50" type="curve" smooth="yes"/>
      <point x="470" y="67" type="line" smooth="yes"/>
      <point x="474" y="102"/>
      <point x="466" y="117"/>
      <point x="445" y="117" type="curve" smooth="yes"/>
      <point x="206" y="117" type="line"/>
      <point x="378" y="302" type="line" smooth="yes"/>
      <point x="475" y="411"/>
      <point x="504" y="464"/>
      <point x="504" y="537" type="curve" smooth="yes"/>
      <point x="504" y="630"/>
      <point x="426" y="708"/>
      <point x="298" y="708" type="curve" smooth="yes"/>
      <point x="220" y="708"/>
      <point x="97" y="678"/>
      <point x="97" y="611" type="curve" smooth="yes"/>
      <point x="97" y="585"/>
      <point x="118" y="547"/>
      <point x="147" y="547" type="curve" smooth="yes"/>
      <point x="165" y="547"/>
      <point x="198" y="590"/>
      <point x="268" y="590" type="curve" smooth="yes"/>
      <point x="318" y="590"/>
      <point x="353" y="566"/>
      <point x="353" y="518" type="curve" smooth="yes"/>
      <point x="353" y="483"/>
      <point x="331" y="441"/>
      <point x="305" y="413" type="curve" smooth="yes"/>
      <point x="19" y="103" type="line"/>
      <point x="17" y="99"/>
      <point x="16" y="93"/>
      <point x="16" y="85" type="curve" smooth="yes"/>
      <point x="16" y="54"/>
      <point x="29" y="0"/>
    </contour>
  </outline>
</glyph>
<glyph name="three" format="2">
  <advance width="535"/>
  <unicode hex="0033"/>
  <outline>
    <contour>
      <point x="224" y="-8" type="curve" smooth="yes"/>
      <point x="364" y="-8"/>
      <point x="473" y="82"/>
      <point x="473" y="231" type="curve" smooth="yes"/>
      <point x="473" y="301"/>
      <point x="442" y="356"/>
      <point x="375" y="383" type="curve"/>
      <point x="375" y="387" type="line"/>
      <point x="440" y="413"/>
      <point x="485" y="475"/>
      <point x="485" y="554" type="curve" smooth="yes"/>
      <point x="485" y="649"/>
      <point x="414" y="708"/>
      <point x="297" y="708" type="curve" smooth="yes"/>
      <point x="197" y="708"/>
      <point x="95" y="684"/>
      <point x="95" y="632" type="curve" smooth="yes"/>
      <point x="95" y="604"/>
      <point x="118" y="559"/>
      <point x="137" y="559" type="curve" smooth="yes"/>
      <point x="155" y="559"/>
      <point x="183" y="590"/>
      <point x="259" y="590" type="curve" smooth="yes"/>
      <point x="308" y="590"/>
      <point x="332" y="563"/>
      <point x="332" y="522" type="curve" smooth="yes"/>
      <point x="332" y="465"/>
      <point x="290" y="426"/>
      <point x="219" y="426" type="curve" smooth="yes"/>
      <point x="198" y="426" type="line" smooth="yes"/>
      <point x="177" y="426"/>
      <point x="167" y="411"/>
      <point x="163" y="376" type="curve" smooth="yes"/>
      <point x="161" y="359" type="line" smooth="yes"/>
      <point x="157" y="324"/>
      <point x="164" y="309"/>
      <point x="185" y="309" type="curve" smooth="yes"/>
      <point x="216" y="309" type="line" smooth="yes"/>
      <point x="292" y="309"/>
      <point x="323" y="278"/>
      <point x="323" y="224" type="curve" smooth="yes"/>
      <point x="323" y="151"/>
      <point x="278" y="109"/>
      <point x="213" y="109" type="curve" smooth="yes"/>
      <point x="129" y="109"/>
      <point x="110" y="133"/>
      <point x="94" y="133" type="curve" smooth="yes"/>
      <point x="80" y="133"/>
      <point x="50" y="116"/>
      <point x="50" y="65" type="curve" smooth="yes"/>
      <point x="50" y="-2"/>
      <point x="172" y="-8"/>
    </contour>
  </outline>
</glyph>
<glyph name="four" format="2">
  <advance width="535"/>
  <unicode hex="0034"/>
  <outline>
    <contour>
      <point x="331" y="-2" type="curve" smooth="yes"/>
      <point x="359" y="-2" type="line" smooth="yes"/>
      <point x="401" y="-2"/>
      <point x="420" y="9"/>
      <point x="422" y="30" type="curve" smooth="yes"/>
      <point x="434" y="142" type="line"/>
      <point x="474" y="142" type="line" smooth="yes"/>
      <point x="495" y="142"/>
      <point x="505" y="157"/>
      <point x="509" y="192" type="curve" smooth="yes"/>
      <point x="511" y="209" type="line" smooth="yes"/>
      <point x="515" y="244"/>
      <point x="508" y="259"/>
      <point x="487" y="259" type="curve" smooth="yes"/>
      <point x="446" y="259" type="line"/>
      <point x="489" y="670" type="line" smooth="yes"/>
      <point x="491" y="691"/>
      <point x="475" y="702"/>
      <point x="432" y="702" type="curve" smooth="yes"/>
      <point x="405" y="702" type="line" smooth="yes"/>
      <point x="376" y="702"/>
      <point x="355" y="700"/>
      <point x="342" y="683" type="curve" smooth="yes"/>
      <point x="0" y="246" type="line" smooth="yes"/>
      <point x="-2" y="244"/>
      <point x="-3" y="235"/>
      <point x="-3" y="228" type="curve" smooth="yes"/>
      <point x="-3" y="199"/>
      <point x="8" y="142"/>
      <point x="24" y="142" type="curve" smooth="yes"/>
      <point x="286" y="142" type="line"/>
      <point x="274" y="30" type="line"/>
      <point x="274" y="9"/>
      <point x="288" y="-2"/>
    </contour>
    <contour>
      <point x="148" y="259" type="line"/>
      <point x="329" y="504" type="line"/>
      <point x="333" y="503" type="line"/>
      <point x="322" y="454"/>
      <point x="313" y="405"/>
      <point x="308" y="356" type="curve" smooth="yes"/>
      <point x="298" y="259" type="line"/>
    </contour>
  </outline>
</glyph>
<glyph name="five" format="2">
  <advance width="535"/>
  <unicode hex="0035"/>
  <outline>
    <contour>
      <point x="198" y="-8" type="curve" smooth="yes"/>
      <point x="328" y="-8"/>
      <point x="480" y="55"/>
      <point x="480" y="255" type="curve" smooth="yes"/>
      <point x="480" y="396"/>
      <point x="389" y="440"/>
      <point x="250" y="440" type="curve" smooth="yes"/>
      <point x="224" y="440" type="line"/>
      <point x="249" y="583" type="line"/>
      <point x="453" y="583" type="line" smooth="yes"/>
      <point x="474" y="583"/>
      <point x="484" y="598"/>
      <point x="488" y="633" type="curve" smooth="yes"/>
      <point x="490" y="650" type="line" smooth="yes"/>
      <point x="494" y="685"/>
      <point x="487" y="700"/>
      <point x="466" y="700" type="curve" smooth="yes"/>
      <point x="169" y="700" type="line" smooth="yes"/>
      <point x="139" y="700"/>
      <point x="127" y="688"/>
      <point x="122" y="660" type="curve"/>
      <point x="72" y="362" type="line" smooth="yes"/>
      <point x="67" y="329"/>
      <point x="81" y="323"/>
      <point x="105" y="323" type="curve" smooth="yes"/>
      <point x="214" y="323" type="line" smooth="yes"/>
      <point x="296" y="323"/>
      <point x="328" y="290"/>
      <point x="328" y="233" type="curve" smooth="yes"/>
      <point x="328" y="155"/>
      <point x="283" y="109"/>
      <point x="210" y="109" type="curve" smooth="yes"/>
      <point x="113" y="109"/>
      <point x="75" y="149"/>
      <point x="61" y="149" type="curve" smooth="yes"/>
      <point x="50" y="149"/>
      <point x="37" y="127"/>
      <point x="37" y="55" type="curve" smooth="yes"/>
      <point x="37" y="-2"/>
      <point x="149" y="-8"/>
    </contour>
  </outline>
</glyph>
<glyph name="six" format="2">
  <advance width="535"/>
  <unicode hex="0036"/>
  <outline>
    <contour>
      <point x="238" y="-8" type="curve" smooth="yes"/>
      <point x="355" y="-8"/>
      <point x="499" y="62"/>
      <point x="499" y="246" type="curve" smooth="yes"/>
      <point x="499" y="384"/>
      <point x="391" y="428"/>
      <point x="322" y="428" type="curve" smooth="yes"/>
      <point x="293" y="428"/>
      <point x="260" y="424"/>
      <point x="219" y="403" type="curve"/>
      <point x="261" y="497"/>
      <point x="353" y="565"/>
      <point x="457" y="600" type="curve" smooth="yes"/>
      <point x="469" y="604"/>
      <point x="472" y="608"/>
      <point x="472" y="627" type="curve" smooth="yes"/>
      <point x="472" y="651"/>
      <point x="462" y="704"/>
      <point x="431" y="704" type="curve" smooth="yes"/>
      <point x="396" y="704"/>
      <point x="27" y="595"/>
      <point x="27" y="209" type="curve" smooth="yes"/>
      <point x="27" y="49"/>
      <point x="134" y="-8"/>
    </contour>
    <contour>
      <point x="251" y="109" type="curve" smooth="yes"/>
      <point x="209" y="109"/>
      <point x="177" y="135"/>
      <point x="177" y="209" type="curve" smooth="yes"/>
      <point x="177" y="233"/>
      <point x="181" y="261"/>
      <point x="185" y="287" type="curve"/>
      <point x="212" y="301"/>
      <point x="240" y="311"/>
      <point x="267" y="311" type="curve" smooth="yes"/>
      <point x="319" y="311"/>
      <point x="348" y="280"/>
      <point x="348" y="229" type="curve" smooth="yes"/>
      <point x="348" y="159"/>
      <point x="303" y="109"/>
    </contour>
  </outline>
</glyph>
<glyph name="seven" format="2">
  <advance width="535"/>
  <unicode hex="0037"/>
  <outline>
    <contour>
      <point x="107" y="-2" type="curve" smooth="yes"/>
      <point x="149" y="-2" type="line" smooth="yes"/>
      <point x="178" y="-2"/>
      <point x="200" y="2"/>
      <point x="209" y="18" type="curve" smooth="yes"/>
      <point x="526" y="593" type="line" smooth="yes"/>
      <point x="529" y="599"/>
      <point x="531" y="611"/>
      <point x="531" y="620" type="curve" smooth="yes"/>
      <point x="531" y="652"/>
      <point x="520" y="700"/>
      <point x="500" y="700" type="curve" smooth="yes"/>
      <point x="111" y="700" type="line" smooth="yes"/>
      <point x="90" y="700"/>
      <point x="80" y="685"/>
      <point x="76" y="650" type="curve" smooth="yes"/>
      <point x="74" y="633" type="line" smooth="yes"/>
      <point x="70" y="598"/>
      <point x="77" y="583"/>
      <point x="98" y="583" type="curve" smooth="yes"/>
      <point x="363" y="583" type="line"/>
      <point x="58" y="36" type="line"/>
      <point x="53" y="28"/>
      <point x="51" y="22"/>
      <point x="51" y="17" type="curve" smooth="yes"/>
      <point x="51" y="-2"/>
      <point x="82" y="-2"/>
    </contour>
  </outline>
</glyph>
<glyph name="eight" format="2">
  <advance width="535"/>
  <unicode hex="0038"/>
  <outline>
    <contour>
      <point x="248" y="-8" type="curve" smooth="yes"/>
      <point x="440" y="-8"/>
      <point x="501" y="125"/>
      <point x="501" y="221" type="curve" smooth="yes"/>
      <point x="501" y="311"/>
      <point x="462" y="359"/>
      <point x="409" y="385" type="curve"/>
      <point x="462" y="411"/>
      <point x="513" y="455"/>
      <point x="513" y="547" type="curve" smooth="yes"/>
      <point x="513" y="636"/>
      <point x="443" y="708"/>
      <point x="318" y="708" type="curve" smooth="yes"/>
      <point x="160" y="708"/>
      <point x="82" y="605"/>
      <point x="82" y="501" type="curve" smooth="yes"/>
      <point x="82" y="440"/>
      <point x="106" y="402"/>
      <point x="142" y="375" type="curve"/>
      <point x="60" y="343"/>
      <point x="21" y="255"/>
      <point x="21" y="174" type="curve" smooth="yes"/>
      <point x="21" y="75"/>
      <point x="87" y="-8"/>
    </contour>
    <contour>
      <point x="258" y="109" type="curve" smooth="yes"/>
      <point x="203" y="109"/>
      <point x="172" y="144"/>
      <point x="172" y="198" type="curve" smooth="yes"/>
      <point x="172" y="262"/>
      <point x="201" y="301"/>
      <point x="240" y="326" type="curve"/>
      <point x="312" y="296"/>
      <point x="350" y="273"/>
      <point x="350" y="207" type="curve" smooth="yes"/>
      <point x="350" y="148"/>
      <point x="303" y="109"/>
    </contour>
    <contour>
      <point x="303" y="432" type="curve"/>
      <point x="261" y="450"/>
      <point x="229" y="472"/>
      <point x="229" y="518" type="curve" smooth="yes"/>
      <point x="229" y="567"/>
      <point x="265" y="591"/>
      <point x="301" y="591" type="curve" smooth="yes"/>
      <point x="338" y="591"/>
      <point x="367" y="567"/>
      <point x="367" y="527" type="curve" smooth="yes"/>
      <point x="367" y="490"/>
      <point x="344" y="456"/>
    </contour>
  </outline>
</glyph>
<glyph name="nine" format="2">
  <advance width="535"/>
  <unicode hex="0039"/>
  <outline>
    <contour>
      <point x="118" y="-4" type="curve" smooth="yes"/>
      <point x="153" y="-4"/>
      <point x="522" y="105"/>
      <point x="522" y="491" type="curve" smooth="yes"/>
      <point x="522" y="651"/>
      <point x="415" y="708"/>
      <point x="311" y="708" type="curve" smooth="yes"/>
      <point x="194" y="708"/>
      <point x="50" y="638"/>
      <point x="50" y="454" type="curve" smooth="yes"/>
      <point x="50" y="316"/>
      <point x="158" y="272"/>
      <point x="227" y="272" type="curve" smooth="yes"/>
      <point x="256" y="272"/>
      <point x="289" y="276"/>
      <point x="330" y="297" type="curve"/>
      <point x="288" y="203"/>
      <point x="196" y="135"/>
      <point x="92" y="100" type="curve" smooth="yes"/>
      <point x="80" y="96"/>
      <point x="77" y="92"/>
      <point x="77" y="73" type="curve" smooth="yes"/>
      <point x="77" y="49"/>
      <point x="87" y="-4"/>
    </contour>
    <contour>
      <point x="282" y="389" type="curve" smooth="yes"/>
      <point x="230" y="389"/>
      <point x="201" y="420"/>
      <point x="201" y="471" type="curve" smooth="yes"/>
      <point x="201" y="541"/>
      <point x="246" y="591"/>
      <point x="298" y="591" type="curve" smooth="yes"/>
      <point x="340" y="591"/>
      <point x="372" y="565"/>
      <point x="372" y="491" type="curve" smooth="yes"/>
      <point x="372" y="467"/>
      <point x="368" y="439"/>
      <point x="364" y="413" type="curve"/>
      <point x="337" y="399"/>
      <point x="309" y="389"/>
    </contour>
  </outline>
</glyph>
<glyph name="less" format="2">
  <advance width="560"/>
  <unicode hex="003C"/>
  <outline>
    <contour>
      <point x="471" y="13" type="curve" smooth="yes"/>
      <point x="485" y="13"/>
      <point x="491" y="30"/>
      <point x="494" y="55" type="curve" smooth="yes"/>
      <point x="497" y="77" type="line" smooth="yes"/>
      <point x="501" y="110"/>
      <point x="491" y="126"/>
      <point x="464" y="137" type="curve" smooth="yes"/>
      <point x="192" y="244" type="line"/>
      <point x="497" y="350" type="line" smooth="yes"/>
      <point x="522" y="359"/>
      <point x="530" y="378"/>
      <point x="533" y="415" type="curve" smooth="yes"/>
      <point x="535" y="437" type="line" smooth="yes"/>
      <point x="537" y="464"/>
      <point x="531" y="478"/>
      <point x="520" y="478" type="curve" smooth="yes"/>
      <point x="517" y="478"/>
      <point x="513" y="477"/>
      <point x="509" y="476" type="curve" smooth="yes"/>
      <point x="67" y="295" type="line" smooth="yes"/>
      <point x="49" y="288"/>
      <point x="40" y="279"/>
      <point x="38" y="250" type="curve" smooth="yes"/>
      <point x="37" y="237" type="line" smooth="yes"/>
      <point x="35" y="210"/>
      <point x="44" y="201"/>
      <point x="68" y="190" type="curve" smooth="yes"/>
      <point x="444" y="21" type="line" smooth="yes"/>
      <point x="455" y="16"/>
      <point x="464" y="13"/>
    </contour>
  </outline>
</glyph>
<glyph name="equal" format="2">
  <advance width="560"/>
  <unicode hex="003D"/>
  <outline>
    <contour>
      <point x="68" y="267" type="curve" smooth="yes"/>
      <point x="493" y="267" type="line" smooth="yes"/>
      <point x="512" y="267"/>
      <point x="522" y="279"/>
      <point x="525" y="311" type="curve" smooth="yes"/>
      <point x="527" y="332" type="line" smooth="yes"/>
      <point x="530" y="360"/>
      <point x="524" y="374"/>
      <point x="505" y="374" type="curve" smooth="yes"/>
      <point x="80" y="374" type="line" smooth="yes"/>
      <point x="61" y="374"/>
      <point x="51" y="362"/>
      <point x="48" y="334" type="curve" smooth="yes"/>
      <point x="46" y="313" type="line" smooth="yes"/>
      <point x="43" y="281"/>
      <point x="49" y="267"/>
    </contour>
    <contour>
      <point x="49" y="87" type="curve" smooth="yes"/>
      <point x="474" y="87" type="line" smooth="yes"/>
      <point x="493" y="87"/>
      <point x="503" y="99"/>
      <point x="506" y="131" type="curve" smooth="yes"/>
      <point x="508" y="152" type="line" smooth="yes"/>
      <point x="511" y="180"/>
      <point x="505" y="194"/>
      <point x="486" y="194" type="curve" smooth="yes"/>
      <point x="61" y="194" type="line" smooth="yes"/>
      <point x="42" y="194"/>
      <point x="32" y="182"/>
      <point x="29" y="154" type="curve" smooth="yes"/>
      <point x="27" y="133" type="line" smooth="yes"/>
      <point x="24" y="101"/>
      <point x="30" y="87"/>
    </contour>
  </outline>
</glyph>
<glyph name="greater" format="2">
  <advance width="560"/>
  <unicode hex="003E"/>
  <outline>
    <contour>
      <point x="38" y="14" type="curve" smooth="yes"/>
      <point x="44" y="14"/>
      <point x="52" y="16"/>
      <point x="62" y="20" type="curve" smooth="yes"/>
      <point x="482" y="192" type="line" smooth="yes"/>
      <point x="503" y="201"/>
      <point x="515" y="211"/>
      <point x="516" y="239" type="curve" smooth="yes"/>
      <point x="517" y="259" type="line" smooth="yes"/>
      <point x="518" y="279"/>
      <point x="509" y="289"/>
      <point x="493" y="296" type="curve" smooth="yes"/>
      <point x="111" y="469" type="line" smooth="yes"/>
      <point x="102" y="473"/>
      <point x="89" y="478"/>
      <point x="82" y="478" type="curve" smooth="yes"/>
      <point x="64" y="478"/>
      <point x="55" y="457"/>
      <point x="55" y="416" type="curve" smooth="yes"/>
      <point x="55" y="382"/>
      <point x="61" y="356"/>
      <point x="87" y="346" type="curve" smooth="yes"/>
      <point x="354" y="247" type="line"/>
      <point x="52" y="141" type="line" smooth="yes"/>
      <point x="22" y="131"/>
      <point x="18" y="100"/>
      <point x="18" y="63" type="curve" smooth="yes"/>
      <point x="18" y="33"/>
      <point x="22" y="14"/>
    </contour>
  </outline>
</glyph>
<glyph name="question" format="2">
  <advance width="445"/>
  <unicode hex="003F"/>
  <outline>
    <contour>
      <point x="161" y="222" type="curve" smooth="yes"/>
      <point x="184" y="222" type="line" smooth="yes"/>
      <point x="217" y="222"/>
      <point x="231" y="228"/>
      <point x="240" y="249" type="curve"/>
      <point x="252" y="290"/>
      <point x="290" y="319"/>
      <point x="331" y="352" type="curve" smooth="yes"/>
      <point x="391" y="398"/>
      <point x="456" y="450"/>
      <point x="456" y="552" type="curve" smooth="yes"/>
      <point x="456" y="649"/>
      <point x="382" y="708"/>
      <point x="257" y="708" type="curve" smooth="yes"/>
      <point x="180" y="708"/>
      <point x="60" y="685"/>
      <point x="60" y="625" type="curve" smooth="yes"/>
      <point x="60" y="602"/>
      <point x="88" y="545"/>
      <point x="115" y="545" type="curve" smooth="yes"/>
      <point x="129" y="545"/>
      <point x="172" y="576"/>
      <point x="230" y="576" type="curve" smooth="yes"/>
      <point x="277" y="576"/>
      <point x="298" y="558"/>
      <point x="298" y="528" type="curve" smooth="yes"/>
      <point x="298" y="490"/>
      <point x="256" y="454"/>
      <point x="211" y="413" type="curve" smooth="yes"/>
      <point x="164" y="368"/>
      <point x="115" y="317"/>
      <point x="115" y="251" type="curve" smooth="yes"/>
      <point x="115" y="230"/>
      <point x="124" y="222"/>
    </contour>
    <contour>
      <point x="132" y="-2" type="curve" smooth="yes"/>
      <point x="164" y="-2" type="line" smooth="yes"/>
      <point x="205" y="-2"/>
      <point x="226" y="9"/>
      <point x="228" y="30" type="curve" smooth="yes"/>
      <point x="237" y="122" type="line"/>
      <point x="237" y="143"/>
      <point x="224" y="154"/>
      <point x="181" y="154" type="curve" smooth="yes"/>
      <point x="149" y="154" type="line" smooth="yes"/>
      <point x="107" y="154"/>
      <point x="87" y="143"/>
      <point x="85" y="122" type="curve" smooth="yes"/>
      <point x="76" y="30" type="line"/>
      <point x="76" y="8"/>
      <point x="87" y="-2"/>
    </contour>
  </outline>
</glyph>
<glyph name="A" format="2">
  <advance width="613"/>
  <unicode hex="0041"/>
  <anchor x="279" y="0" name="bottom"/>
  <anchor x="563" y="0" name="ogonek"/>
  <anchor x="352" y="700" name="top"/>
  <outline>
    <contour>
      <point x="33" y="-2" type="curve" smooth="yes"/>
      <point x="73" y="-2" type="line" smooth="yes"/>
      <point x="97" y="-2"/>
      <point x="114" y="4"/>
      <point x="121" y="19" type="curve" smooth="yes"/>
      <point x="176" y="141" type="line"/>
      <point x="407" y="141" type="line"/>
      <point x="436" y="19" type="line" smooth="yes"/>
      <point x="440" y="3"/>
      <point x="460" y="-2"/>
      <point x="490" y="-2" type="curve" smooth="yes"/>
      <point x="534" y="-2" type="line" smooth="yes"/>
      <point x="569" y="-2"/>
      <point x="588" y="7"/>
      <point x="588" y="21" type="curve" smooth="yes"/>
      <point x="588" y="24"/>
      <point x="586" y="35"/>
      <point x="585" y="38" type="curve"/>
      <point x="433" y="681" type="line" smooth="yes"/>
      <point x="429" y="697"/>
      <point x="407" y="702"/>
      <point x="378" y="702" type="curve" smooth="yes"/>
      <point x="326" y="702" type="line" smooth="yes"/>
      <point x="297" y="702"/>
      <point x="274" y="697"/>
      <point x="267" y="681" type="curve" smooth="yes"/>
      <point x="-19" y="38" type="line"/>
      <point x="-23" y="30"/>
      <point x="-25" y="24"/>
      <point x="-25" y="18" type="curve" smooth="yes"/>
      <point x="-25" y="5"/>
      <point x="-6" y="-2"/>
    </contour>
    <contour>
      <point x="232" y="273" type="line"/>
      <point x="308" y="451" type="line" smooth="yes"/>
      <point x="317" y="471"/>
      <point x="324" y="494"/>
      <point x="330" y="515" type="curve"/>
      <point x="334" y="515" type="line"/>
      <point x="335" y="494"/>
      <point x="337" y="472"/>
      <point x="342" y="451" type="curve"/>
      <point x="377" y="273" type="line"/>
    </contour>
  </outline>
</glyph>
<glyph name="B" format="2">
  <advance width="593"/>
  <unicode hex="0042"/>
  <anchor x="270" y="0" name="bottom"/>
  <anchor x="343" y="700" name="top"/>
  <outline>
    <contour>
      <point x="85" y="0" type="curve" smooth="yes"/>
      <point x="297" y="0" type="line" smooth="yes"/>
      <point x="477" y="0"/>
      <point x="569" y="80"/>
      <point x="569" y="220" type="curve" smooth="yes"/>
      <point x="569" y="290"/>
      <point x="523" y="352"/>
      <point x="450" y="367" type="curve"/>
      <point x="450" y="371" type="line"/>
      <point x="521" y="400"/>
      <point x="575" y="457"/>
      <point x="575" y="546" type="curve" smooth="yes"/>
      <point x="575" y="638"/>
      <point x="512" y="700"/>
      <point x="356" y="700" type="curve" smooth="yes"/>
      <point x="158" y="700" type="line" smooth="yes"/>
      <point x="130" y="700"/>
      <point x="117" y="688"/>
      <point x="114" y="660" type="curve" smooth="yes"/>
      <point x="49" y="32" type="line" smooth="yes"/>
      <point x="47" y="8"/>
      <point x="58" y="0"/>
    </contour>
    <contour>
      <point x="212" y="131" type="line"/>
      <point x="229" y="290" type="line"/>
      <point x="311" y="290" type="line" smooth="yes"/>
      <point x="376" y="290"/>
      <point x="411" y="267"/>
      <point x="411" y="221" type="curve" smooth="yes"/>
      <point x="411" y="163"/>
      <point x="380" y="131"/>
      <point x="310" y="131" type="curve" smooth="yes"/>
    </contour>
    <contour>
      <point x="243" y="421" type="line"/>
      <point x="259" y="570" type="line"/>
      <point x="330" y="570" type="line" smooth="yes"/>
      <point x="386" y="570"/>
      <point x="413" y="549"/>
      <point x="413" y="507" type="curve" smooth="yes"/>
      <point x="413" y="450"/>
      <point x="377" y="421"/>
      <point x="312" y="421" type="curve" smooth="yes"/>
    </contour>
  </outline>
</glyph>
<glyph name="C" format="2">
  <advance width="619"/>
  <unicode hex="0043"/>
  <anchor x="370" y="0" name="bottom"/>
  <anchor x="403" y="700" name="top"/>
  <outline>
    <contour>
      <point x="336" y="-8" type="curve" smooth="yes"/>
      <point x="396" y="-8"/>
      <point x="482" y="5"/>
      <point x="529" y="30" type="curve" smooth="yes"/>
      <point x="550" y="41"/>
      <point x="568" y="60"/>
      <point x="568" y="78" type="curve" smooth="yes"/>
      <point x="568" y="98"/>
      <point x="549" y="163"/>
      <point x="518" y="163" type="curve" smooth="yes"/>
      <point x="503" y="163"/>
      <point x="445" y="123"/>
      <point x="350" y="123" type="curve" smooth="yes"/>
      <point x="250" y="123"/>
      <point x="200" y="183"/>
      <point x="200" y="299" type="curve" smooth="yes"/>
      <point x="200" y="477"/>
      <point x="272" y="576"/>
      <point x="400" y="576" type="curve" smooth="yes"/>
      <point x="495" y="576"/>
      <point x="531" y="544"/>
      <point x="543" y="544" type="curve" smooth="yes"/>
      <point x="566" y="544"/>
      <point x="618" y="611"/>
      <point x="618" y="640" type="curve" smooth="yes"/>
      <point x="618" y="651"/>
      <point x="610" y="661"/>
      <point x="596" y="670" type="curve" smooth="yes"/>
      <point x="558" y="694"/>
      <point x="479" y="708"/>
      <point x="417" y="708" type="curve" smooth="yes"/>
      <point x="173" y="708"/>
      <point x="41" y="557"/>
      <point x="41" y="276" type="curve" smooth="yes"/>
      <point x="41" y="82"/>
      <point x="137" y="-8"/>
    </contour>
  </outline>
</glyph>
<glyph name="D" format="2">
  <advance width="695"/>
  <unicode hex="0044"/>
  <anchor x="306" y="0" name="bottom"/>
  <anchor x="363" y="350" name="center"/>
  <anchor x="363" y="700" name="top"/>
  <outline>
    <contour>
      <point x="91" y="0" type="curve" smooth="yes"/>
      <point x="315" y="0" type="line" smooth="yes"/>
      <point x="534" y="0"/>
      <point x="675" y="146"/>
      <point x="675" y="411" type="curve" smooth="yes"/>
      <point x="675" y="598"/>
      <point x="575" y="700"/>
      <point x="388" y="700" type="curve" smooth="yes"/>
      <point x="164" y="700" type="line" smooth="yes"/>
      <point x="136" y="700"/>
      <point x="123" y="688"/>
      <point x="120" y="660" type="curve" smooth="yes"/>
      <point x="56" y="43" type="line" smooth="yes"/>
      <point x="53" y="9"/>
      <point x="64" y="0"/>
    </contour>
    <contour>
      <point x="219" y="131" type="line"/>
      <point x="266" y="569" type="line"/>
      <point x="375" y="569" type="line" smooth="yes"/>
      <point x="469" y="569"/>
      <point x="516" y="509"/>
      <point x="516" y="397" type="curve" smooth="yes"/>
      <point x="516" y="225"/>
      <point x="443" y="131"/>
      <point x="328" y="131" type="curve" smooth="yes"/>
    </contour>
  </outline>
</glyph>
<glyph name="E" format="2">
  <advance width="546"/>
  <unicode hex="0045"/>
  <anchor x="262" y="0" name="bottom"/>
  <anchor x="473" y="0" name="ogonek"/>
  <anchor x="327" y="700" name="top"/>
  <outline>
    <contour>
      <point x="76" y="0" type="curve" smooth="yes"/>
      <point x="442" y="0" type="line" smooth="yes"/>
      <point x="463" y="0"/>
      <point x="477" y="15"/>
      <point x="481" y="60" type="curve" smooth="yes"/>
      <point x="482" y="71" type="line" smooth="yes"/>
      <point x="486" y="116"/>
      <point x="477" y="131"/>
      <point x="456" y="131" type="curve" smooth="yes"/>
      <point x="204" y="131" type="line"/>
      <point x="222" y="293" type="line"/>
      <point x="444" y="293" type="line" smooth="yes"/>
      <point x="465" y="293"/>
      <point x="479" y="308"/>
      <point x="483" y="353" type="curve" smooth="yes"/>
      <point x="484" y="364" type="line" smooth="yes"/>
      <point x="488" y="409"/>
      <point x="479" y="424"/>
      <point x="458" y="424" type="curve" smooth="yes"/>
      <point x="235" y="424" type="line"/>
      <point x="251" y="569" type="line"/>
      <point x="500" y="569" type="line" smooth="yes"/>
      <point x="521" y="569"/>
      <point x="535" y="584"/>
      <point x="539" y="629" type="curve" smooth="yes"/>
      <point x="540" y="640" type="line" smooth="yes"/>
      <point x="544" y="685"/>
      <point x="535" y="700"/>
      <point x="514" y="700" type="curve" smooth="yes"/>
      <point x="149" y="700" type="line" smooth="yes"/>
      <point x="121" y="700"/>
      <point x="108" y="688"/>
      <point x="105" y="660" type="curve" smooth="yes"/>
      <point x="41" y="37" type="line" smooth="yes"/>
      <point x="38" y="8"/>
      <point x="49" y="0"/>
    </contour>
  </outline>
</glyph>
<glyph name="F" format="2">
  <advance width="503"/>
  <unicode hex="0046"/>
  <anchor x="115" y="0" name="bottom"/>
  <anchor x="298" y="700" name="top"/>
  <outline>
    <contour>
      <point x="99" y="-2" type="curve" smooth="yes"/>
      <point x="134" y="-2" type="line" smooth="yes"/>
      <point x="173" y="-2"/>
      <point x="195" y="9"/>
      <point x="197" y="30" type="curve" smooth="yes"/>
      <point x="223" y="272" type="line"/>
      <point x="435" y="272" type="line" smooth="yes"/>
      <point x="456" y="272"/>
      <point x="470" y="287"/>
      <point x="474" y="332" type="curve" smooth="yes"/>
      <point x="475" y="343" type="line" smooth="yes"/>
      <point x="479" y="388"/>
      <point x="470" y="403"/>
      <point x="449" y="403" type="curve" smooth="yes"/>
      <point x="236" y="403" type="line"/>
      <point x="254" y="569" type="line"/>
      <point x="473" y="569" type="line" smooth="yes"/>
      <point x="494" y="569"/>
      <point x="508" y="584"/>
      <point x="512" y="629" type="curve" smooth="yes"/>
      <point x="513" y="640" type="line" smooth="yes"/>
      <point x="517" y="685"/>
      <point x="508" y="700"/>
      <point x="487" y="700" type="curve" smooth="yes"/>
      <point x="152" y="700" type="line" smooth="yes"/>
      <point x="124" y="700"/>
      <point x="111" y="688"/>
      <point x="108" y="660" type="curve" smooth="yes"/>
      <point x="42" y="32" type="line" smooth="yes"/>
      <point x="39" y="0"/>
      <point x="82" y="-2"/>
    </contour>
  </outline>
</glyph>
<glyph name="G" format="2">
  <advance width="672"/>
  <unicode hex="0047"/>
  <anchor x="336" y="0" name="bottom"/>
  <anchor x="397" y="700" name="top"/>
  <outline>
    <contour>
      <point x="336" y="-8" type="curve" smooth="yes"/>
      <point x="406" y="-8"/>
      <point x="570" y="2"/>
      <point x="577" y="71" type="curve" smooth="yes"/>
      <point x="607" y="353" type="line" smooth="yes"/>
      <point x="610" y="381"/>
      <point x="598" y="389"/>
      <point x="571" y="389" type="curve" smooth="yes"/>
      <point x="369" y="389" type="line" smooth="yes"/>
      <point x="348" y="389"/>
      <point x="334" y="374"/>
      <point x="330" y="329" type="curve" smooth="yes"/>
      <point x="329" y="318" type="line" smooth="yes"/>
      <point x="325" y="273"/>
      <point x="334" y="258"/>
      <point x="355" y="258" type="curve" smooth="yes"/>
      <point x="442" y="258" type="line"/>
      <point x="428" y="130" type="line"/>
      <point x="401" y="125"/>
      <point x="378" y="123"/>
      <point x="350" y="123" type="curve" smooth="yes"/>
      <point x="249" y="123"/>
      <point x="200" y="183"/>
      <point x="200" y="298" type="curve" smooth="yes"/>
      <point x="200" y="483"/>
      <point x="271" y="576"/>
      <point x="399" y="576" type="curve" smooth="yes"/>
      <point x="495" y="576"/>
      <point x="532" y="544"/>
      <point x="544" y="544" type="curve" smooth="yes"/>
      <point x="569" y="544"/>
      <point x="619" y="613"/>
      <point x="619" y="640" type="curve" smooth="yes"/>
      <point x="619" y="681"/>
      <point x="502" y="708"/>
      <point x="416" y="708" type="curve" smooth="yes"/>
      <point x="175" y="708"/>
      <point x="41" y="565"/>
      <point x="41" y="276" type="curve" smooth="yes"/>
      <point x="41" y="82"/>
      <point x="136" y="-8"/>
    </contour>
  </outline>
</glyph>
<glyph name="H" format="2">
  <advance width="733"/>
  <unicode hex="0048"/>
  <anchor x="352" y="0" name="bottom"/>
  <anchor x="393" y="523" name="center"/>
  <anchor x="410" y="700" name="top"/>
  <outline>
    <contour>
      <point x="110" y="-2" type="curve" smooth="yes"/>
      <point x="145" y="-2" type="line" smooth="yes"/>
      <point x="184" y="-2"/>
      <point x="206" y="9"/>
      <point x="208" y="30" type="curve" smooth="yes"/>
      <point x="235" y="291" type="line"/>
      <point x="505" y="291" type="line"/>
      <point x="478" y="34" type="line" smooth="yes"/>
      <point x="475" y="0"/>
      <point x="518" y="-2"/>
      <point x="535" y="-2" type="curve" smooth="yes"/>
      <point x="570" y="-2" type="line" smooth="yes"/>
      <point x="609" y="-2"/>
      <point x="631" y="9"/>
      <point x="633" y="30" type="curve" smooth="yes"/>
      <point x="700" y="671" type="line" smooth="yes"/>
      <point x="703" y="700"/>
      <point x="660" y="702"/>
      <point x="643" y="702" type="curve" smooth="yes"/>
      <point x="608" y="702" type="line" smooth="yes"/>
      <point x="569" y="702"/>
      <point x="547" y="691"/>
      <point x="545" y="670" type="curve" smooth="yes"/>
      <point x="519" y="423" type="line"/>
      <point x="249" y="423" type="line"/>
      <point x="275" y="671" type="line" smooth="yes"/>
      <point x="278" y="700"/>
      <point x="235" y="702"/>
      <point x="218" y="702" type="curve" smooth="yes"/>
      <point x="183" y="702" type="line" smooth="yes"/>
      <point x="144" y="702"/>
      <point x="122" y="691"/>
      <point x="120" y="670" type="curve" smooth="yes"/>
      <point x="54" y="34" type="line" smooth="yes"/>
      <point x="50" y="0"/>
      <point x="93" y="-2"/>
    </contour>
  </outline>
</glyph>
<glyph name="I" format="2">
  <advance width="283"/>
  <unicode hex="0049"/>
  <anchor x="113" y="0" name="bottom"/>
  <anchor x="179" y="0" name="ogonek"/>
  <anchor x="191" y="700" name="top"/>
  <outline>
    <contour>
      <point x="97" y="-2" type="curve" smooth="yes"/>
      <point x="132" y="-2" type="line" smooth="yes"/>
      <point x="171" y="-2"/>
      <point x="193" y="9"/>
      <point x="195" y="30" type="curve" smooth="yes"/>
      <point x="262" y="671" type="line"/>
      <point x="262" y="700"/>
      <point x="222" y="702"/>
      <point x="205" y="702" type="curve" smooth="yes"/>
      <point x="170" y="702" type="line" smooth="yes"/>
      <point x="131" y="702"/>
      <point x="109" y="691"/>
      <point x="107" y="670" type="curve" smooth="yes"/>
      <point x="40" y="29" type="line"/>
      <point x="40" y="0"/>
      <point x="80" y="-2"/>
    </contour>
  </outline>
</glyph>
<glyph name="J" format="2">
  <advance width="402"/>
  <unicode hex="004A"/>
  <anchor x="290" y="700" name="top"/>
  <outline>
    <contour>
      <point x="79" y="-8" type="curve" smooth="yes"/>
      <point x="228" y="-8"/>
      <point x="299" y="75"/>
      <point x="313" y="202" type="curve" smooth="yes"/>
      <point x="363" y="671" type="line" smooth="yes"/>
      <point x="366" y="700"/>
      <point x="323" y="702"/>
      <point x="306" y="702" type="curve" smooth="yes"/>
      <point x="271" y="702" type="line" smooth="yes"/>
      <point x="232" y="702"/>
      <point x="210" y="691"/>
      <point x="208" y="670" type="curve" smooth="yes"/>
      <point x="161" y="227" type="line" smooth="yes"/>
      <point x="153" y="154"/>
      <point x="126" y="123"/>
      <point x="66" y="123" type="curve" smooth="yes"/>
      <point x="22" y="123"/>
      <point x="17" y="132"/>
      <point x="3" y="132" type="curve" smooth="yes"/>
      <point x="-4" y="132"/>
      <point x="-17" y="121"/>
      <point x="-17" y="35" type="curve" smooth="yes"/>
      <point x="-17" y="-2"/>
      <point x="39" y="-8"/>
    </contour>
  </outline>
</glyph>
<glyph name="K" format="2">
  <advance width="576"/>
  <unicode hex="004B"/>
  <anchor x="270" y="0" name="bottom"/>
  <anchor x="340" y="700" name="top"/>
  <outline>
    <contour>
      <point x="92" y="-2" type="curve" smooth="yes"/>
      <point x="127" y="-2" type="line" smooth="yes"/>
      <point x="169" y="-2"/>
      <point x="188" y="9"/>
      <point x="190" y="30" type="curve" smooth="yes"/>
      <point x="220" y="320" type="line"/>
      <point x="224" y="321" type="line"/>
      <point x="381" y="17" type="line" smooth="yes"/>
      <point x="388" y="2"/>
      <point x="408" y="-2"/>
      <point x="440" y="-2" type="curve" smooth="yes"/>
      <point x="498" y="-2" type="line" smooth="yes"/>
      <point x="542" y="-2"/>
      <point x="555" y="5"/>
      <point x="555" y="16" type="curve" smooth="yes"/>
      <point x="555" y="20"/>
      <point x="553" y="26"/>
      <point x="549" y="34" type="curve" smooth="yes"/>
      <point x="366" y="370" type="line"/>
      <point x="590" y="666" type="line" smooth="yes"/>
      <point x="597" y="675"/>
      <point x="600" y="683"/>
      <point x="600" y="688" type="curve" smooth="yes"/>
      <point x="600" y="696"/>
      <point x="583" y="702"/>
      <point x="545" y="702" type="curve" smooth="yes"/>
      <point x="498" y="702" type="line" smooth="yes"/>
      <point x="469" y="702"/>
      <point x="447" y="698"/>
      <point x="436" y="683" type="curve" smooth="yes"/>
      <point x="233" y="401" type="line"/>
      <point x="229" y="402" type="line"/>
      <point x="257" y="670" type="line"/>
      <point x="257" y="691"/>
      <point x="243" y="702"/>
      <point x="200" y="702" type="curve" smooth="yes"/>
      <point x="165" y="702" type="line" smooth="yes"/>
      <point x="123" y="702"/>
      <point x="104" y="691"/>
      <point x="102" y="670" type="curve" smooth="yes"/>
      <point x="35" y="30" type="line"/>
      <point x="35" y="9"/>
      <point x="49" y="-2"/>
    </contour>
  </outline>
</glyph>
<glyph name="L" format="2">
  <advance width="484"/>
  <unicode hex="004C"/>
  <anchor x="218" y="0" name="bottom"/>
  <anchor x="379" y="335" name="center"/>
  <anchor x="184" y="700" name="top"/>
  <anchor x="366" y="702" name="topright"/>
  <outline>
    <contour>
      <point x="72" y="0" type="curve" smooth="yes"/>
      <point x="410" y="0" type="line" smooth="yes"/>
      <point x="431" y="0"/>
      <point x="445" y="15"/>
      <point x="449" y="60" type="curve" smooth="yes"/>
      <point x="450" y="71" type="line" smooth="yes"/>
      <point x="454" y="116"/>
      <point x="445" y="131"/>
      <point x="424" y="131" type="curve" smooth="yes"/>
      <point x="201" y="131" type="line"/>
      <point x="258" y="671" type="line" smooth="yes"/>
      <point x="261" y="700"/>
      <point x="218" y="702"/>
      <point x="201" y="702" type="curve" smooth="yes"/>
      <point x="166" y="702" type="line" smooth="yes"/>
      <point x="127" y="702"/>
      <point x="105" y="691"/>
      <point x="103" y="670" type="curve" smooth="yes"/>
      <point x="36" y="34" type="line" smooth="yes"/>
      <point x="33" y="8"/>
      <point x="45" y="0"/>
    </contour>
  </outline>
</glyph>
<glyph name="M" format="2">
  <advance width="843"/>
  <unicode hex="004D"/>
  <outline>
    <contour>
      <point x="102" y="-2" type="curve" smooth="yes"/>
      <point x="131" y="-2" type="line" smooth="yes"/>
      <point x="173" y="-2"/>
      <point x="192" y="9"/>
      <point x="194" y="30" type="curve" smooth="yes"/>
      <point x="233" y="404" type="line" smooth="yes"/>
      <point x="235" y="419"/>
      <point x="235" y="436"/>
      <point x="236" y="451" type="curve"/>
      <point x="240" y="452" type="line"/>
      <point x="246" y="438"/>
      <point x="252" y="422"/>
      <point x="258" y="408" type="curve" smooth="yes"/>
      <point x="357" y="190" type="line" smooth="yes"/>
      <point x="365" y="173"/>
      <point x="378" y="167"/>
      <point x="397" y="167" type="curve" smooth="yes"/>
      <point x="426" y="167" type="line" smooth="yes"/>
      <point x="445" y="167"/>
      <point x="460" y="173"/>
      <point x="468" y="186" type="curve" smooth="yes"/>
      <point x="617" y="411" type="line" smooth="yes"/>
      <point x="625" y="422"/>
      <point x="632" y="434"/>
      <point x="640" y="445" type="curve"/>
      <point x="644" y="444" type="line"/>
      <point x="642" y="428"/>
      <point x="641" y="413"/>
      <point x="639" y="397" type="curve" smooth="yes"/>
      <point x="602" y="35" type="line" smooth="yes"/>
      <point x="599" y="9"/>
      <point x="615" y="-2"/>
      <point x="658" y="-2" type="curve" smooth="yes"/>
      <point x="687" y="-2" type="line" smooth="yes"/>
      <point x="729" y="-2"/>
      <point x="748" y="9"/>
      <point x="750" y="30" type="curve" smooth="yes"/>
      <point x="817" y="670" type="line" smooth="yes"/>
      <point x="819" y="691"/>
      <point x="803" y="702"/>
      <point x="760" y="702" type="curve" smooth="yes"/>
      <point x="707" y="702" type="line" smooth="yes"/>
      <point x="678" y="702"/>
      <point x="655" y="695"/>
      <point x="642" y="675" type="curve" smooth="yes"/>
      <point x="452" y="394" type="line" smooth="yes"/>
      <point x="443" y="381"/>
      <point x="434" y="363"/>
      <point x="431" y="352" type="curve"/>
      <point x="429" y="362"/>
      <point x="423" y="381"/>
      <point x="416" y="395" type="curve" smooth="yes"/>
      <point x="288" y="675" type="line" smooth="yes"/>
      <point x="279" y="695"/>
      <point x="256" y="702"/>
      <point x="227" y="702" type="curve" smooth="yes"/>
      <point x="175" y="702" type="line" smooth="yes"/>
      <point x="133" y="702"/>
      <point x="114" y="691"/>
      <point x="112" y="670" type="curve" smooth="yes"/>
      <point x="46" y="35" type="line" smooth="yes"/>
      <point x="43" y="9"/>
      <point x="59" y="-2"/>
    </contour>
  </outline>
</glyph>
<glyph name="N" format="2">
  <advance width="719"/>
  <unicode hex="004E"/>
  <anchor x="341" y="0" name="bottom"/>
  <anchor x="396" y="700" name="top"/>
  <outline>
    <contour>
      <point x="102" y="-2" type="curve" smooth="yes"/>
      <point x="131" y="-2" type="line" smooth="yes"/>
      <point x="173" y="-2"/>
      <point x="192" y="9"/>
      <point x="194" y="30" type="curve" smooth="yes"/>
      <point x="227" y="355" type="line" smooth="yes"/>
      <point x="231" y="390"/>
      <point x="231" y="417"/>
      <point x="229" y="438" type="curve"/>
      <point x="236" y="441" type="line"/>
      <point x="240" y="431"/>
      <point x="244" y="422"/>
      <point x="262" y="388" type="curve" smooth="yes"/>
      <point x="461" y="25" type="line" smooth="yes"/>
      <point x="474" y="2"/>
      <point x="496" y="-2"/>
      <point x="525" y="-2" type="curve" smooth="yes"/>
      <point x="563" y="-2" type="line" smooth="yes"/>
      <point x="605" y="-2"/>
      <point x="624" y="9"/>
      <point x="626" y="30" type="curve" smooth="yes"/>
      <point x="693" y="670" type="line"/>
      <point x="693" y="691"/>
      <point x="679" y="702"/>
      <point x="636" y="702" type="curve" smooth="yes"/>
      <point x="607" y="702" type="line" smooth="yes"/>
      <point x="565" y="702"/>
      <point x="546" y="691"/>
      <point x="544" y="670" type="curve" smooth="yes"/>
      <point x="513" y="378" type="line" smooth="yes"/>
      <point x="508" y="332"/>
      <point x="507" y="293"/>
      <point x="508" y="267" type="curve"/>
      <point x="501" y="265" type="line"/>
      <point x="500" y="271"/>
      <point x="493" y="286"/>
      <point x="473" y="323" type="curve" smooth="yes"/>
      <point x="282" y="675" type="line" smooth="yes"/>
      <point x="269" y="698"/>
      <point x="247" y="702"/>
      <point x="218" y="702" type="curve" smooth="yes"/>
      <point x="175" y="702" type="line" smooth="yes"/>
      <point x="133" y="702"/>
      <point x="114" y="691"/>
      <point x="112" y="670" type="curve" smooth="yes"/>
      <point x="45" y="30" type="line"/>
      <point x="45" y="9"/>
      <point x="59" y="-2"/>
    </contour>
  </outline>
</glyph>
<glyph name="O" format="2">
  <advance width="731"/>
  <unicode hex="004F"/>
  <guideline x="444.714" y="637.354" angle="82.9328"/>
  <anchor x="352" y="0" name="bottom"/>
  <anchor x="517" y="682" name="horn"/>
  <anchor x="423" y="0" name="ogonek"/>
  <anchor x="407" y="720" name="top"/>
  <outline>
    <contour>
      <point x="352" y="-8" type="curve" smooth="yes"/>
      <point x="580" y="-8"/>
      <point x="699" y="143"/>
      <point x="699" y="378" type="curve" smooth="yes"/>
      <point x="699" y="604"/>
      <point x="580" y="708"/>
      <point x="403" y="708" type="curve" smooth="yes"/>
      <point x="125" y="708"/>
      <point x="51" y="505"/>
      <point x="51" y="311" type="curve" smooth="yes"/>
      <point x="51" y="97"/>
      <point x="162" y="-8"/>
    </contour>
    <contour>
      <point x="361" y="123" type="curve" smooth="yes"/>
      <point x="268" y="123"/>
      <point x="210" y="186"/>
      <point x="210" y="329" type="curve" smooth="yes"/>
      <point x="210" y="479"/>
      <point x="273" y="576"/>
      <point x="389" y="576" type="curve" smooth="yes"/>
      <point x="485" y="576"/>
      <point x="541" y="510"/>
      <point x="541" y="370" type="curve" smooth="yes"/>
      <point x="541" y="219"/>
      <point x="476" y="123"/>
    </contour>
  </outline>
</glyph>
<glyph name="P" format="2">
  <advance width="570"/>
  <unicode hex="0050"/>
  <anchor x="110" y="0" name="bottom"/>
  <anchor x="331" y="700" name="top"/>
  <outline>
    <contour>
      <point x="91" y="-2" type="curve" smooth="yes"/>
      <point x="125" y="-2" type="line" smooth="yes"/>
      <point x="167" y="-2"/>
      <point x="186" y="9"/>
      <point x="188" y="30" type="curve" smooth="yes"/>
      <point x="212" y="262" type="line"/>
      <point x="335" y="262" type="line" smooth="yes"/>
      <point x="494" y="262"/>
      <point x="578" y="354"/>
      <point x="578" y="501" type="curve" smooth="yes"/>
      <point x="578" y="632"/>
      <point x="490" y="700"/>
      <point x="341" y="700" type="curve" smooth="yes"/>
      <point x="144" y="700" type="line" smooth="yes"/>
      <point x="116" y="700"/>
      <point x="103" y="688"/>
      <point x="100" y="660" type="curve" smooth="yes"/>
      <point x="35" y="33" type="line" smooth="yes"/>
      <point x="32" y="9"/>
      <point x="48" y="-2"/>
    </contour>
    <contour>
      <point x="226" y="394" type="line"/>
      <point x="245" y="569" type="line"/>
      <point x="321" y="569" type="line" smooth="yes"/>
      <point x="385" y="569"/>
      <point x="419" y="540"/>
      <point x="419" y="486" type="curve" smooth="yes"/>
      <point x="419" y="433"/>
      <point x="389" y="394"/>
      <point x="332" y="394" type="curve" smooth="yes"/>
    </contour>
  </outline>
</glyph>
<glyph name="R" format="2">
  <advance width="610"/>
  <unicode hex="0052"/>
  <anchor x="303" y="0" name="bottom"/>
  <anchor x="346" y="700" name="top"/>
  <outline>
    <contour>
      <point x="106" y="-2" type="curve" smooth="yes"/>
      <point x="140" y="-2" type="line" smooth="yes"/>
      <point x="182" y="-2"/>
      <point x="201" y="9"/>
      <point x="203" y="30" type="curve" smooth="yes"/>
      <point x="229" y="274" type="line"/>
      <point x="278" y="274" type="line" smooth="yes"/>
      <point x="330" y="274"/>
      <point x="348" y="261"/>
      <point x="362" y="214" type="curve" smooth="yes"/>
      <point x="421" y="19" type="line" smooth="yes"/>
      <point x="426" y="3"/>
      <point x="447" y="-2"/>
      <point x="477" y="-2" type="curve" smooth="yes"/>
      <point x="518" y="-2" type="line" smooth="yes"/>
      <point x="559" y="-2"/>
      <point x="578" y="6"/>
      <point x="580" y="18" type="curve"/>
      <point x="580" y="23"/>
      <point x="579" y="29"/>
      <point x="577" y="37" type="curve" smooth="yes"/>
      <point x="519" y="230" type="line" smooth="yes"/>
      <point x="503" y="285"/>
      <point x="479" y="319"/>
      <point x="450" y="329" type="curve"/>
      <point x="450" y="333" type="line"/>
      <point x="526" y="345"/>
      <point x="583" y="420"/>
      <point x="583" y="511" type="curve" smooth="yes"/>
      <point x="583" y="632"/>
      <point x="498" y="700"/>
      <point x="355" y="700" type="curve" smooth="yes"/>
      <point x="159" y="700" type="line" smooth="yes"/>
      <point x="131" y="700"/>
      <point x="118" y="688"/>
      <point x="115" y="660" type="curve" smooth="yes"/>
      <point x="50" y="33" type="line" smooth="yes"/>
      <point x="47" y="9"/>
      <point x="63" y="-2"/>
    </contour>
    <contour>
      <point x="243" y="407" type="line"/>
      <point x="260" y="569" type="line"/>
      <point x="348" y="569" type="line" smooth="yes"/>
      <point x="397" y="569"/>
      <point x="430" y="540"/>
      <point x="430" y="486" type="curve" smooth="yes"/>
      <point x="430" y="440"/>
      <point x="401" y="405"/>
      <point x="345" y="406" type="curve" smooth="yes"/>
    </contour>
  </outline>
</glyph>
<glyph name="S" format="2">
  <advance width="500"/>
  <unicode hex="0053"/>
  <anchor x="233" y="0" name="bottom"/>
  <anchor x="289" y="700" name="top"/>
  <outline>
    <contour>
      <point x="218" y="-8" type="curve" smooth="yes"/>
      <point x="329" y="-8"/>
      <point x="468" y="41"/>
      <point x="468" y="228" type="curve" smooth="yes"/>
      <point x="468" y="319"/>
      <point x="402" y="379"/>
      <point x="313" y="420" type="curve" smooth="yes"/>
      <point x="256" y="446"/>
      <point x="210" y="464"/>
      <point x="210" y="513" type="curve" smooth="yes"/>
      <point x="210" y="535"/>
      <point x="222" y="576"/>
      <point x="309" y="576" type="curve" smooth="yes"/>
      <point x="348" y="576"/>
      <point x="373" y="568"/>
      <point x="391" y="561" type="curve" smooth="yes"/>
      <point x="404" y="556"/>
      <point x="412" y="551"/>
      <point x="418" y="551" type="curve" smooth="yes"/>
      <point x="442" y="551"/>
      <point x="482" y="614"/>
      <point x="482" y="640" type="curve" smooth="yes"/>
      <point x="482" y="649"/>
      <point x="476" y="659"/>
      <point x="465" y="668" type="curve" smooth="yes"/>
      <point x="439" y="690"/>
      <point x="383" y="708"/>
      <point x="309" y="708" type="curve" smooth="yes"/>
      <point x="186" y="708"/>
      <point x="49" y="654"/>
      <point x="49" y="478" type="curve" smooth="yes"/>
      <point x="49" y="372"/>
      <point x="132" y="331"/>
      <point x="204" y="296" type="curve" smooth="yes"/>
      <point x="259" y="270"/>
      <point x="307" y="246"/>
      <point x="307" y="200" type="curve" smooth="yes"/>
      <point x="307" y="137"/>
      <point x="249" y="123"/>
      <point x="206" y="123" type="curve" smooth="yes"/>
      <point x="162" y="123"/>
      <point x="127" y="136"/>
      <point x="101" y="149" type="curve" smooth="yes"/>
      <point x="77" y="161"/>
      <point x="60" y="173"/>
      <point x="52" y="173" type="curve" smooth="yes"/>
      <point x="41" y="173"/>
      <point x="26" y="164"/>
      <point x="26" y="90" type="curve" smooth="yes"/>
      <point x="26" y="55"/>
      <point x="34" y="43"/>
      <point x="47" y="33" type="curve" smooth="yes"/>
      <point x="87" y="3"/>
      <point x="170" y="-8"/>
    </contour>
  </outline>
</glyph>
<glyph name="T" format="2">
  <advance width="549"/>
  <unicode hex="0054"/>
  <anchor x="247" y="0" name="bottom"/>
  <anchor x="286" y="350" name="center"/>
  <anchor x="320" y="700" name="top"/>
  <outline>
    <contour>
      <point x="230" y="-2" type="curve" smooth="yes"/>
      <point x="265" y="-2" type="line" smooth="yes"/>
      <point x="304" y="-2"/>
      <point x="326" y="9"/>
      <point x="328" y="30" type="curve" smooth="yes"/>
      <point x="385" y="569" type="line"/>
      <point x="542" y="569" type="line" smooth="yes"/>
      <point x="563" y="569"/>
      <point x="577" y="584"/>
      <point x="581" y="629" type="curve" smooth="yes"/>
      <point x="582" y="640" type="line" smooth="yes"/>
      <point x="586" y="685"/>
      <point x="577" y="700"/>
      <point x="556" y="700" type="curve" smooth="yes"/>
      <point x="86" y="700" type="line" smooth="yes"/>
      <point x="65" y="700"/>
      <point x="51" y="685"/>
      <point x="47" y="640" type="curve" smooth="yes"/>
      <point x="46" y="629" type="line" smooth="yes"/>
      <point x="42" y="584"/>
      <point x="51" y="569"/>
      <point x="72" y="569" type="curve" smooth="yes"/>
      <point x="230" y="569" type="line"/>
      <point x="174" y="35" type="line" smooth="yes"/>
      <point x="170" y="0"/>
      <point x="213" y="-2"/>
    </contour>
  </outline>
</glyph>
<glyph name="U" format="2">
  <advance width="712"/>
  <unicode hex="0055"/>
  <anchor x="329" y="0" name="bottom"/>
  <anchor x="386" y="0" name="ogonek"/>
  <anchor x="401" y="700" name="top"/>
  <anchor x="600" y="702" name="topright"/>
  <outline>
    <contour>
      <point x="328" y="-8" type="curve" smooth="yes"/>
      <point x="510" y="-8"/>
      <point x="628" y="80"/>
      <point x="644" y="234" type="curve" smooth="yes"/>
      <point x="689" y="670" type="line" smooth="yes"/>
      <point x="691" y="690"/>
      <point x="676" y="702"/>
      <point x="633" y="702" type="curve" smooth="yes"/>
      <point x="600" y="702" type="line" smooth="yes"/>
      <point x="559" y="702"/>
      <point x="538" y="691"/>
      <point x="536" y="670" type="curve" smooth="yes"/>
      <point x="492" y="244" type="line" smooth="yes"/>
      <point x="484" y="164"/>
      <point x="433" y="123"/>
      <point x="342" y="123" type="curve" smooth="yes"/>
      <point x="252" y="123"/>
      <point x="212" y="167"/>
      <point x="219" y="239" type="curve" smooth="yes"/>
      <point x="263" y="670" type="line" smooth="yes"/>
      <point x="265" y="690"/>
      <point x="250" y="702"/>
      <point x="207" y="702" type="curve" smooth="yes"/>
      <point x="173" y="702" type="line" smooth="yes"/>
      <point x="132" y="702"/>
      <point x="111" y="691"/>
      <point x="109" y="670" type="curve" smooth="yes"/>
      <point x="64" y="221" type="line" smooth="yes"/>
      <point x="49" y="73"/>
      <point x="149" y="-8"/>
    </contour>
  </outline>
</glyph>
<glyph name="V" format="2">
  <advance width="617"/>
  <unicode hex="0056"/>
  <outline>
    <contour>
      <point x="256" y="-2" type="curve" smooth="yes"/>
      <point x="308" y="-2" type="line" smooth="yes"/>
      <point x="337" y="-2"/>
      <point x="359" y="3"/>
      <point x="366" y="19" type="curve" smooth="yes"/>
      <point x="649" y="662" type="line" smooth="yes"/>
      <point x="652" y="668"/>
      <point x="653" y="673"/>
      <point x="653" y="678" type="curve" smooth="yes"/>
      <point x="653" y="701"/>
      <point x="619" y="702"/>
      <point x="596" y="702" type="curve" smooth="yes"/>
      <point x="566" y="702" type="line" smooth="yes"/>
      <point x="538" y="702"/>
      <point x="513" y="694"/>
      <point x="504" y="673" type="curve" smooth="yes"/>
      <point x="336" y="276" type="line" smooth="yes"/>
      <point x="326" y="251"/>
      <point x="312" y="210"/>
      <point x="304" y="181" type="curve"/>
      <point x="300" y="181" type="line"/>
      <point x="299" y="200"/>
      <point x="293" y="243"/>
      <point x="285" y="280" type="curve" smooth="yes"/>
      <point x="204" y="673" type="line" smooth="yes"/>
      <point x="199" y="695"/>
      <point x="177" y="702"/>
      <point x="148" y="702" type="curve" smooth="yes"/>
      <point x="114" y="702" type="line" smooth="yes"/>
      <point x="68" y="702"/>
      <point x="47" y="690"/>
      <point x="52" y="668" type="curve" smooth="yes"/>
      <point x="202" y="19" type="line" smooth="yes"/>
      <point x="206" y="3"/>
      <point x="226" y="-2"/>
    </contour>
  </outline>
</glyph>
<glyph name="W" format="2">
  <advance width="882"/>
  <unicode hex="0057"/>
  <anchor x="493" y="700" name="top"/>
  <outline>
    <contour>
      <point x="184" y="-2" type="curve" smooth="yes"/>
      <point x="256" y="-2" type="line" smooth="yes"/>
      <point x="284" y="-2"/>
      <point x="307" y="5"/>
      <point x="313" y="19" type="curve" smooth="yes"/>
      <point x="426" y="343" type="line" smooth="yes"/>
      <point x="436" y="374"/>
      <point x="450" y="422"/>
      <point x="458" y="453" type="curve"/>
      <point x="462" y="453" type="line"/>
      <point x="463" y="433"/>
      <point x="466" y="387"/>
      <point x="470" y="346" type="curve" smooth="yes"/>
      <point x="513" y="19" type="line" smooth="yes"/>
      <point x="515" y="5"/>
      <point x="537" y="-2"/>
      <point x="566" y="-2" type="curve" smooth="yes"/>
      <point x="639" y="-2" type="line" smooth="yes"/>
      <point x="666" y="-2"/>
      <point x="691" y="5"/>
      <point x="696" y="19" type="curve" smooth="yes"/>
      <point x="928" y="670" type="line" smooth="yes"/>
      <point x="935" y="691"/>
      <point x="912" y="702"/>
      <point x="870" y="702" type="curve" smooth="yes"/>
      <point x="859" y="702" type="line" smooth="yes"/>
      <point x="820" y="702"/>
      <point x="796" y="692"/>
      <point x="789" y="671" type="curve" smooth="yes"/>
      <point x="677" y="349" type="line" smooth="yes"/>
      <point x="661" y="298"/>
      <point x="641" y="225"/>
      <point x="629" y="178" type="curve"/>
      <point x="625" y="178" type="line"/>
      <point x="622" y="223"/>
      <point x="615" y="296"/>
      <point x="609" y="349" type="curve" smooth="yes"/>
      <point x="565" y="681" type="line" smooth="yes"/>
      <point x="563" y="697"/>
      <point x="544" y="702"/>
      <point x="512" y="702" type="curve" smooth="yes"/>
      <point x="474" y="702" type="line" smooth="yes"/>
      <point x="442" y="702"/>
      <point x="423" y="697"/>
      <point x="417" y="681" type="curve" smooth="yes"/>
      <point x="300" y="349" type="line" smooth="yes"/>
      <point x="283" y="292"/>
      <point x="262" y="219"/>
      <point x="253" y="178" type="curve"/>
      <point x="249" y="178" type="line"/>
      <point x="247" y="210"/>
      <point x="241" y="284"/>
      <point x="235" y="349" type="curve" smooth="yes"/>
      <point x="194" y="671" type="line" smooth="yes"/>
      <point x="191" y="692"/>
      <point x="169" y="702"/>
      <point x="130" y="702" type="curve" smooth="yes"/>
      <point x="104" y="702" type="line" smooth="yes"/>
      <point x="58" y="702"/>
      <point x="36" y="690"/>
      <point x="39" y="667" type="curve" smooth="yes"/>
      <point x="131" y="21" type="line" smooth="yes"/>
      <point x="133" y="5"/>
      <point x="152" y="-2"/>
    </contour>
  </outline>
</glyph>
<glyph name="X" format="2">
  <advance width="611"/>
  <unicode hex="0058"/>
  <outline>
    <contour>
      <point x="44" y="-2" type="curve" smooth="yes"/>
      <point x="86" y="-2" type="line" smooth="yes"/>
      <point x="115" y="-2"/>
      <point x="136" y="-1"/>
      <point x="149" y="17" type="curve" smooth="yes"/>
      <point x="305" y="240" type="line"/>
      <point x="426" y="17" type="line" smooth="yes"/>
      <point x="434" y="2"/>
      <point x="449" y="-2"/>
      <point x="484" y="-2" type="curve" smooth="yes"/>
      <point x="513" y="-2" type="line" smooth="yes"/>
      <point x="542" y="-2"/>
      <point x="576" y="0"/>
      <point x="576" y="23" type="curve" smooth="yes"/>
      <point x="576" y="28"/>
      <point x="575" y="35"/>
      <point x="571" y="42" type="curve" smooth="yes"/>
      <point x="402" y="360" type="line"/>
      <point x="625" y="658" type="line" smooth="yes"/>
      <point x="632" y="668"/>
      <point x="635" y="676"/>
      <point x="635" y="682" type="curve" smooth="yes"/>
      <point x="635" y="702"/>
      <point x="600" y="702"/>
      <point x="576" y="702" type="curve" smooth="yes"/>
      <point x="532" y="702" type="line" smooth="yes"/>
      <point x="503" y="702"/>
      <point x="481" y="700"/>
      <point x="469" y="683" type="curve" smooth="yes"/>
      <point x="330" y="488" type="line"/>
      <point x="230" y="683" type="line" smooth="yes"/>
      <point x="222" y="698"/>
      <point x="201" y="702"/>
      <point x="172" y="702" type="curve" smooth="yes"/>
      <point x="141" y="702" type="line" smooth="yes"/>
      <point x="109" y="702"/>
      <point x="77" y="701"/>
      <point x="77" y="678" type="curve" smooth="yes"/>
      <point x="77" y="673"/>
      <point x="79" y="666"/>
      <point x="83" y="658" type="curve" smooth="yes"/>
      <point x="238" y="368" type="line"/>
      <point x="-4" y="42" type="line"/>
      <point x="-12" y="32"/>
      <point x="-15" y="24"/>
      <point x="-15" y="18" type="curve" smooth="yes"/>
      <point x="-15" y="-2"/>
      <point x="19" y="-2"/>
    </contour>
  </outline>
</glyph>
<glyph name="Y" format="2">
  <advance width="559"/>
  <unicode hex="0059"/>
  <anchor x="253" y="0" name="bottom"/>
  <anchor x="327" y="700" name="top"/>
  <outline>
    <contour>
      <point x="235" y="-2" type="curve" smooth="yes"/>
      <point x="269" y="-2" type="line" smooth="yes"/>
      <point x="311" y="-2"/>
      <point x="330" y="9"/>
      <point x="332" y="30" type="curve" smooth="yes"/>
      <point x="364" y="333" type="line"/>
      <point x="597" y="657" type="line" smooth="yes"/>
      <point x="604" y="667"/>
      <point x="608" y="676"/>
      <point x="608" y="682" type="curve" smooth="yes"/>
      <point x="608" y="700"/>
      <point x="570" y="702"/>
      <point x="547" y="702" type="curve" smooth="yes"/>
      <point x="511" y="702" type="line" smooth="yes"/>
      <point x="482" y="702"/>
      <point x="459" y="698"/>
      <point x="449" y="683" type="curve" smooth="yes"/>
      <point x="304" y="469" type="line"/>
      <point x="204" y="683" type="line" smooth="yes"/>
      <point x="197" y="698"/>
      <point x="175" y="702"/>
      <point x="146" y="702" type="curve" smooth="yes"/>
      <point x="103" y="702" type="line" smooth="yes"/>
      <point x="71" y="702"/>
      <point x="39" y="701"/>
      <point x="39" y="678" type="curve" smooth="yes"/>
      <point x="39" y="672"/>
      <point x="41" y="665"/>
      <point x="45" y="657" type="curve" smooth="yes"/>
      <point x="210" y="336" type="line"/>
      <point x="178" y="30" type="line"/>
      <point x="178" y="9"/>
      <point x="192" y="-2"/>
    </contour>
  </outline>
</glyph>
<glyph name="Z" format="2">
  <advance width="616"/>
  <unicode hex="005A"/>
  <anchor x="297" y="0" name="bottom"/>
  <anchor x="359" y="700" name="top"/>
  <outline>
    <contour>
      <point x="53" y="0" type="curve" smooth="yes"/>
      <point x="525" y="0" type="line" smooth="yes"/>
      <point x="546" y="0"/>
      <point x="560" y="15"/>
      <point x="564" y="60" type="curve" smooth="yes"/>
      <point x="565" y="71" type="line" smooth="yes"/>
      <point x="569" y="116"/>
      <point x="560" y="131"/>
      <point x="539" y="131" type="curve" smooth="yes"/>
      <point x="234" y="131" type="line"/>
      <point x="612" y="593" type="line" smooth="yes"/>
      <point x="617" y="599"/>
      <point x="619" y="605"/>
      <point x="619" y="613" type="curve" smooth="yes"/>
      <point x="619" y="641"/>
      <point x="606" y="700"/>
      <point x="587" y="700" type="curve" smooth="yes"/>
      <point x="136" y="700" type="line" smooth="yes"/>
      <point x="115" y="700"/>
      <point x="101" y="685"/>
      <point x="97" y="640" type="curve" smooth="yes"/>
      <point x="96" y="629" type="line" smooth="yes"/>
      <point x="92" y="584"/>
      <point x="101" y="569"/>
      <point x="122" y="569" type="curve" smooth="yes"/>
      <point x="400" y="569" type="line"/>
      <point x="23" y="107" type="line" smooth="yes"/>
      <point x="19" y="103"/>
      <point x="16" y="95"/>
      <point x="16" y="87" type="curve" smooth="yes"/>
      <point x="16" y="59"/>
      <point x="29" y="0"/>
    </contour>
  </outline>
</glyph>
<glyph name="bracketleft" format="2">
  <advance width="291"/>
  <unicode hex="005B"/>
  <outline>
    <contour>
      <point x="58" y="-138" type="curve" smooth="yes"/>
      <point x="191" y="-138" type="line" smooth="yes"/>
      <point x="208" y="-138"/>
      <point x="218" y="-127"/>
      <point x="220" y="-98" type="curve" smooth="yes"/>
      <point x="221" y="-84" type="line" smooth="yes"/>
      <point x="223" y="-55"/>
      <point x="218" y="-43"/>
      <point x="201" y="-43" type="curve" smooth="yes"/>
      <point x="143" y="-43" type="line"/>
      <point x="218" y="673" type="line"/>
      <point x="274" y="673" type="line" smooth="yes"/>
      <point x="293" y="673"/>
      <point x="303" y="683"/>
      <point x="305" y="712" type="curve" smooth="yes"/>
      <point x="306" y="727" type="line" smooth="yes"/>
      <point x="308" y="756"/>
      <point x="303" y="768"/>
      <point x="285" y="768" type="curve" smooth="yes"/>
      <point x="153" y="768" type="line" smooth="yes"/>
      <point x="125" y="768"/>
      <point x="112" y="756"/>
      <point x="109" y="728" type="curve" smooth="yes"/>
      <point x="22" y="-106" type="line" smooth="yes"/>
      <point x="20" y="-130"/>
      <point x="31" y="-138"/>
    </contour>
  </outline>
</glyph>
<glyph name="backslash" format="2">
  <advance width="422"/>
  <unicode hex="005C"/>
  <outline>
    <contour>
      <point x="319" y="-79" type="curve" smooth="yes"/>
      <point x="337" y="-79" type="line" smooth="yes"/>
      <point x="372" y="-79"/>
      <point x="388" y="-73"/>
      <point x="388" y="-63" type="curve" smooth="yes"/>
      <point x="388" y="-60"/>
      <point x="385" y="-51"/>
      <point x="382" y="-41" type="curve" smooth="yes"/>
      <point x="169" y="677" type="line" smooth="yes"/>
      <point x="163" y="696"/>
      <point x="144" y="702"/>
      <point x="113" y="702" type="curve" smooth="yes"/>
      <point x="100" y="702" type="line" smooth="yes"/>
      <point x="63" y="702"/>
      <point x="45" y="696"/>
      <point x="45" y="686" type="curve" smooth="yes"/>
      <point x="45" y="682"/>
      <point x="46" y="678"/>
      <point x="50" y="664" type="curve" smooth="yes"/>
      <point x="264" y="-54" type="line" smooth="yes"/>
      <point x="270" y="-75"/>
      <point x="288" y="-79"/>
    </contour>
  </outline>
</glyph>
<glyph name="bracketright" format="2">
  <advance width="291"/>
  <unicode hex="005D"/>
  <outline>
    <contour>
      <point x="31" y="-138" type="curve" smooth="yes"/>
      <point x="163" y="-138" type="line" smooth="yes"/>
      <point x="191" y="-138"/>
      <point x="204" y="-126"/>
      <point x="207" y="-98" type="curve" smooth="yes"/>
      <point x="294" y="736" type="line" smooth="yes"/>
      <point x="296" y="760"/>
      <point x="285" y="768"/>
      <point x="258" y="768" type="curve" smooth="yes"/>
      <point x="125" y="768" type="line" smooth="yes"/>
      <point x="108" y="768"/>
      <point x="98" y="757"/>
      <point x="96" y="728" type="curve" smooth="yes"/>
      <point x="95" y="714" type="line" smooth="yes"/>
      <point x="93" y="685"/>
      <point x="98" y="673"/>
      <point x="115" y="673" type="curve" smooth="yes"/>
      <point x="173" y="673" type="line"/>
      <point x="98" y="-43" type="line"/>
      <point x="42" y="-43" type="line" smooth="yes"/>
      <point x="23" y="-43"/>
      <point x="13" y="-53"/>
      <point x="11" y="-82" type="curve" smooth="yes"/>
      <point x="10" y="-97" type="line" smooth="yes"/>
      <point x="8" y="-126"/>
      <point x="13" y="-138"/>
    </contour>
  </outline>
</glyph>
<glyph name="asciicircum" format="2">
  <advance width="450"/>
  <unicode hex="005E"/>
  <outline>
    <contour>
      <point x="82" y="318" type="curve" smooth="yes"/>
      <point x="93" y="318" type="line" smooth="yes"/>
      <point x="119" y="318"/>
      <point x="131" y="327"/>
      <point x="142" y="348" type="curve" smooth="yes"/>
      <point x="281" y="615" type="line"/>
      <point x="233" y="616" type="line"/>
      <point x="314" y="346" type="line" smooth="yes"/>
      <point x="320" y="325"/>
      <point x="335" y="318"/>
      <point x="363" y="318" type="curve" smooth="yes"/>
      <point x="370" y="318" type="line" smooth="yes"/>
      <point x="402" y="318"/>
      <point x="418" y="323"/>
      <point x="418" y="333" type="curve" smooth="yes"/>
      <point x="418" y="337"/>
      <point x="418" y="342"/>
      <point x="413" y="357" type="curve" smooth="yes"/>
      <point x="319" y="656" type="line" smooth="yes"/>
      <point x="313" y="676"/>
      <point x="299" y="686"/>
      <point x="280" y="686" type="curve" smooth="yes"/>
      <point x="249" y="686" type="line" smooth="yes"/>
      <point x="228" y="686"/>
      <point x="214" y="676"/>
      <point x="204" y="656" type="curve" smooth="yes"/>
      <point x="46" y="356" type="line" smooth="yes"/>
      <point x="38" y="341"/>
      <point x="37" y="336"/>
      <point x="37" y="332" type="curve" smooth="yes"/>
      <point x="37" y="323"/>
      <point x="47" y="318"/>
    </contour>
  </outline>
</glyph>
<glyph name="underscore" format="2">
  <advance width="534"/>
  <unicode hex="005F"/>
  <outline>
    <contour>
      <point x="-35" y="-143" type="curve" smooth="yes"/>
      <point x="485" y="-143" type="line" smooth="yes"/>
      <point x="502" y="-143"/>
      <point x="513" y="-131"/>
      <point x="517" y="-94" type="curve" smooth="yes"/>
      <point x="518" y="-85" type="line" smooth="yes"/>
      <point x="522" y="-48"/>
      <point x="513" y="-36"/>
      <point x="496" y="-36" type="curve" smooth="yes"/>
      <point x="-24" y="-36" type="line" smooth="yes"/>
      <point x="-41" y="-36"/>
      <point x="-53" y="-48"/>
      <point x="-56" y="-82" type="curve" smooth="yes"/>
      <point x="-57" y="-94" type="line" smooth="yes"/>
      <point x="-60" y="-131"/>
      <point x="-52" y="-143"/>
    </contour>
  </outline>
</glyph>
<glyph name="grave" format="2">
  <advance width="191"/>
  <unicode hex="0060"/>
  <outline>
    <contour>
      <point x="183" y="572" type="curve" smooth="yes"/>
      <point x="216" y="572"/>
      <point x="225" y="576"/>
      <point x="225" y="587" type="curve" smooth="yes"/>
      <point x="225" y="594"/>
      <point x="221" y="601"/>
      <point x="215" y="615" type="curve" smooth="yes"/>
      <point x="187" y="679" type="line" smooth="yes"/>
      <point x="172" y="711"/>
      <point x="163" y="718"/>
      <point x="101" y="718" type="curve" smooth="yes"/>
      <point x="58" y="718"/>
      <point x="46" y="713"/>
      <point x="46" y="698" type="curve" smooth="yes"/>
      <point x="46" y="689"/>
      <point x="51" y="677"/>
      <point x="81" y="641" type="curve" smooth="yes"/>
      <point x="112" y="602" type="line" smooth="yes"/>
      <point x="130" y="580"/>
      <point x="152" y="572"/>
    </contour>
  </outline>
</glyph>
<glyph name="a" format="2">
  <advance width="545"/>
  <unicode hex="0061"/>
  <anchor x="231" y="0" name="bottom"/>
  <anchor x="497" y="0" name="ogonek"/>
  <anchor x="300" y="523" name="top"/>
  <outline>
    <contour>
      <point x="186" y="-9" type="curve" smooth="yes"/>
      <point x="244" y="-9"/>
      <point x="294" y="24"/>
      <point x="322" y="68" type="curve"/>
      <point x="336" y="14"/>
      <point x="376" y="-8"/>
      <point x="437" y="-8" type="curve" smooth="yes"/>
      <point x="472" y="-8"/>
      <point x="518" y="7"/>
      <point x="525" y="44" type="curve" smooth="yes"/>
      <point x="532" y="79"/>
      <point x="532" y="97"/>
      <point x="532" y="103" type="curve" smooth="yes"/>
      <point x="532" y="112"/>
      <point x="530" y="115"/>
      <point x="524" y="115" type="curve" smooth="yes"/>
      <point x="520" y="115"/>
      <point x="509" y="109"/>
      <point x="495" y="109" type="curve" smooth="yes"/>
      <point x="474" y="109"/>
      <point x="463" y="119"/>
      <point x="466" y="147" type="curve" smooth="yes"/>
      <point x="501" y="494" type="line" smooth="yes"/>
      <point x="503" y="515"/>
      <point x="484" y="524"/>
      <point x="444" y="524" type="curve" smooth="yes"/>
      <point x="432" y="524" type="line" smooth="yes"/>
      <point x="381" y="523"/>
      <point x="378" y="513"/>
      <point x="367" y="477" type="curve"/>
      <point x="346" y="497"/>
      <point x="303" y="530"/>
      <point x="246" y="530" type="curve" smooth="yes"/>
      <point x="115" y="530"/>
      <point x="24" y="400"/>
      <point x="24" y="208" type="curve" smooth="yes"/>
      <point x="24" y="67"/>
      <point x="89" y="-9"/>
    </contour>
    <contour>
      <point x="242" y="112" type="curve" smooth="yes"/>
      <point x="196" y="112"/>
      <point x="174" y="148"/>
      <point x="174" y="217" type="curve" smooth="yes"/>
      <point x="174" y="345"/>
      <point x="213" y="413"/>
      <point x="280" y="413" type="curve" smooth="yes"/>
      <point x="308" y="413"/>
      <point x="329" y="401"/>
      <point x="346" y="386" type="curve"/>
      <point x="340" y="364"/>
      <point x="338" y="346"/>
      <point x="334" y="305" type="curve" smooth="yes"/>
      <point x="320" y="170" type="line"/>
      <point x="300" y="139"/>
      <point x="274" y="112"/>
    </contour>
  </outline>
</glyph>
<glyph name="b" format="2">
  <advance width="569"/>
  <unicode hex="0062"/>
  <outline>
    <contour>
      <point x="282" y="-8" type="curve" smooth="yes"/>
      <point x="425" y="-8"/>
      <point x="524" y="122"/>
      <point x="524" y="314" type="curve" smooth="yes"/>
      <point x="524" y="455"/>
      <point x="451" y="531"/>
      <point x="342" y="531" type="curve" smooth="yes"/>
      <point x="292" y="531"/>
      <point x="250" y="508"/>
      <point x="221" y="474" type="curve"/>
      <point x="248" y="723" type="line"/>
      <point x="248" y="739"/>
      <point x="231" y="754"/>
      <point x="191" y="754" type="curve" smooth="yes"/>
      <point x="163" y="754" type="line" smooth="yes"/>
      <point x="124" y="754"/>
      <point x="102" y="743"/>
      <point x="100" y="722" type="curve" smooth="yes"/>
      <point x="26" y="26" type="line" smooth="yes"/>
      <point x="24" y="7"/>
      <point x="44" y="-2"/>
      <point x="84" y="-2" type="curve" smooth="yes"/>
      <point x="96" y="-2" type="line" smooth="yes"/>
      <point x="146" y="-1"/>
      <point x="150" y="9"/>
      <point x="161" y="44" type="curve"/>
      <point x="183" y="23"/>
      <point x="225" y="-8"/>
    </contour>
    <contour>
      <point x="248" y="109" type="curve" smooth="yes"/>
      <point x="220" y="109"/>
      <point x="199" y="121"/>
      <point x="183" y="135" type="curve"/>
      <point x="187" y="164"/>
      <point x="192" y="194"/>
      <point x="195" y="223" type="curve" smooth="yes"/>
      <point x="209" y="354" type="line"/>
      <point x="229" y="384"/>
      <point x="254" y="410"/>
      <point x="286" y="410" type="curve" smooth="yes"/>
      <point x="347" y="410"/>
      <point x="374" y="377"/>
      <point x="374" y="305" type="curve" smooth="yes"/>
      <point x="374" y="177"/>
      <point x="327" y="109"/>
    </contour>
  </outline>
</glyph>
<glyph name="c" format="2">
  <advance width="485"/>
  <unicode hex="0063"/>
  <anchor x="266" y="0" name="bottom"/>
  <anchor x="301" y="523" name="top"/>
  <outline>
    <contour>
      <point x="260" y="-8" type="curve" smooth="yes"/>
      <point x="291" y="-8"/>
      <point x="432" y="7"/>
      <point x="432" y="65" type="curve" smooth="yes"/>
      <point x="432" y="87"/>
      <point x="409" y="138"/>
      <point x="388" y="138" type="curve" smooth="yes"/>
      <point x="384" y="138"/>
      <point x="378" y="135"/>
      <point x="370" y="132" type="curve" smooth="yes"/>
      <point x="346" y="123"/>
      <point x="320" y="109"/>
      <point x="279" y="109" type="curve" smooth="yes"/>
      <point x="214" y="109"/>
      <point x="186" y="146"/>
      <point x="186" y="221" type="curve" smooth="yes"/>
      <point x="186" y="347"/>
      <point x="231" y="414"/>
      <point x="317" y="414" type="curve" smooth="yes"/>
      <point x="354" y="414"/>
      <point x="375" y="401"/>
      <point x="390" y="393" type="curve" smooth="yes"/>
      <point x="405" y="385"/>
      <point x="407" y="385"/>
      <point x="409" y="385" type="curve" smooth="yes"/>
      <point x="426" y="385"/>
      <point x="471" y="444"/>
      <point x="471" y="465" type="curve" smooth="yes"/>
      <point x="471" y="509"/>
      <point x="381" y="531"/>
      <point x="322" y="531" type="curve" smooth="yes"/>
      <point x="134" y="531"/>
      <point x="33" y="417"/>
      <point x="33" y="205" type="curve" smooth="yes"/>
      <point x="33" y="62"/>
      <point x="107" y="-8"/>
    </contour>
  </outline>
</glyph>
<glyph name="d" format="2">
  <advance width="565"/>
  <unicode hex="0064"/>
  <anchor x="251" y="0" name="bottom"/>
  <anchor x="447" y="630" name="center"/>
  <anchor x="562" y="752" name="topright"/>
  <outline>
    <contour>
      <point x="198" y="-8" type="curve" smooth="yes"/>
      <point x="257" y="-8"/>
      <point x="306" y="24"/>
      <point x="334" y="69" type="curve"/>
      <point x="348" y="15"/>
      <point x="387" y="-8"/>
      <point x="449" y="-8" type="curve" smooth="yes"/>
      <point x="484" y="-8"/>
      <point x="530" y="7"/>
      <point x="537" y="44" type="curve" smooth="yes"/>
      <point x="544" y="79"/>
      <point x="544" y="97"/>
      <point x="544" y="103" type="curve" smooth="yes"/>
      <point x="544" y="112"/>
      <point x="542" y="115"/>
      <point x="536" y="115" type="curve" smooth="yes"/>
      <point x="532" y="115"/>
      <point x="521" y="109"/>
      <point x="507" y="109" type="curve" smooth="yes"/>
      <point x="486" y="109"/>
      <point x="475" y="119"/>
      <point x="478" y="147" type="curve" smooth="yes"/>
      <point x="538" y="720" type="line" smooth="yes"/>
      <point x="540" y="739"/>
      <point x="521" y="754"/>
      <point x="481" y="754" type="curve" smooth="yes"/>
      <point x="453" y="754" type="line" smooth="yes"/>
      <point x="414" y="754"/>
      <point x="392" y="743"/>
      <point x="390" y="722" type="curve" smooth="yes"/>
      <point x="365" y="490" type="line"/>
      <point x="342" y="509"/>
      <point x="305" y="531"/>
      <point x="258" y="531" type="curve" smooth="yes"/>
      <point x="121" y="531"/>
      <point x="26" y="401"/>
      <point x="26" y="209" type="curve" smooth="yes"/>
      <point x="26" y="68"/>
      <point x="95" y="-8"/>
    </contour>
    <contour>
      <point x="254" y="113" type="curve" smooth="yes"/>
      <point x="202" y="113"/>
      <point x="176" y="149"/>
      <point x="176" y="218" type="curve" smooth="yes"/>
      <point x="176" y="346"/>
      <point x="219" y="414"/>
      <point x="292" y="414" type="curve" smooth="yes"/>
      <point x="318" y="414"/>
      <point x="339" y="403"/>
      <point x="355" y="390" type="curve"/>
      <point x="333" y="172" type="line"/>
      <point x="313" y="140"/>
      <point x="287" y="113"/>
    </contour>
  </outline>
</glyph>
<glyph name="e" format="2">
  <advance width="539"/>
  <unicode hex="0065"/>
  <anchor x="270" y="0" name="bottom"/>
  <anchor x="378" y="0" name="ogonek"/>
  <anchor x="304" y="523" name="top"/>
  <outline>
    <contour>
      <point x="308" y="531" type="curve" smooth="yes"/>
      <point x="160" y="531"/>
      <point x="33" y="443"/>
      <point x="33" y="212" type="curve" smooth="yes"/>
      <point x="33" y="77"/>
      <point x="106" y="-8"/>
      <point x="269" y="-8" type="curve" smooth="yes"/>
      <point x="324" y="-8"/>
      <point x="427" y="7"/>
      <point x="443" y="62" type="curve" smooth="yes"/>
      <point x="448" y="78"/>
      <point x="451" y="115"/>
      <point x="451" y="139" type="curve" smooth="yes"/>
      <point x="451" y="152"/>
      <point x="447" y="153"/>
      <point x="443" y="153" type="curve" smooth="yes"/>
      <point x="432" y="153"/>
      <point x="368" y="109"/>
      <point x="288" y="109" type="curve" smooth="yes"/>
      <point x="226" y="109"/>
      <point x="183" y="130"/>
      <point x="183" y="225" type="curve"/>
      <point x="183" y="266" type="line"/>
      <point x="148" y="216" type="line"/>
      <point x="186" y="209"/>
      <point x="224" y="203"/>
      <point x="287" y="203" type="curve" smooth="yes"/>
      <point x="386" y="203"/>
      <point x="502" y="253"/>
      <point x="502" y="386" type="curve" smooth="yes"/>
      <point x="502" y="438"/>
      <point x="471" y="531"/>
    </contour>
    <contour>
      <point x="298" y="414" type="curve" smooth="yes"/>
      <point x="333" y="414"/>
      <point x="358" y="400"/>
      <point x="358" y="367" type="curve" smooth="yes"/>
      <point x="358" y="338"/>
      <point x="332" y="302"/>
      <point x="238" y="302" type="curve" smooth="yes"/>
      <point x="190" y="302" type="line"/>
      <point x="204" y="364"/>
      <point x="236" y="414"/>
    </contour>
  </outline>
</glyph>
<glyph name="f" format="2">
  <advance width="325"/>
  <unicode hex="0066"/>
  <outline>
    <contour>
      <point x="98" y="-2" type="curve" smooth="yes"/>
      <point x="126" y="-2" type="line" smooth="yes"/>
      <point x="165" y="-2"/>
      <point x="187" y="9"/>
      <point x="189" y="30" type="curve" smooth="yes"/>
      <point x="228" y="406" type="line"/>
      <point x="274" y="406" type="line" smooth="yes"/>
      <point x="295" y="406"/>
      <point x="305" y="421"/>
      <point x="309" y="456" type="curve" smooth="yes"/>
      <point x="311" y="473" type="line" smooth="yes"/>
      <point x="315" y="508"/>
      <point x="307" y="523"/>
      <point x="286" y="523" type="curve" smooth="yes"/>
      <point x="240" y="523" type="line"/>
      <point x="249" y="600" type="line" smooth="yes"/>
      <point x="252" y="629"/>
      <point x="263" y="643"/>
      <point x="289" y="643" type="curve" smooth="yes"/>
      <point x="309" y="643"/>
      <point x="314" y="638"/>
      <point x="322" y="638" type="curve" smooth="yes"/>
      <point x="339" y="638"/>
      <point x="359" y="697"/>
      <point x="359" y="714" type="curve" smooth="yes"/>
      <point x="359" y="752"/>
      <point x="311" y="760"/>
      <point x="263" y="760" type="curve" smooth="yes"/>
      <point x="168" y="760"/>
      <point x="109" y="700"/>
      <point x="100" y="598" type="curve" smooth="yes"/>
      <point x="93" y="523" type="line"/>
      <point x="72" y="523" type="line" smooth="yes"/>
      <point x="50" y="523"/>
      <point x="40" y="508"/>
      <point x="36" y="473" type="curve" smooth="yes"/>
      <point x="34" y="456" type="line" smooth="yes"/>
      <point x="30" y="421"/>
      <point x="38" y="406"/>
      <point x="60" y="406" type="curve" smooth="yes"/>
      <point x="80" y="406" type="line"/>
      <point x="41" y="29" type="line"/>
      <point x="41" y="13"/>
      <point x="58" y="-2"/>
    </contour>
  </outline>
</glyph>
<glyph name="g" format="2">
  <advance width="546"/>
  <unicode hex="0067"/>
  <anchor x="323" y="523" name="top"/>
  <outline>
    <contour>
      <point x="223" y="-212" type="curve" smooth="yes"/>
      <point x="379" y="-212"/>
      <point x="457" y="-110"/>
      <point x="478" y="93" type="curve" smooth="yes"/>
      <point x="519" y="500" type="line"/>
      <point x="519" y="516"/>
      <point x="501" y="525"/>
      <point x="461" y="525" type="curve" smooth="yes"/>
      <point x="449" y="525" type="line" smooth="yes"/>
      <point x="399" y="524"/>
      <point x="395" y="514"/>
      <point x="384" y="479" type="curve"/>
      <point x="363" y="499"/>
      <point x="320" y="531"/>
      <point x="264" y="531" type="curve" smooth="yes"/>
      <point x="127" y="531"/>
      <point x="32" y="403"/>
      <point x="32" y="213" type="curve" smooth="yes"/>
      <point x="32" y="77"/>
      <point x="101" y="4"/>
      <point x="204" y="4" type="curve" smooth="yes"/>
      <point x="270" y="4"/>
      <point x="324" y="48"/>
      <point x="349" y="98" type="curve"/>
      <point x="333" y="130" type="line"/>
      <point x="323" y="33" type="line" smooth="yes"/>
      <point x="315" y="-49"/>
      <point x="270" y="-95"/>
      <point x="193" y="-95" type="curve" smooth="yes"/>
      <point x="115" y="-95"/>
      <point x="70" y="-54"/>
      <point x="58" y="-54" type="curve" smooth="yes"/>
      <point x="48" y="-54"/>
      <point x="38" y="-73"/>
      <point x="38" y="-141" type="curve" smooth="yes"/>
      <point x="38" y="-183"/>
      <point x="120" y="-212"/>
    </contour>
    <contour>
      <point x="260" y="125" type="curve" smooth="yes"/>
      <point x="208" y="125"/>
      <point x="182" y="158"/>
      <point x="182" y="222" type="curve" smooth="yes"/>
      <point x="182" y="347"/>
      <point x="225" y="414"/>
      <point x="298" y="414" type="curve" smooth="yes"/>
      <point x="325" y="414"/>
      <point x="346" y="402"/>
      <point x="363" y="388" type="curve"/>
      <point x="357" y="362"/>
      <point x="355" y="333"/>
      <point x="351" y="300" type="curve" smooth="yes"/>
      <point x="338" y="183" type="line"/>
      <point x="318" y="152"/>
      <point x="292" y="125"/>
    </contour>
  </outline>
</glyph>
<glyph name="h" format="2">
  <advance width="565"/>
  <unicode hex="0068"/>
  <anchor x="261" y="0" name="bottom"/>
  <anchor x="184" y="630" name="center"/>
  <anchor x="170" y="735" name="top"/>
  <outline>
    <contour>
      <point x="442" y="-8" type="curve" smooth="yes"/>
      <point x="477" y="-8"/>
      <point x="523" y="7"/>
      <point x="530" y="44" type="curve" smooth="yes"/>
      <point x="537" y="79"/>
      <point x="537" y="97"/>
      <point x="537" y="103" type="curve" smooth="yes"/>
      <point x="537" y="112"/>
      <point x="535" y="115"/>
      <point x="529" y="115" type="curve" smooth="yes"/>
      <point x="525" y="115"/>
      <point x="514" y="109"/>
      <point x="500" y="109" type="curve" smooth="yes"/>
      <point x="479" y="109"/>
      <point x="468" y="119"/>
      <point x="471" y="147" type="curve" smooth="yes"/>
      <point x="493" y="384" type="line" smooth="yes"/>
      <point x="503" y="491"/>
      <point x="452" y="531"/>
      <point x="363" y="531" type="curve" smooth="yes"/>
      <point x="307" y="531"/>
      <point x="250" y="499"/>
      <point x="216" y="463" type="curve"/>
      <point x="243" y="723" type="line" smooth="yes"/>
      <point x="245" y="739"/>
      <point x="226" y="754"/>
      <point x="186" y="754" type="curve" smooth="yes"/>
      <point x="158" y="754" type="line" smooth="yes"/>
      <point x="119" y="754"/>
      <point x="97" y="743"/>
      <point x="95" y="722" type="curve" smooth="yes"/>
      <point x="22" y="29" type="line" smooth="yes"/>
      <point x="20" y="13"/>
      <point x="39" y="-2"/>
      <point x="79" y="-2" type="curve" smooth="yes"/>
      <point x="107" y="-2" type="line" smooth="yes"/>
      <point x="146" y="-2"/>
      <point x="168" y="9"/>
      <point x="170" y="30" type="curve" smooth="yes"/>
      <point x="204" y="352" type="line"/>
      <point x="223" y="379"/>
      <point x="252" y="409"/>
      <point x="290" y="409" type="curve" smooth="yes"/>
      <point x="329" y="409"/>
      <point x="347" y="391"/>
      <point x="343" y="349" type="curve" smooth="yes"/>
      <point x="322" y="129" type="line" smooth="yes"/>
      <point x="312" y="29"/>
      <point x="364" y="-8"/>
    </contour>
  </outline>
</glyph>
<glyph name="k" format="2">
  <advance width="521"/>
  <unicode hex="006B"/>
  <anchor x="232" y="0" name="bottom"/>
  <outline>
    <contour>
      <point x="82" y="-2" type="curve" smooth="yes"/>
      <point x="110" y="-2" type="line" smooth="yes"/>
      <point x="152" y="-2"/>
      <point x="171" y="9"/>
      <point x="173" y="30" type="curve" smooth="yes"/>
      <point x="196" y="246" type="line"/>
      <point x="200" y="247" type="line"/>
      <point x="315" y="17" type="line" smooth="yes"/>
      <point x="322" y="2"/>
      <point x="344" y="-2"/>
      <point x="373" y="-2" type="curve" smooth="yes"/>
      <point x="415" y="-2" type="line" smooth="yes"/>
      <point x="460" y="-2"/>
      <point x="473" y="5"/>
      <point x="473" y="16" type="curve" smooth="yes"/>
      <point x="473" y="21"/>
      <point x="472" y="26"/>
      <point x="468" y="34" type="curve" smooth="yes"/>
      <point x="332" y="292" type="line"/>
      <point x="491" y="490" type="line" smooth="yes"/>
      <point x="498" y="498"/>
      <point x="503" y="506"/>
      <point x="503" y="511" type="curve" smooth="yes"/>
      <point x="503" y="519"/>
      <point x="485" y="525"/>
      <point x="448" y="525" type="curve" smooth="yes"/>
      <point x="411" y="525" type="line" smooth="yes"/>
      <point x="382" y="525"/>
      <point x="361" y="523"/>
      <point x="348" y="506" type="curve" smooth="yes"/>
      <point x="208" y="325" type="line"/>
      <point x="204" y="326" type="line"/>
      <point x="246" y="722" type="line"/>
      <point x="246" y="743"/>
      <point x="232" y="754"/>
      <point x="189" y="754" type="curve" smooth="yes"/>
      <point x="161" y="754" type="line" smooth="yes"/>
      <point x="119" y="754"/>
      <point x="100" y="743"/>
      <point x="98" y="722" type="curve" smooth="yes"/>
      <point x="25" y="30" type="line"/>
      <point x="25" y="9"/>
      <point x="39" y="-2"/>
    </contour>
  </outline>
</glyph>
<glyph name="l" format="2">
  <advance width="297"/>
  <unicode hex="006C"/>
  <anchor x="140" y="0" name="bottom"/>
  <anchor x="283" y="375" name="center"/>
  <anchor x="176" y="720" name="top"/>
  <anchor x="276" y="752" name="topright"/>
  <outline>
    <contour>
      <point x="154" y="-8" type="curve" smooth="yes"/>
      <point x="189" y="-8"/>
      <point x="235" y="7"/>
      <point x="242" y="44" type="curve" smooth="yes"/>
      <point x="249" y="79"/>
      <point x="249" y="97"/>
      <point x="249" y="103" type="curve" smooth="yes"/>
      <point x="249" y="112"/>
      <point x="247" y="115"/>
      <point x="241" y="115" type="curve" smooth="yes"/>
      <point x="237" y="115"/>
      <point x="226" y="109"/>
      <point x="212" y="109" type="curve" smooth="yes"/>
      <point x="191" y="109"/>
      <point x="180" y="119"/>
      <point x="183" y="147" type="curve" smooth="yes"/>
      <point x="243" y="728" type="line"/>
      <point x="243" y="744"/>
      <point x="232" y="755"/>
      <point x="196" y="755" type="curve" smooth="yes"/>
      <point x="148" y="755" type="line" smooth="yes"/>
      <point x="111" y="755"/>
      <point x="99" y="745"/>
      <point x="96" y="725" type="curve"/>
      <point x="35" y="139" type="line" smooth="yes"/>
      <point x="24" y="29"/>
      <point x="76" y="-8"/>
    </contour>
  </outline>
</glyph>
<glyph name="m" format="2">
  <advance width="848"/>
  <unicode hex="006D"/>
  <outline>
    <contour>
      <point x="732" y="-8" type="curve" smooth="yes"/>
      <point x="767" y="-8"/>
      <point x="813" y="7"/>
      <point x="820" y="44" type="curve" smooth="yes"/>
      <point x="827" y="79"/>
      <point x="827" y="97"/>
      <point x="827" y="103" type="curve" smooth="yes"/>
      <point x="827" y="112"/>
      <point x="825" y="115"/>
      <point x="819" y="115" type="curve" smooth="yes"/>
      <point x="815" y="115"/>
      <point x="804" y="109"/>
      <point x="790" y="109" type="curve" smooth="yes"/>
      <point x="769" y="109"/>
      <point x="758" y="119"/>
      <point x="761" y="147" type="curve" smooth="yes"/>
      <point x="783" y="384" type="line" smooth="yes"/>
      <point x="793" y="491"/>
      <point x="742" y="531"/>
      <point x="653" y="531" type="curve" smooth="yes"/>
      <point x="589" y="531"/>
      <point x="524" y="492"/>
      <point x="493" y="454" type="curve"/>
      <point x="478" y="506"/>
      <point x="436" y="531"/>
      <point x="367" y="531" type="curve" smooth="yes"/>
      <point x="292" y="531"/>
      <point x="214" y="473"/>
      <point x="193" y="424" type="curve"/>
      <point x="210" y="397" type="line"/>
      <point x="211" y="404"/>
      <point x="213" y="420"/>
      <point x="213" y="439" type="curve" smooth="yes"/>
      <point x="213" y="475"/>
      <point x="207" y="520"/>
      <point x="180" y="520" type="curve" smooth="yes"/>
      <point x="115" y="520"/>
      <point x="64" y="506"/>
      <point x="64" y="484" type="curve" smooth="yes"/>
      <point x="64" y="469"/>
      <point x="66" y="452"/>
      <point x="66" y="428" type="curve" smooth="yes"/>
      <point x="66" y="374"/>
      <point x="42" y="163"/>
      <point x="28" y="31" type="curve" smooth="yes"/>
      <point x="26" y="13"/>
      <point x="45" y="-2"/>
      <point x="85" y="-2" type="curve" smooth="yes"/>
      <point x="113" y="-2" type="line" smooth="yes"/>
      <point x="152" y="-2"/>
      <point x="174" y="9"/>
      <point x="176" y="30" type="curve" smooth="yes"/>
      <point x="208" y="351" type="line"/>
      <point x="227" y="379"/>
      <point x="256" y="409"/>
      <point x="294" y="409" type="curve" smooth="yes"/>
      <point x="333" y="409"/>
      <point x="351" y="391"/>
      <point x="347" y="349" type="curve" smooth="yes"/>
      <point x="315" y="31" type="line" smooth="yes"/>
      <point x="313" y="13"/>
      <point x="332" y="-2"/>
      <point x="372" y="-2" type="curve" smooth="yes"/>
      <point x="400" y="-2" type="line" smooth="yes"/>
      <point x="439" y="-2"/>
      <point x="461" y="9"/>
      <point x="463" y="30" type="curve" smooth="yes"/>
      <point x="500" y="419" type="line"/>
      <point x="476" y="320" type="line"/>
      <point x="489" y="351"/>
      <point x="527" y="409"/>
      <point x="580" y="409" type="curve" smooth="yes"/>
      <point x="619" y="409"/>
      <point x="637" y="391"/>
      <point x="633" y="349" type="curve" smooth="yes"/>
      <point x="613" y="139" type="line" smooth="yes"/>
      <point x="602" y="29"/>
      <point x="654" y="-8"/>
    </contour>
  </outline>
</glyph>
<glyph name="n" format="2">
  <advance width="557"/>
  <unicode hex="006E"/>
  <anchor x="262" y="0" name="bottom"/>
  <anchor x="294" y="523" name="top"/>
  <outline>
    <contour>
      <point x="444" y="-8" type="curve" smooth="yes"/>
      <point x="479" y="-8"/>
      <point x="525" y="7"/>
      <point x="532" y="44" type="curve" smooth="yes"/>
      <point x="539" y="79"/>
      <point x="539" y="97"/>
      <point x="539" y="103" type="curve" smooth="yes"/>
      <point x="539" y="112"/>
      <point x="537" y="115"/>
      <point x="531" y="115" type="curve" smooth="yes"/>
      <point x="527" y="115"/>
      <point x="516" y="109"/>
      <point x="502" y="109" type="curve" smooth="yes"/>
      <point x="481" y="109"/>
      <point x="470" y="119"/>
      <point x="473" y="147" type="curve" smooth="yes"/>
      <point x="495" y="384" type="line" smooth="yes"/>
      <point x="505" y="491"/>
      <point x="454" y="531"/>
      <point x="365" y="531" type="curve" smooth="yes"/>
      <point x="288" y="531"/>
      <point x="209" y="470"/>
      <point x="190" y="423" type="curve"/>
      <point x="206" y="395" type="line"/>
      <point x="207" y="406"/>
      <point x="209" y="424"/>
      <point x="209" y="443" type="curve" smooth="yes"/>
      <point x="209" y="480"/>
      <point x="203" y="520"/>
      <point x="176" y="520" type="curve" smooth="yes"/>
      <point x="111" y="520"/>
      <point x="60" y="506"/>
      <point x="60" y="484" type="curve" smooth="yes"/>
      <point x="60" y="469"/>
      <point x="62" y="452"/>
      <point x="62" y="428" type="curve" smooth="yes"/>
      <point x="62" y="414"/>
      <point x="60" y="385"/>
      <point x="58" y="362" type="curve" smooth="yes"/>
      <point x="24" y="29" type="line" smooth="yes"/>
      <point x="22" y="13"/>
      <point x="41" y="-2"/>
      <point x="81" y="-2" type="curve" smooth="yes"/>
      <point x="109" y="-2" type="line" smooth="yes"/>
      <point x="148" y="-2"/>
      <point x="170" y="9"/>
      <point x="172" y="30" type="curve" smooth="yes"/>
      <point x="204" y="348" type="line"/>
      <point x="222" y="376"/>
      <point x="253" y="409"/>
      <point x="292" y="409" type="curve" smooth="yes"/>
      <point x="331" y="409"/>
      <point x="349" y="391"/>
      <point x="345" y="349" type="curve" smooth="yes"/>
      <point x="325" y="139" type="line" smooth="yes"/>
      <point x="315" y="29"/>
      <point x="366" y="-8"/>
    </contour>
  </outline>
</glyph>
<glyph name="q" format="2">
  <advance width="566"/>
  <unicode hex="0071"/>
  <outline>
    <contour>
      <point x="362" y="-206" type="curve" smooth="yes"/>
      <point x="390" y="-206" type="line" smooth="yes"/>
      <point x="429" y="-206"/>
      <point x="451" y="-195"/>
      <point x="453" y="-174" type="curve" smooth="yes"/>
      <point x="524" y="500" type="line"/>
      <point x="524" y="516"/>
      <point x="506" y="525"/>
      <point x="466" y="525" type="curve" smooth="yes"/>
      <point x="454" y="525" type="line" smooth="yes"/>
      <point x="404" y="524"/>
      <point x="400" y="514"/>
      <point x="389" y="479" type="curve"/>
      <point x="367" y="500"/>
      <point x="325" y="531"/>
      <point x="268" y="531" type="curve" smooth="yes"/>
      <point x="128" y="531"/>
      <point x="31" y="401"/>
      <point x="31" y="209" type="curve" smooth="yes"/>
      <point x="31" y="68"/>
      <point x="102" y="-8"/>
      <point x="208" y="-8" type="curve" smooth="yes"/>
      <point x="258" y="-8"/>
      <point x="299" y="15"/>
      <point x="328" y="49" type="curve"/>
      <point x="305" y="-175" type="line"/>
      <point x="305" y="-191"/>
      <point x="322" y="-206"/>
    </contour>
    <contour>
      <point x="264" y="113" type="curve" smooth="yes"/>
      <point x="209" y="113"/>
      <point x="181" y="149"/>
      <point x="181" y="218" type="curve" smooth="yes"/>
      <point x="181" y="346"/>
      <point x="226" y="414"/>
      <point x="302" y="414" type="curve" smooth="yes"/>
      <point x="348" y="414"/>
      <point x="375" y="382"/>
      <point x="392" y="362" type="curve"/>
      <point x="386" y="455" type="line"/>
      <point x="373" y="406"/>
      <point x="360" y="340"/>
      <point x="355" y="300" type="curve" smooth="yes"/>
      <point x="341" y="169" type="line"/>
      <point x="321" y="139"/>
      <point x="296" y="113"/>
    </contour>
  </outline>
</glyph>
<glyph name="r" format="2">
  <advance width="366"/>
  <unicode hex="0072"/>
  <anchor x="102" y="0" name="bottom"/>
  <anchor x="208" y="523" name="top"/>
  <outline>
    <contour>
      <point x="84" y="-2" type="curve" smooth="yes"/>
      <point x="112" y="-2" type="line" smooth="yes"/>
      <point x="151" y="-2"/>
      <point x="173" y="9"/>
      <point x="175" y="32" type="curve" smooth="yes"/>
      <point x="207" y="350" type="line"/>
      <point x="231" y="382"/>
      <point x="263" y="401"/>
      <point x="294" y="401" type="curve" smooth="yes"/>
      <point x="318" y="401"/>
      <point x="325" y="392"/>
      <point x="335" y="392" type="curve" smooth="yes"/>
      <point x="349" y="392"/>
      <point x="375" y="452"/>
      <point x="375" y="485" type="curve" smooth="yes"/>
      <point x="375" y="500"/>
      <point x="372" y="531"/>
      <point x="328" y="531" type="curve" smooth="yes"/>
      <point x="272" y="531"/>
      <point x="237" y="493"/>
      <point x="212" y="457" type="curve"/>
      <point x="210" y="489"/>
      <point x="202" y="520"/>
      <point x="173" y="520" type="curve" smooth="yes"/>
      <point x="98" y="520"/>
      <point x="66" y="511"/>
      <point x="64" y="486" type="curve" smooth="yes"/>
      <point x="64" y="476"/>
      <point x="66" y="466"/>
      <point x="66" y="442" type="curve" smooth="yes"/>
      <point x="66" y="424"/>
      <point x="65" y="397"/>
      <point x="61" y="357" type="curve" smooth="yes"/>
      <point x="27" y="34" type="line" smooth="yes"/>
      <point x="25" y="13"/>
      <point x="44" y="-2"/>
    </contour>
  </outline>
</glyph>
<glyph name="s" format="2">
  <advance width="413"/>
  <unicode hex="0073"/>
  <anchor x="197" y="0" name="bottom"/>
  <anchor x="227" y="523" name="top"/>
  <outline>
    <contour>
      <point x="166" y="-8" type="curve" smooth="yes"/>
      <point x="285" y="-8"/>
      <point x="372" y="55"/>
      <point x="372" y="178" type="curve" smooth="yes"/>
      <point x="372" y="246"/>
      <point x="323" y="291"/>
      <point x="276" y="311" type="curve" smooth="yes"/>
      <point x="234" y="329"/>
      <point x="194" y="339"/>
      <point x="194" y="378" type="curve" smooth="yes"/>
      <point x="194" y="403"/>
      <point x="215" y="415"/>
      <point x="251" y="415" type="curve" smooth="yes"/>
      <point x="302" y="415"/>
      <point x="320" y="395"/>
      <point x="333" y="395" type="curve" smooth="yes"/>
      <point x="353" y="395"/>
      <point x="386" y="451"/>
      <point x="386" y="470" type="curve" smooth="yes"/>
      <point x="386" y="518"/>
      <point x="295" y="531"/>
      <point x="240" y="531" type="curve" smooth="yes"/>
      <point x="127" y="531"/>
      <point x="42" y="473"/>
      <point x="42" y="354" type="curve" smooth="yes"/>
      <point x="42" y="291"/>
      <point x="71" y="250"/>
      <point x="137" y="218" type="curve" smooth="yes"/>
      <point x="179" y="198"/>
      <point x="220" y="184"/>
      <point x="220" y="149" type="curve" smooth="yes"/>
      <point x="220" y="119"/>
      <point x="198" y="109"/>
      <point x="154" y="109" type="curve" smooth="yes"/>
      <point x="95" y="109"/>
      <point x="60" y="143"/>
      <point x="44" y="143" type="curve" smooth="yes"/>
      <point x="33" y="143"/>
      <point x="22" y="123"/>
      <point x="22" y="67" type="curve" smooth="yes"/>
      <point x="22" y="14"/>
      <point x="114" y="-8"/>
    </contour>
  </outline>
</glyph>
<glyph name="t" format="2">
  <advance width="342"/>
  <unicode hex="0074"/>
  <anchor x="161" y="0" name="bottom"/>
  <anchor x="156" y="292" name="center"/>
  <anchor x="299" y="752" name="topright"/>
  <outline>
    <contour>
      <point x="186" y="-8" type="curve" smooth="yes"/>
      <point x="221" y="-8"/>
      <point x="267" y="7"/>
      <point x="274" y="44" type="curve" smooth="yes"/>
      <point x="281" y="79"/>
      <point x="281" y="97"/>
      <point x="281" y="103" type="curve" smooth="yes"/>
      <point x="281" y="112"/>
      <point x="279" y="115"/>
      <point x="273" y="115" type="curve" smooth="yes"/>
      <point x="269" y="115"/>
      <point x="258" y="109"/>
      <point x="237" y="109" type="curve" smooth="yes"/>
      <point x="215" y="109"/>
      <point x="203" y="121"/>
      <point x="206" y="147" type="curve" smooth="yes"/>
      <point x="233" y="406" type="line"/>
      <point x="279" y="406" type="line" smooth="yes"/>
      <point x="300" y="406"/>
      <point x="310" y="421"/>
      <point x="314" y="456" type="curve" smooth="yes"/>
      <point x="316" y="473" type="line" smooth="yes"/>
      <point x="320" y="508"/>
      <point x="312" y="523"/>
      <point x="291" y="523" type="curve" smooth="yes"/>
      <point x="245" y="523" type="line"/>
      <point x="253" y="611" type="line" smooth="yes"/>
      <point x="255" y="635"/>
      <point x="239" y="650"/>
      <point x="199" y="650" type="curve" smooth="yes"/>
      <point x="177" y="650" type="line" smooth="yes"/>
      <point x="142" y="650"/>
      <point x="123" y="639"/>
      <point x="118" y="614" type="curve" smooth="yes"/>
      <point x="99" y="523" type="line"/>
      <point x="74" y="523" type="line" smooth="yes"/>
      <point x="52" y="523"/>
      <point x="42" y="508"/>
      <point x="38" y="473" type="curve" smooth="yes"/>
      <point x="36" y="456" type="line" smooth="yes"/>
      <point x="32" y="421"/>
      <point x="40" y="406"/>
      <point x="62" y="406" type="curve" smooth="yes"/>
      <point x="85" y="406" type="line"/>
      <point x="58" y="145" type="line" smooth="yes"/>
      <point x="46" y="32"/>
      <point x="106" y="-8"/>
    </contour>
  </outline>
</glyph>
<glyph name="u" format="2">
  <advance width="557"/>
  <unicode hex="0075"/>
  <anchor x="231" y="0" name="bottom"/>
  <anchor x="496" y="0" name="ogonek"/>
  <anchor x="286" y="523" name="top"/>
  <anchor x="416" y="525" name="topright"/>
  <outline>
    <contour>
      <point x="160" y="-8" type="curve" smooth="yes"/>
      <point x="240" y="-8"/>
      <point x="315" y="52"/>
      <point x="341" y="102" type="curve"/>
      <point x="316" y="118" type="line"/>
      <point x="315" y="29"/>
      <point x="358" y="-8"/>
      <point x="436" y="-8" type="curve" smooth="yes"/>
      <point x="471" y="-8"/>
      <point x="517" y="7"/>
      <point x="524" y="44" type="curve" smooth="yes"/>
      <point x="531" y="79"/>
      <point x="531" y="97"/>
      <point x="531" y="103" type="curve" smooth="yes"/>
      <point x="531" y="112"/>
      <point x="529" y="115"/>
      <point x="523" y="115" type="curve" smooth="yes"/>
      <point x="519" y="115"/>
      <point x="508" y="109"/>
      <point x="494" y="109" type="curve" smooth="yes"/>
      <point x="473" y="109"/>
      <point x="462" y="119"/>
      <point x="465" y="147" type="curve" smooth="yes"/>
      <point x="501" y="494" type="line" smooth="yes"/>
      <point x="503" y="510"/>
      <point x="484" y="525"/>
      <point x="444" y="525" type="curve" smooth="yes"/>
      <point x="416" y="525" type="line" smooth="yes"/>
      <point x="377" y="525"/>
      <point x="355" y="514"/>
      <point x="353" y="493" type="curve" smooth="yes"/>
      <point x="319" y="168" type="line"/>
      <point x="301" y="143"/>
      <point x="271" y="114"/>
      <point x="233" y="114" type="curve" smooth="yes"/>
      <point x="194" y="114"/>
      <point x="176" y="132"/>
      <point x="180" y="173" type="curve" smooth="yes"/>
      <point x="213" y="494" type="line" smooth="yes"/>
      <point x="215" y="510"/>
      <point x="196" y="525"/>
      <point x="156" y="525" type="curve" smooth="yes"/>
      <point x="128" y="525" type="line" smooth="yes"/>
      <point x="89" y="525"/>
      <point x="67" y="514"/>
      <point x="65" y="493" type="curve" smooth="yes"/>
      <point x="30" y="139" type="line" smooth="yes"/>
      <point x="19" y="32"/>
      <point x="70" y="-8"/>
    </contour>
  </outline>
</glyph>
<glyph name="v" format="2">
  <advance width="485"/>
  <unicode hex="0076"/>
  <note>
Quedé en la w hacia atrás
</note>
  <outline>
    <contour>
      <point x="200" y="-2" type="curve" smooth="yes"/>
      <point x="232" y="-2" type="line" smooth="yes"/>
      <point x="261" y="-2"/>
      <point x="283" y="3"/>
      <point x="290" y="19" type="curve" smooth="yes"/>
      <point x="498" y="485" type="line" smooth="yes"/>
      <point x="501" y="492"/>
      <point x="502" y="497"/>
      <point x="502" y="502" type="curve" smooth="yes"/>
      <point x="502" y="525"/>
      <point x="467" y="525"/>
      <point x="445" y="525" type="curve" smooth="yes"/>
      <point x="418" y="525" type="line" smooth="yes"/>
      <point x="389" y="525"/>
      <point x="367" y="520"/>
      <point x="360" y="504" type="curve" smooth="yes"/>
      <point x="300" y="362" type="line" smooth="yes"/>
      <point x="274" y="301"/>
      <point x="255" y="232"/>
      <point x="241" y="178" type="curve"/>
      <point x="237" y="178" type="line"/>
      <point x="234" y="227"/>
      <point x="226" y="296"/>
      <point x="213" y="358" type="curve" smooth="yes"/>
      <point x="182" y="504" type="line" smooth="yes"/>
      <point x="179" y="520"/>
      <point x="155" y="525"/>
      <point x="128" y="525" type="curve" smooth="yes"/>
      <point x="97" y="525" type="line" smooth="yes"/>
      <point x="51" y="525"/>
      <point x="30" y="516"/>
      <point x="35" y="495" type="curve" smooth="yes"/>
      <point x="146" y="22" type="line" smooth="yes"/>
      <point x="150" y="3"/>
      <point x="170" y="-2"/>
    </contour>
  </outline>
</glyph>
<glyph name="w" format="2">
  <advance width="747"/>
  <unicode hex="0077"/>
  <anchor x="404" y="523" name="top"/>
  <outline>
    <contour>
      <point x="177" y="-2" type="curve" smooth="yes"/>
      <point x="226" y="-2" type="line" smooth="yes"/>
      <point x="255" y="-2"/>
      <point x="278" y="5"/>
      <point x="283" y="19" type="curve" smooth="yes"/>
      <point x="354" y="220" type="line" smooth="yes"/>
      <point x="372" y="270"/>
      <point x="379" y="302"/>
      <point x="382" y="320" type="curve"/>
      <point x="386" y="320" type="line"/>
      <point x="385" y="295"/>
      <point x="389" y="244"/>
      <point x="396" y="197" type="curve" smooth="yes"/>
      <point x="423" y="21" type="line" smooth="yes"/>
      <point x="425" y="5"/>
      <point x="444" y="-2"/>
      <point x="476" y="-2" type="curve" smooth="yes"/>
      <point x="525" y="-2" type="line" smooth="yes"/>
      <point x="553" y="-2"/>
      <point x="577" y="5"/>
      <point x="582" y="19" type="curve" smooth="yes"/>
      <point x="749" y="484" type="line" smooth="yes"/>
      <point x="751" y="491"/>
      <point x="752" y="497"/>
      <point x="752" y="501" type="curve" smooth="yes"/>
      <point x="752" y="516"/>
      <point x="739" y="525"/>
      <point x="700" y="525" type="curve" smooth="yes"/>
      <point x="685" y="525" type="line" smooth="yes"/>
      <point x="649" y="525"/>
      <point x="638" y="518"/>
      <point x="629" y="495" type="curve" smooth="yes"/>
      <point x="564" y="322" type="line" smooth="yes"/>
      <point x="546" y="273"/>
      <point x="531" y="222"/>
      <point x="520" y="176" type="curve"/>
      <point x="516" y="176" type="line"/>
      <point x="515" y="212"/>
      <point x="511" y="263"/>
      <point x="502" y="325" type="curve" smooth="yes"/>
      <point x="478" y="500" type="line" smooth="yes"/>
      <point x="476" y="518"/>
      <point x="452" y="525"/>
      <point x="424" y="525" type="curve" smooth="yes"/>
      <point x="397" y="525" type="line" smooth="yes"/>
      <point x="364" y="525"/>
      <point x="348" y="518"/>
      <point x="342" y="502" type="curve" smooth="yes"/>
      <point x="279" y="322" type="line" smooth="yes"/>
      <point x="259" y="264"/>
      <point x="244" y="213"/>
      <point x="236" y="176" type="curve"/>
      <point x="232" y="176" type="line"/>
      <point x="231" y="204"/>
      <point x="226" y="255"/>
      <point x="215" y="325" type="curve" smooth="yes"/>
      <point x="188" y="502" type="line" smooth="yes"/>
      <point x="186" y="518"/>
      <point x="168" y="525"/>
      <point x="135" y="525" type="curve" smooth="yes"/>
      <point x="105" y="525" type="line" smooth="yes"/>
      <point x="62" y="525"/>
      <point x="43" y="515"/>
      <point x="46" y="495" type="curve" smooth="yes"/>
      <point x="123" y="21" type="line" smooth="yes"/>
      <point x="126" y="5"/>
      <point x="144" y="-2"/>
    </contour>
  </outline>
</glyph>
<glyph name="x" format="2">
  <advance width="485"/>
  <unicode hex="0078"/>
  <outline>
    <contour>
      <point x="32" y="-2" type="curve" smooth="yes"/>
      <point x="62" y="-2" type="line" smooth="yes"/>
      <point x="91" y="-2"/>
      <point x="112" y="-1"/>
      <point x="125" y="17" type="curve" smooth="yes"/>
      <point x="196" y="111" type="line" smooth="yes"/>
      <point x="211" y="131"/>
      <point x="219" y="146"/>
      <point x="223" y="158" type="curve"/>
      <point x="225" y="146"/>
      <point x="229" y="132"/>
      <point x="242" y="108" type="curve" smooth="yes"/>
      <point x="290" y="17" type="line" smooth="yes"/>
      <point x="299" y="-1"/>
      <point x="320" y="-2"/>
      <point x="349" y="-2" type="curve" smooth="yes"/>
      <point x="381" y="-2" type="line" smooth="yes"/>
      <point x="415" y="-2"/>
      <point x="444" y="-1"/>
      <point x="444" y="20" type="curve" smooth="yes"/>
      <point x="444" y="25"/>
      <point x="442" y="33"/>
      <point x="437" y="42" type="curve" smooth="yes"/>
      <point x="313" y="266" type="line"/>
      <point x="482" y="482" type="line" smooth="yes"/>
      <point x="490" y="492"/>
      <point x="494" y="500"/>
      <point x="494" y="506" type="curve" smooth="yes"/>
      <point x="494" y="525"/>
      <point x="458" y="525"/>
      <point x="434" y="525" type="curve" smooth="yes"/>
      <point x="405" y="525" type="line" smooth="yes"/>
      <point x="376" y="525"/>
      <point x="355" y="524"/>
      <point x="342" y="506" type="curve" smooth="yes"/>
      <point x="280" y="422" type="line" smooth="yes"/>
      <point x="263" y="400"/>
      <point x="254" y="385"/>
      <point x="249" y="373" type="curve"/>
      <point x="247" y="382"/>
      <point x="242" y="398"/>
      <point x="228" y="426" type="curve" smooth="yes"/>
      <point x="187" y="506" type="line" smooth="yes"/>
      <point x="178" y="524"/>
      <point x="157" y="525"/>
      <point x="128" y="525" type="curve" smooth="yes"/>
      <point x="96" y="525" type="line" smooth="yes"/>
      <point x="65" y="525"/>
      <point x="32" y="523"/>
      <point x="32" y="505" type="curve" smooth="yes"/>
      <point x="32" y="499"/>
      <point x="34" y="491"/>
      <point x="40" y="481" type="curve" smooth="yes"/>
      <point x="159" y="265" type="line"/>
      <point x="-16" y="41" type="line" smooth="yes"/>
      <point x="-24" y="31"/>
      <point x="-28" y="24"/>
      <point x="-28" y="18" type="curve" smooth="yes"/>
      <point x="-28" y="-2"/>
      <point x="10" y="-2"/>
    </contour>
  </outline>
</glyph>
<glyph name="y" format="2">
  <advance width="481"/>
  <unicode hex="0079"/>
  <anchor x="361" y="0" name="bottom"/>
  <anchor x="261" y="523" name="top"/>
  <outline>
    <contour>
      <point x="115" y="-206" type="curve" smooth="yes"/>
      <point x="132" y="-206" type="line" smooth="yes"/>
      <point x="161" y="-206"/>
      <point x="183" y="-201"/>
      <point x="190" y="-185" type="curve" smooth="yes"/>
      <point x="490" y="485" type="line" smooth="yes"/>
      <point x="493" y="492"/>
      <point x="495" y="499"/>
      <point x="495" y="504" type="curve" smooth="yes"/>
      <point x="495" y="517"/>
      <point x="478" y="525"/>
      <point x="437" y="525" type="curve" smooth="yes"/>
      <point x="413" y="525" type="line" smooth="yes"/>
      <point x="383" y="525"/>
      <point x="362" y="520"/>
      <point x="355" y="504" type="curve" smooth="yes"/>
      <point x="276" y="319" type="line" smooth="yes"/>
      <point x="267" y="297"/>
      <point x="249" y="241"/>
      <point x="236" y="198" type="curve"/>
      <point x="232" y="198" type="line"/>
      <point x="227" y="241"/>
      <point x="221" y="296"/>
      <point x="216" y="319" type="curve" smooth="yes"/>
      <point x="177" y="504" type="line" smooth="yes"/>
      <point x="173" y="520"/>
      <point x="150" y="525"/>
      <point x="123" y="525" type="curve" smooth="yes"/>
      <point x="87" y="525" type="line" smooth="yes"/>
      <point x="39" y="525"/>
      <point x="27" y="515"/>
      <point x="27" y="499" type="curve" smooth="yes"/>
      <point x="27" y="493"/>
      <point x="30" y="483"/>
      <point x="32" y="473" type="curve" smooth="yes"/>
      <point x="177" y="-141" type="line"/>
      <point x="173" y="61" type="line"/>
      <point x="63" y="-167" type="line" smooth="yes"/>
      <point x="59" y="-174"/>
      <point x="57" y="-181"/>
      <point x="57" y="-186" type="curve" smooth="yes"/>
      <point x="57" y="-199"/>
      <point x="75" y="-206"/>
    </contour>
  </outline>
</glyph>
<glyph name="z" format="2">
  <advance width="489"/>
  <unicode hex="007A"/>
  <anchor x="211" y="0" name="bottom"/>
  <anchor x="275" y="523" name="top"/>
  <outline>
    <contour>
      <point x="37" y="0" type="curve" smooth="yes"/>
      <point x="402" y="0" type="line" smooth="yes"/>
      <point x="418" y="0"/>
      <point x="432" y="10"/>
      <point x="437" y="49" type="curve" smooth="yes"/>
      <point x="438" y="61" type="line" smooth="yes"/>
      <point x="443" y="106"/>
      <point x="432" y="117"/>
      <point x="414" y="117" type="curve" smooth="yes"/>
      <point x="207" y="117" type="line"/>
      <point x="464" y="426" type="line" smooth="yes"/>
      <point x="470" y="433"/>
      <point x="472" y="441"/>
      <point x="472" y="450" type="curve" smooth="yes"/>
      <point x="472" y="477"/>
      <point x="464" y="523"/>
      <point x="443" y="523" type="curve" smooth="yes"/>
      <point x="96" y="523" type="line" smooth="yes"/>
      <point x="77" y="523"/>
      <point x="64" y="508"/>
      <point x="60" y="465" type="curve" smooth="yes"/>
      <point x="60" y="462" type="line" smooth="yes"/>
      <point x="56" y="417"/>
      <point x="66" y="406"/>
      <point x="84" y="406" type="curve" smooth="yes"/>
      <point x="272" y="406" type="line"/>
      <point x="15" y="97" type="line" smooth="yes"/>
      <point x="9" y="90"/>
      <point x="7" y="82"/>
      <point x="7" y="73" type="curve" smooth="yes"/>
      <point x="7" y="46"/>
      <point x="18" y="0"/>
    </contour>
  </outline>
</glyph>
<glyph name="braceleft" format="2">
  <advance width="274"/>
  <unicode hex="007B"/>
  <outline>
    <contour>
      <point x="145" y="-138" type="curve" smooth="yes"/>
      <point x="181" y="-138" type="line" smooth="yes"/>
      <point x="208" y="-138"/>
      <point x="217" y="-126"/>
      <point x="219" y="-98" type="curve" smooth="yes"/>
      <point x="220" y="-84" type="line" smooth="yes"/>
      <point x="222" y="-52"/>
      <point x="218" y="-44"/>
      <point x="196" y="-44" type="curve" smooth="yes"/>
      <point x="194" y="-44" type="line" smooth="yes"/>
      <point x="182" y="-44"/>
      <point x="172" y="-37"/>
      <point x="175" y="-8" type="curve" smooth="yes"/>
      <point x="193" y="185" type="line" smooth="yes"/>
      <point x="199" y="252"/>
      <point x="176" y="294"/>
      <point x="141" y="315" type="curve"/>
      <point x="183" y="340"/>
      <point x="217" y="394"/>
      <point x="225" y="468" type="curve" smooth="yes"/>
      <point x="242" y="638" type="line" smooth="yes"/>
      <point x="244" y="664"/>
      <point x="252" y="674"/>
      <point x="269" y="674" type="curve" smooth="yes"/>
      <point x="271" y="674" type="line" smooth="yes"/>
      <point x="294" y="674"/>
      <point x="303" y="682"/>
      <point x="305" y="714" type="curve" smooth="yes"/>
      <point x="306" y="728" type="line" smooth="yes"/>
      <point x="308" y="756"/>
      <point x="304" y="768"/>
      <point x="277" y="768" type="curve" smooth="yes"/>
      <point x="240" y="768" type="line" smooth="yes"/>
      <point x="177" y="768"/>
      <point x="136" y="720"/>
      <point x="129" y="652" type="curve" smooth="yes"/>
      <point x="111" y="484" type="line" smooth="yes"/>
      <point x="104" y="417"/>
      <point x="88" y="389"/>
      <point x="52" y="371" type="curve" smooth="yes"/>
      <point x="30" y="359"/>
      <point x="20" y="351"/>
      <point x="18" y="330" type="curve" smooth="yes"/>
      <point x="16" y="303" type="line" smooth="yes"/>
      <point x="14" y="281"/>
      <point x="28" y="273"/>
      <point x="42" y="263" type="curve" smooth="yes"/>
      <point x="59" y="250"/>
      <point x="83" y="233"/>
      <point x="77" y="172" type="curve" smooth="yes"/>
      <point x="58" y="-29" type="line" smooth="yes"/>
      <point x="51" y="-98"/>
      <point x="92" y="-138"/>
    </contour>
  </outline>
</glyph>
<glyph name="bar" format="2">
  <advance width="250"/>
  <unicode hex="007C"/>
  <outline>
    <contour>
      <point x="186" y="768" type="curve" smooth="yes"/>
      <point x="171" y="768" type="line" smooth="yes"/>
      <point x="136" y="768"/>
      <point x="120" y="759"/>
      <point x="118" y="738" type="curve" smooth="yes"/>
      <point x="29" y="-108" type="line" smooth="yes"/>
      <point x="27" y="-129"/>
      <point x="41" y="-138"/>
      <point x="76" y="-138" type="curve" smooth="yes"/>
      <point x="91" y="-138" type="line" smooth="yes"/>
      <point x="125" y="-138"/>
      <point x="142" y="-130"/>
      <point x="144" y="-108" type="curve" smooth="yes"/>
      <point x="233" y="738" type="line" smooth="yes"/>
      <point x="235" y="759"/>
      <point x="221" y="768"/>
    </contour>
  </outline>
</glyph>
<glyph name="braceright" format="2">
  <advance width="274"/>
  <unicode hex="007D"/>
  <outline>
    <contour>
      <point x="2" y="-138" type="curve" smooth="yes"/>
      <point x="39" y="-138" type="line" smooth="yes"/>
      <point x="102" y="-138"/>
      <point x="143" y="-90"/>
      <point x="150" y="-22" type="curve" smooth="yes"/>
      <point x="168" y="146" type="line" smooth="yes"/>
      <point x="175" y="213"/>
      <point x="191" y="241"/>
      <point x="227" y="259" type="curve" smooth="yes"/>
      <point x="249" y="270"/>
      <point x="259" y="279"/>
      <point x="261" y="300" type="curve" smooth="yes"/>
      <point x="263" y="327" type="line" smooth="yes"/>
      <point x="265" y="349"/>
      <point x="251" y="357"/>
      <point x="237" y="367" type="curve" smooth="yes"/>
      <point x="220" y="379"/>
      <point x="196" y="397"/>
      <point x="202" y="458" type="curve" smooth="yes"/>
      <point x="221" y="659" type="line" smooth="yes"/>
      <point x="228" y="728"/>
      <point x="187" y="768"/>
      <point x="134" y="768" type="curve" smooth="yes"/>
      <point x="98" y="768" type="line" smooth="yes"/>
      <point x="71" y="768"/>
      <point x="62" y="756"/>
      <point x="60" y="728" type="curve" smooth="yes"/>
      <point x="59" y="714" type="line" smooth="yes"/>
      <point x="57" y="682"/>
      <point x="61" y="674"/>
      <point x="83" y="674" type="curve" smooth="yes"/>
      <point x="85" y="674" type="line" smooth="yes"/>
      <point x="97" y="674"/>
      <point x="107" y="667"/>
      <point x="104" y="638" type="curve" smooth="yes"/>
      <point x="86" y="445" type="line" smooth="yes"/>
      <point x="80" y="378"/>
      <point x="103" y="336"/>
      <point x="138" y="315" type="curve"/>
      <point x="96" y="290"/>
      <point x="61" y="236"/>
      <point x="54" y="162" type="curve" smooth="yes"/>
      <point x="37" y="-8" type="line" smooth="yes"/>
      <point x="34" y="-34"/>
      <point x="27" y="-44"/>
      <point x="10" y="-44" type="curve" smooth="yes"/>
      <point x="8" y="-44" type="line" smooth="yes"/>
      <point x="-15" y="-44"/>
      <point x="-24" y="-52"/>
      <point x="-26" y="-84" type="curve" smooth="yes"/>
      <point x="-27" y="-98" type="line" smooth="yes"/>
      <point x="-29" y="-126"/>
      <point x="-25" y="-138"/>
    </contour>
  </outline>
</glyph>
<glyph name="asciitilde" format="2">
  <advance width="560"/>
  <unicode hex="007E"/>
  <outline>
    <contour>
      <point x="96" y="208" type="curve" smooth="yes"/>
      <point x="111" y="208"/>
      <point x="129" y="249"/>
      <point x="180" y="249" type="curve" smooth="yes"/>
      <point x="232" y="249"/>
      <point x="311" y="208"/>
      <point x="377" y="208" type="curve" smooth="yes"/>
      <point x="440" y="208"/>
      <point x="473" y="247"/>
      <point x="493" y="292" type="curve" smooth="yes"/>
      <point x="497" y="301"/>
      <point x="500" y="310"/>
      <point x="500" y="316" type="curve" smooth="yes"/>
      <point x="500" y="327"/>
      <point x="475" y="341"/>
      <point x="465" y="341" type="curve" smooth="yes"/>
      <point x="449" y="341"/>
      <point x="433" y="300"/>
      <point x="382" y="300" type="curve" smooth="yes"/>
      <point x="330" y="300"/>
      <point x="250" y="342"/>
      <point x="194" y="342" type="curve" smooth="yes"/>
      <point x="127" y="342"/>
      <point x="84" y="302"/>
      <point x="67" y="250" type="curve" smooth="yes"/>
      <point x="66" y="247"/>
      <point x="63" y="237"/>
      <point x="63" y="231" type="curve" smooth="yes"/>
      <point x="63" y="220"/>
      <point x="86" y="208"/>
    </contour>
  </outline>
</glyph>
<glyph name="cent" format="2">
  <advance width="470"/>
  <unicode hex="00A2"/>
  <outline>
    <contour>
      <point x="255" y="-81" type="curve" smooth="yes"/>
      <point x="260" y="-81" type="line" smooth="yes"/>
      <point x="277" y="-81"/>
      <point x="287" y="-73"/>
      <point x="289" y="-56" type="curve" smooth="yes"/>
      <point x="354" y="562" type="line" smooth="yes"/>
      <point x="356" y="579"/>
      <point x="347" y="587"/>
      <point x="331" y="587" type="curve" smooth="yes"/>
      <point x="326" y="587" type="line" smooth="yes"/>
      <point x="309" y="587"/>
      <point x="299" y="579"/>
      <point x="297" y="562" type="curve" smooth="yes"/>
      <point x="232" y="-56" type="line" smooth="yes"/>
      <point x="230" y="-73"/>
      <point x="239" y="-81"/>
    </contour>
    <component base="c" xOffset="-6"/>
  </outline>
</glyph>
<glyph name="sterling" format="2">
  <advance width="530"/>
  <unicode hex="00A3"/>
  <outline>
    <contour>
      <point x="68" y="0" type="curve" smooth="yes"/>
      <point x="431" y="0" type="line" smooth="yes"/>
      <point x="452" y="0"/>
      <point x="463" y="10"/>
      <point x="466" y="45" type="curve" smooth="yes"/>
      <point x="468" y="67" type="line" smooth="yes"/>
      <point x="471" y="102"/>
      <point x="464" y="117"/>
      <point x="443" y="117" type="curve" smooth="yes"/>
      <point x="210" y="117" type="line"/>
      <point x="247" y="145"/>
      <point x="268" y="188"/>
      <point x="275" y="251" type="curve" smooth="yes"/>
      <point x="282" y="311" type="line"/>
      <point x="389" y="311" type="line" smooth="yes"/>
      <point x="406" y="311"/>
      <point x="421" y="333"/>
      <point x="424" y="361" type="curve" smooth="yes"/>
      <point x="426" y="378" type="line" smooth="yes"/>
      <point x="429" y="406"/>
      <point x="421" y="428"/>
      <point x="402" y="428" type="curve" smooth="yes"/>
      <point x="294" y="428" type="line"/>
      <point x="302" y="507" type="line" smooth="yes"/>
      <point x="308" y="570"/>
      <point x="342" y="596"/>
      <point x="393" y="596" type="curve" smooth="yes"/>
      <point x="437" y="596"/>
      <point x="461" y="588"/>
      <point x="466" y="588" type="curve" smooth="yes"/>
      <point x="482" y="588"/>
      <point x="514" y="630"/>
      <point x="514" y="667" type="curve" smooth="yes"/>
      <point x="514" y="708"/>
      <point x="431" y="708"/>
      <point x="399" y="708" type="curve" smooth="yes"/>
      <point x="256" y="708"/>
      <point x="172" y="640"/>
      <point x="158" y="512" type="curve" smooth="yes"/>
      <point x="149" y="428" type="line"/>
      <point x="106" y="428" type="line" smooth="yes"/>
      <point x="83" y="428"/>
      <point x="75" y="406"/>
      <point x="72" y="378" type="curve" smooth="yes"/>
      <point x="70" y="361" type="line" smooth="yes"/>
      <point x="67" y="333"/>
      <point x="75" y="311"/>
      <point x="97" y="311" type="curve" smooth="yes"/>
      <point x="137" y="311" type="line"/>
      <point x="122" y="175" type="line" smooth="yes"/>
      <point x="115" y="107"/>
      <point x="37" y="90"/>
      <point x="34" y="59" type="curve" smooth="yes"/>
      <point x="32" y="40" type="line" smooth="yes"/>
      <point x="29" y="12"/>
      <point x="40" y="0"/>
    </contour>
  </outline>
</glyph>
<glyph name="currency" format="2">
  <advance width="550"/>
  <unicode hex="00A4"/>
  <outline>
    <contour>
      <point x="458" y="514" type="curve" smooth="yes"/>
      <point x="450" y="514"/>
      <point x="440" y="510"/>
      <point x="431" y="502" type="curve" smooth="yes"/>
      <point x="399" y="473" type="line"/>
      <point x="370" y="490"/>
      <point x="336" y="500"/>
      <point x="299" y="500" type="curve" smooth="yes"/>
      <point x="262" y="500"/>
      <point x="227" y="490"/>
      <point x="196" y="474" type="curve"/>
      <point x="170" y="502" type="line" smooth="yes"/>
      <point x="163" y="510"/>
      <point x="156" y="514"/>
      <point x="147" y="514" type="curve" smooth="yes"/>
      <point x="139" y="514"/>
      <point x="129" y="510"/>
      <point x="120" y="502" type="curve" smooth="yes"/>
      <point x="87" y="472" type="line" smooth="yes"/>
      <point x="77" y="463"/>
      <point x="73" y="454"/>
      <point x="73" y="444" type="curve" smooth="yes"/>
      <point x="73" y="437"/>
      <point x="76" y="429"/>
      <point x="82" y="422" type="curve" smooth="yes"/>
      <point x="106" y="395" type="line"/>
      <point x="79" y="358"/>
      <point x="65" y="312"/>
      <point x="65" y="266" type="curve" smooth="yes"/>
      <point x="65" y="237"/>
      <point x="71" y="210"/>
      <point x="82" y="186" type="curve"/>
      <point x="58" y="164" type="line" smooth="yes"/>
      <point x="48" y="155"/>
      <point x="43" y="146"/>
      <point x="43" y="136" type="curve" smooth="yes"/>
      <point x="43" y="129"/>
      <point x="47" y="121"/>
      <point x="53" y="114" type="curve" smooth="yes"/>
      <point x="80" y="84" type="line" smooth="yes"/>
      <point x="87" y="76"/>
      <point x="95" y="72"/>
      <point x="103" y="72" type="curve" smooth="yes"/>
      <point x="112" y="72"/>
      <point x="121" y="76"/>
      <point x="130" y="84" type="curve" smooth="yes"/>
      <point x="153" y="105" type="line"/>
      <point x="182" y="88"/>
      <point x="217" y="78"/>
      <point x="255" y="78" type="curve" smooth="yes"/>
      <point x="293" y="78"/>
      <point x="331" y="88"/>
      <point x="364" y="107" type="curve"/>
      <point x="385" y="84" type="line" smooth="yes"/>
      <point x="392" y="76"/>
      <point x="400" y="72"/>
      <point x="408" y="72" type="curve" smooth="yes"/>
      <point x="417" y="72"/>
      <point x="426" y="76"/>
      <point x="435" y="84" type="curve" smooth="yes"/>
      <point x="468" y="114" type="line" smooth="yes"/>
      <point x="478" y="123"/>
      <point x="482" y="133"/>
      <point x="482" y="142" type="curve" smooth="yes"/>
      <point x="482" y="150"/>
      <point x="479" y="157"/>
      <point x="473" y="164" type="curve" smooth="yes"/>
      <point x="451" y="188" type="line"/>
      <point x="475" y="224"/>
      <point x="489" y="266"/>
      <point x="489" y="312" type="curve" smooth="yes"/>
      <point x="489" y="341"/>
      <point x="483" y="368"/>
      <point x="471" y="393" type="curve"/>
      <point x="503" y="422" type="line" smooth="yes"/>
      <point x="513" y="431"/>
      <point x="518" y="441"/>
      <point x="518" y="450" type="curve" smooth="yes"/>
      <point x="518" y="458"/>
      <point x="514" y="465"/>
      <point x="508" y="472" type="curve" smooth="yes"/>
      <point x="481" y="502" type="line" smooth="yes"/>
      <point x="474" y="510"/>
      <point x="467" y="514"/>
    </contour>
    <contour>
      <point x="287" y="386" type="curve" smooth="yes"/>
      <point x="337" y="386"/>
      <point x="374" y="349"/>
      <point x="374" y="300" type="curve" smooth="yes"/>
      <point x="374" y="241"/>
      <point x="324" y="192"/>
      <point x="267" y="192" type="curve" smooth="yes"/>
      <point x="217" y="192"/>
      <point x="179" y="229"/>
      <point x="179" y="278" type="curve" smooth="yes"/>
      <point x="179" y="337"/>
      <point x="229" y="386"/>
    </contour>
  </outline>
</glyph>
<glyph name="yen" format="2">
  <advance width="600"/>
  <unicode hex="00A5"/>
  <outline>
    <contour>
      <point x="96" y="331" type="curve" smooth="yes"/>
      <point x="526" y="331" type="line" smooth="yes"/>
      <point x="543" y="331"/>
      <point x="550" y="339"/>
      <point x="553" y="363" type="curve" smooth="yes"/>
      <point x="554" y="372" type="line" smooth="yes"/>
      <point x="557" y="398"/>
      <point x="549" y="406"/>
      <point x="535" y="406" type="curve" smooth="yes"/>
      <point x="349" y="406" type="line"/>
      <point x="314" y="386" type="line"/>
      <point x="283" y="406" type="line"/>
      <point x="105" y="406" type="line" smooth="yes"/>
      <point x="90" y="406"/>
      <point x="81" y="398"/>
      <point x="78" y="374" type="curve" smooth="yes"/>
      <point x="77" y="365" type="line" smooth="yes"/>
      <point x="74" y="338"/>
      <point x="83" y="331"/>
    </contour>
    <contour>
      <point x="79" y="194" type="curve" smooth="yes"/>
      <point x="509" y="194" type="line" smooth="yes"/>
      <point x="526" y="194"/>
      <point x="533" y="202"/>
      <point x="536" y="226" type="curve" smooth="yes"/>
      <point x="537" y="235" type="line" smooth="yes"/>
      <point x="540" y="261"/>
      <point x="532" y="269"/>
      <point x="518" y="269" type="curve" smooth="yes"/>
      <point x="88" y="269" type="line" smooth="yes"/>
      <point x="73" y="269"/>
      <point x="64" y="261"/>
      <point x="61" y="237" type="curve" smooth="yes"/>
      <point x="60" y="228" type="line" smooth="yes"/>
      <point x="57" y="201"/>
      <point x="66" y="194"/>
    </contour>
    <component base="Y" xOffset="20"/>
  </outline>
</glyph>
<glyph name="brokenbar" format="2">
  <advance width="250"/>
  <unicode hex="00A6"/>
  <outline>
    <contour>
      <point x="186" y="770" type="curve" smooth="yes"/>
      <point x="171" y="770" type="line" smooth="yes"/>
      <point x="136" y="770"/>
      <point x="120" y="759"/>
      <point x="118" y="738" type="curve"/>
      <point x="106" y="628"/>
      <point x="83" y="415"/>
      <point x="83" y="407" type="curve" smooth="yes"/>
      <point x="83" y="389"/>
      <point x="98" y="380"/>
      <point x="130" y="380" type="curve" smooth="yes"/>
      <point x="145" y="380" type="line" smooth="yes"/>
      <point x="179" y="380"/>
      <point x="197" y="391"/>
      <point x="199" y="412" type="curve" smooth="yes"/>
      <point x="209" y="521"/>
      <point x="233" y="728"/>
      <point x="233" y="738" type="curve" smooth="yes"/>
      <point x="233" y="758"/>
      <point x="223" y="770"/>
    </contour>
    <contour>
      <point x="132" y="250" type="curve" smooth="yes"/>
      <point x="117" y="250" type="line" smooth="yes"/>
      <point x="82" y="250"/>
      <point x="65" y="239"/>
      <point x="63" y="218" type="curve" smooth="yes"/>
      <point x="53" y="109"/>
      <point x="29" y="-97"/>
      <point x="29" y="-108" type="curve" smooth="yes"/>
      <point x="29" y="-129"/>
      <point x="39" y="-140"/>
      <point x="76" y="-140" type="curve" smooth="yes"/>
      <point x="91" y="-140" type="line" smooth="yes"/>
      <point x="126" y="-140"/>
      <point x="142" y="-129"/>
      <point x="144" y="-108" type="curve" smooth="yes"/>
      <point x="154" y="1"/>
      <point x="178" y="206"/>
      <point x="178" y="218" type="curve" smooth="yes"/>
      <point x="178" y="239"/>
      <point x="168" y="250"/>
    </contour>
  </outline>
</glyph>
<glyph name="section" format="2">
  <advance width="429"/>
  <unicode hex="00A7"/>
  <outline>
    <contour>
      <point x="178" y="-7" type="curve" smooth="yes"/>
      <point x="300" y="-7"/>
      <point x="380" y="63"/>
      <point x="380" y="162" type="curve" smooth="yes"/>
      <point x="380" y="200"/>
      <point x="368" y="224"/>
      <point x="351" y="242" type="curve"/>
      <point x="382" y="274"/>
      <point x="400" y="324"/>
      <point x="400" y="369" type="curve" smooth="yes"/>
      <point x="400" y="443"/>
      <point x="351" y="480"/>
      <point x="306" y="500" type="curve" smooth="yes"/>
      <point x="263" y="519"/>
      <point x="221" y="528"/>
      <point x="221" y="559" type="curve" smooth="yes"/>
      <point x="221" y="580"/>
      <point x="241" y="592"/>
      <point x="278" y="592" type="curve" smooth="yes"/>
      <point x="326" y="592"/>
      <point x="350" y="571"/>
      <point x="361" y="571" type="curve" smooth="yes"/>
      <point x="380" y="571"/>
      <point x="412" y="630"/>
      <point x="412" y="653" type="curve" smooth="yes"/>
      <point x="412" y="690"/>
      <point x="334" y="708"/>
      <point x="271" y="708" type="curve" smooth="yes"/>
      <point x="149" y="708"/>
      <point x="69" y="638"/>
      <point x="69" y="538" type="curve" smooth="yes"/>
      <point x="69" y="499"/>
      <point x="81" y="476"/>
      <point x="99" y="459" type="curve"/>
      <point x="67" y="425"/>
      <point x="49" y="377"/>
      <point x="49" y="332" type="curve" smooth="yes"/>
      <point x="49" y="258"/>
      <point x="97" y="221"/>
      <point x="147" y="199" type="curve" smooth="yes"/>
      <point x="189" y="181"/>
      <point x="228" y="172"/>
      <point x="228" y="142" type="curve" smooth="yes"/>
      <point x="228" y="121"/>
      <point x="208" y="109"/>
      <point x="172" y="109" type="curve" smooth="yes"/>
      <point x="125" y="109"/>
      <point x="99" y="130"/>
      <point x="88" y="130" type="curve" smooth="yes"/>
      <point x="69" y="130"/>
      <point x="37" y="71"/>
      <point x="37" y="48" type="curve" smooth="yes"/>
      <point x="37" y="11"/>
      <point x="116" y="-7"/>
    </contour>
    <contour>
      <point x="254" y="292" type="curve"/>
      <point x="214" y="306"/>
      <point x="181" y="322"/>
      <point x="181" y="359" type="curve" smooth="yes"/>
      <point x="181" y="375"/>
      <point x="187" y="396"/>
      <point x="195" y="409" type="curve"/>
      <point x="234" y="395"/>
      <point x="268" y="379"/>
      <point x="268" y="342" type="curve" smooth="yes"/>
      <point x="268" y="328"/>
      <point x="263" y="308"/>
    </contour>
  </outline>
</glyph>
<glyph name="dieresis" format="2">
  <advance width="306"/>
  <unicode hex="00A8"/>
  <outline>
    <contour>
      <point x="278" y="581" type="curve" smooth="yes"/>
      <point x="321" y="581"/>
      <point x="341" y="591"/>
      <point x="343" y="613" type="curve" smooth="yes"/>
      <point x="350" y="677" type="line" smooth="yes"/>
      <point x="352" y="699"/>
      <point x="336" y="709"/>
      <point x="291" y="709" type="curve" smooth="yes"/>
      <point x="247" y="709"/>
      <point x="228" y="699"/>
      <point x="226" y="677" type="curve" smooth="yes"/>
      <point x="219" y="613" type="line" smooth="yes"/>
      <point x="217" y="591"/>
      <point x="234" y="581"/>
    </contour>
    <contour>
      <point x="96" y="581" type="curve" smooth="yes"/>
      <point x="139" y="581"/>
      <point x="159" y="591"/>
      <point x="161" y="613" type="curve" smooth="yes"/>
      <point x="168" y="677" type="line" smooth="yes"/>
      <point x="170" y="699"/>
      <point x="153" y="709"/>
      <point x="109" y="709" type="curve" smooth="yes"/>
      <point x="66" y="709"/>
      <point x="46" y="699"/>
      <point x="44" y="677" type="curve" smooth="yes"/>
      <point x="37" y="613" type="line" smooth="yes"/>
      <point x="35" y="591"/>
      <point x="52" y="581"/>
    </contour>
  </outline>
</glyph>
<glyph name="copyright" format="2">
  <advance width="739"/>
  <unicode hex="00A9"/>
  <outline>
    <contour>
      <point x="368" y="708" type="curve" smooth="yes"/>
      <point x="170" y="708"/>
      <point x="10" y="548"/>
      <point x="10" y="350" type="curve" smooth="yes"/>
      <point x="10" y="152"/>
      <point x="170" y="-8"/>
      <point x="368" y="-8" type="curve" smooth="yes"/>
      <point x="566" y="-8"/>
      <point x="726" y="152"/>
      <point x="726" y="350" type="curve" smooth="yes"/>
      <point x="726" y="548"/>
      <point x="566" y="708"/>
    </contour>
    <contour>
      <point x="383" y="552" type="curve" smooth="yes"/>
      <point x="259" y="552"/>
      <point x="197" y="486"/>
      <point x="197" y="353" type="curve" smooth="yes"/>
      <point x="197" y="215"/>
      <point x="256" y="152"/>
      <point x="381" y="152" type="curve" smooth="yes"/>
      <point x="425" y="152"/>
      <point x="505" y="165"/>
      <point x="505" y="199" type="curve" smooth="yes"/>
      <point x="505" y="208"/>
      <point x="490" y="248"/>
      <point x="472" y="248" type="curve" smooth="yes"/>
      <point x="464" y="248"/>
      <point x="434" y="225"/>
      <point x="381" y="225" type="curve" smooth="yes"/>
      <point x="316" y="225"/>
      <point x="285" y="269"/>
      <point x="285" y="353" type="curve" smooth="yes"/>
      <point x="285" y="436"/>
      <point x="316" y="478"/>
      <point x="382" y="478" type="curve" smooth="yes"/>
      <point x="435" y="478"/>
      <point x="457" y="460"/>
      <point x="464" y="460" type="curve" smooth="yes"/>
      <point x="478" y="460"/>
      <point x="500" y="497"/>
      <point x="500" y="513" type="curve" smooth="yes"/>
      <point x="500" y="536"/>
      <point x="433" y="552"/>
    </contour>
    <contour>
      <point x="368" y="644" type="curve" smooth="yes"/>
      <point x="530" y="644"/>
      <point x="662" y="512"/>
      <point x="662" y="350" type="curve" smooth="yes"/>
      <point x="662" y="188"/>
      <point x="530" y="56"/>
      <point x="368" y="56" type="curve" smooth="yes"/>
      <point x="206" y="56"/>
      <point x="74" y="188"/>
      <point x="74" y="350" type="curve" smooth="yes"/>
      <point x="74" y="512"/>
      <point x="206" y="644"/>
    </contour>
  </outline>
</glyph>
<glyph name="ordfeminine" format="2">
  <advance width="319"/>
  <unicode hex="00AA"/>
  <outline>
    <contour>
      <point x="151" y="439" type="curve" smooth="yes"/>
      <point x="185" y="439"/>
      <point x="214" y="458"/>
      <point x="230" y="483" type="curve"/>
      <point x="236" y="452"/>
      <point x="257" y="439"/>
      <point x="287" y="439" type="curve" smooth="yes"/>
      <point x="304" y="439"/>
      <point x="327" y="447"/>
      <point x="331" y="465" type="curve" smooth="yes"/>
      <point x="335" y="483"/>
      <point x="334" y="492"/>
      <point x="334" y="495" type="curve" smooth="yes"/>
      <point x="334" y="499"/>
      <point x="333" y="501"/>
      <point x="330" y="501" type="curve" smooth="yes"/>
      <point x="328" y="501"/>
      <point x="323" y="498"/>
      <point x="316" y="498" type="curve" smooth="yes"/>
      <point x="305" y="498"/>
      <point x="300" y="503"/>
      <point x="301" y="517" type="curve" smooth="yes"/>
      <point x="319" y="690" type="line" smooth="yes"/>
      <point x="320" y="701"/>
      <point x="310" y="705"/>
      <point x="290" y="705" type="curve" smooth="yes"/>
      <point x="279" y="705" type="line" smooth="yes"/>
      <point x="254" y="705"/>
      <point x="252" y="700"/>
      <point x="247" y="682" type="curve"/>
      <point x="237" y="692"/>
      <point x="212" y="708"/>
      <point x="181" y="708" type="curve" smooth="yes"/>
      <point x="110" y="708"/>
      <point x="60" y="643"/>
      <point x="60" y="547" type="curve" smooth="yes"/>
      <point x="60" y="477"/>
      <point x="97" y="439"/>
    </contour>
    <contour>
      <point x="179" y="503" type="curve" smooth="yes"/>
      <point x="151" y="503"/>
      <point x="138" y="520"/>
      <point x="138" y="553" type="curve" smooth="yes"/>
      <point x="138" y="614"/>
      <point x="160" y="646"/>
      <point x="198" y="646" type="curve" smooth="yes"/>
      <point x="215" y="646"/>
      <point x="231" y="641"/>
      <point x="238" y="633" type="curve"/>
      <point x="236" y="623"/>
      <point x="235" y="614"/>
      <point x="233" y="595" type="curve" smooth="yes"/>
      <point x="226" y="530" type="line"/>
      <point x="214" y="516"/>
      <point x="199" y="503"/>
    </contour>
  </outline>
</glyph>
<glyph name="guillemetleft" format="2">
  <advance width="471"/>
  <unicode hex="00AB"/>
  <outline>
    <contour>
      <point x="171" y="46" type="curve" smooth="yes"/>
      <point x="197" y="46"/>
      <point x="235" y="79"/>
      <point x="235" y="99" type="curve" smooth="yes"/>
      <point x="235" y="105"/>
      <point x="234" y="111"/>
      <point x="229" y="118" type="curve" smooth="yes"/>
      <point x="134" y="258" type="line"/>
      <point x="258" y="398" type="line" smooth="yes"/>
      <point x="265" y="406"/>
      <point x="270" y="414"/>
      <point x="270" y="422" type="curve" smooth="yes"/>
      <point x="270" y="444"/>
      <point x="234" y="469"/>
      <point x="216" y="469" type="curve" smooth="yes"/>
      <point x="206" y="469"/>
      <point x="197" y="465"/>
      <point x="187" y="455" type="curve" smooth="yes"/>
      <point x="44" y="302" type="line" smooth="yes"/>
      <point x="28" y="285"/>
      <point x="22" y="281"/>
      <point x="22" y="257" type="curve" smooth="yes"/>
      <point x="22" y="245"/>
      <point x="26" y="225"/>
      <point x="35" y="214" type="curve"/>
      <point x="146" y="61" type="line" smooth="yes"/>
      <point x="153" y="51"/>
      <point x="162" y="46"/>
    </contour>
    <contour>
      <point x="370" y="46" type="curve" smooth="yes"/>
      <point x="396" y="46"/>
      <point x="434" y="79"/>
      <point x="434" y="99" type="curve" smooth="yes"/>
      <point x="434" y="105"/>
      <point x="433" y="111"/>
      <point x="428" y="118" type="curve" smooth="yes"/>
      <point x="333" y="258" type="line"/>
      <point x="457" y="398" type="line" smooth="yes"/>
      <point x="464" y="406"/>
      <point x="469" y="414"/>
      <point x="469" y="422" type="curve" smooth="yes"/>
      <point x="469" y="444"/>
      <point x="433" y="469"/>
      <point x="415" y="469" type="curve" smooth="yes"/>
      <point x="405" y="469"/>
      <point x="396" y="465"/>
      <point x="386" y="455" type="curve" smooth="yes"/>
      <point x="243" y="302" type="line" smooth="yes"/>
      <point x="227" y="285"/>
      <point x="222" y="271"/>
      <point x="222" y="247" type="curve" smooth="yes"/>
      <point x="222" y="234"/>
      <point x="226" y="225"/>
      <point x="234" y="214" type="curve" smooth="yes"/>
      <point x="345" y="61" type="line" smooth="yes"/>
      <point x="352" y="51"/>
      <point x="361" y="46"/>
    </contour>
  </outline>
</glyph>
<glyph name="logicalnot" format="2">
  <advance width="560"/>
  <unicode hex="00AC"/>
  <outline>
    <contour>
      <point x="442" y="72" type="curve" smooth="yes"/>
      <point x="462" y="72" type="line" smooth="yes"/>
      <point x="490" y="72"/>
      <point x="511" y="83"/>
      <point x="513" y="104" type="curve" smooth="yes"/>
      <point x="535" y="309" type="line" smooth="yes"/>
      <point x="538" y="336"/>
      <point x="528" y="349"/>
      <point x="499" y="349" type="curve" smooth="yes"/>
      <point x="67" y="349" type="line" smooth="yes"/>
      <point x="48" y="349"/>
      <point x="38" y="337"/>
      <point x="35" y="309" type="curve" smooth="yes"/>
      <point x="33" y="288" type="line" smooth="yes"/>
      <point x="30" y="256"/>
      <point x="36" y="242"/>
      <point x="55" y="242" type="curve" smooth="yes"/>
      <point x="413" y="242" type="line"/>
      <point x="398" y="104" type="line" smooth="yes"/>
      <point x="396" y="83"/>
      <point x="412" y="72"/>
    </contour>
  </outline>
</glyph>
<glyph name="registered" format="2">
  <advance width="739"/>
  <unicode hex="00AE"/>
  <outline>
    <contour>
      <point x="368" y="-8" type="curve" smooth="yes"/>
      <point x="566" y="-8"/>
      <point x="726" y="152"/>
      <point x="726" y="350" type="curve" smooth="yes"/>
      <point x="726" y="548"/>
      <point x="566" y="708"/>
      <point x="368" y="708" type="curve" smooth="yes"/>
      <point x="170" y="708"/>
      <point x="10" y="548"/>
      <point x="10" y="350" type="curve" smooth="yes"/>
      <point x="10" y="152"/>
      <point x="170" y="-8"/>
    </contour>
    <contour>
      <point x="368" y="56" type="curve" smooth="yes"/>
      <point x="206" y="56"/>
      <point x="74" y="188"/>
      <point x="74" y="350" type="curve" smooth="yes"/>
      <point x="74" y="512"/>
      <point x="206" y="644"/>
      <point x="368" y="644" type="curve" smooth="yes"/>
      <point x="530" y="644"/>
      <point x="662" y="512"/>
      <point x="662" y="350" type="curve" smooth="yes"/>
      <point x="662" y="188"/>
      <point x="530" y="56"/>
    </contour>
    <contour>
      <point x="275" y="156" type="curve" smooth="yes"/>
      <point x="293" y="156" type="line" smooth="yes"/>
      <point x="317" y="156"/>
      <point x="327" y="162"/>
      <point x="327" y="174" type="curve" smooth="yes"/>
      <point x="327" y="310" type="line"/>
      <point x="349" y="310" type="line" smooth="yes"/>
      <point x="385" y="310"/>
      <point x="394" y="299"/>
      <point x="405" y="277" type="curve"/>
      <point x="449" y="168" type="line" smooth="yes"/>
      <point x="453" y="159"/>
      <point x="465" y="156"/>
      <point x="482" y="156" type="curve" smooth="yes"/>
      <point x="505" y="156" type="line" smooth="yes"/>
      <point x="527" y="156"/>
      <point x="538" y="160"/>
      <point x="538" y="167" type="curve" smooth="yes"/>
      <point x="538" y="170"/>
      <point x="537" y="173"/>
      <point x="535" y="178" type="curve" smooth="yes"/>
      <point x="486" y="301" type="line" smooth="yes"/>
      <point x="476" y="325"/>
      <point x="459" y="344"/>
      <point x="445" y="350" type="curve"/>
      <point x="445" y="354" type="line"/>
      <point x="483" y="369"/>
      <point x="511" y="400"/>
      <point x="511" y="443" type="curve" smooth="yes"/>
      <point x="511" y="510"/>
      <point x="469" y="548"/>
      <point x="372" y="548" type="curve" smooth="yes"/>
      <point x="263" y="548" type="line" smooth="yes"/>
      <point x="248" y="548"/>
      <point x="241" y="541"/>
      <point x="241" y="526" type="curve" smooth="yes"/>
      <point x="241" y="174" type="line" smooth="yes"/>
      <point x="241" y="162"/>
      <point x="251" y="156"/>
    </contour>
    <contour>
      <point x="327" y="384" type="line"/>
      <point x="327" y="475" type="line"/>
      <point x="376" y="475" type="line" smooth="yes"/>
      <point x="405" y="475"/>
      <point x="423" y="458"/>
      <point x="423" y="432" type="curve" smooth="yes"/>
      <point x="423" y="406"/>
      <point x="403" y="384"/>
      <point x="380" y="384" type="curve" smooth="yes"/>
    </contour>
  </outline>
</glyph>
<glyph name="macron" format="2">
  <advance width="305"/>
  <unicode hex="00AF"/>
  <outline>
    <contour>
      <point x="66" y="597" type="curve"/>
      <point x="310" y="597" type="line" smooth="yes"/>
      <point x="333" y="597"/>
      <point x="341" y="611"/>
      <point x="344" y="637" type="curve" smooth="yes"/>
      <point x="346" y="652" type="line" smooth="yes"/>
      <point x="350" y="680"/>
      <point x="339" y="692"/>
      <point x="320" y="692" type="curve" smooth="yes"/>
      <point x="76" y="692" type="line" smooth="yes"/>
      <point x="53" y="692"/>
      <point x="45" y="675"/>
      <point x="42" y="652" type="curve" smooth="yes"/>
      <point x="40" y="637" type="line" smooth="yes"/>
      <point x="36" y="610"/>
      <point x="46" y="597"/>
    </contour>
  </outline>
</glyph>
<glyph name="degree" format="2">
  <advance width="345"/>
  <unicode hex="00B0"/>
  <outline>
    <contour>
      <point x="213" y="708" type="curve" smooth="yes"/>
      <point x="122" y="708"/>
      <point x="66" y="635"/>
      <point x="66" y="562" type="curve" smooth="yes"/>
      <point x="66" y="495"/>
      <point x="117" y="443"/>
      <point x="186" y="443" type="curve" smooth="yes"/>
      <point x="274" y="443"/>
      <point x="333" y="510"/>
      <point x="333" y="589" type="curve" smooth="yes"/>
      <point x="333" y="656"/>
      <point x="281" y="708"/>
    </contour>
    <contour>
      <point x="207" y="646" type="curve" smooth="yes"/>
      <point x="241" y="646"/>
      <point x="267" y="619"/>
      <point x="267" y="584" type="curve" smooth="yes"/>
      <point x="267" y="541"/>
      <point x="239" y="505"/>
      <point x="192" y="505" type="curve" smooth="yes"/>
      <point x="157" y="505"/>
      <point x="131" y="532"/>
      <point x="131" y="567" type="curve" smooth="yes"/>
      <point x="131" y="608"/>
      <point x="159" y="646"/>
    </contour>
  </outline>
</glyph>
<glyph name="plusminus" format="2">
  <advance width="560"/>
  <unicode hex="00B1"/>
  <outline>
    <contour>
      <point x="261" y="140" type="curve" smooth="yes"/>
      <point x="275" y="140" type="line" smooth="yes"/>
      <point x="310" y="140"/>
      <point x="326" y="149"/>
      <point x="328" y="170" type="curve" smooth="yes"/>
      <point x="343" y="312" type="line"/>
      <point x="498" y="312" type="line" smooth="yes"/>
      <point x="517" y="312"/>
      <point x="527" y="324"/>
      <point x="530" y="356" type="curve" smooth="yes"/>
      <point x="532" y="377" type="line" smooth="yes"/>
      <point x="535" y="405"/>
      <point x="529" y="419"/>
      <point x="510" y="419" type="curve" smooth="yes"/>
      <point x="354" y="419" type="line"/>
      <point x="370" y="571" type="line" smooth="yes"/>
      <point x="372" y="594"/>
      <point x="360" y="603"/>
      <point x="323" y="603" type="curve" smooth="yes"/>
      <point x="309" y="603" type="line" smooth="yes"/>
      <point x="274" y="603"/>
      <point x="258" y="594"/>
      <point x="256" y="573" type="curve" smooth="yes"/>
      <point x="240" y="419" type="line"/>
      <point x="84" y="419" type="line" smooth="yes"/>
      <point x="65" y="419"/>
      <point x="55" y="407"/>
      <point x="52" y="379" type="curve" smooth="yes"/>
      <point x="50" y="358" type="line" smooth="yes"/>
      <point x="47" y="326"/>
      <point x="53" y="312"/>
      <point x="72" y="312" type="curve" smooth="yes"/>
      <point x="229" y="312" type="line"/>
      <point x="214" y="172" type="line" smooth="yes"/>
      <point x="212" y="149"/>
      <point x="224" y="140"/>
    </contour>
    <contour>
      <point x="40" y="0" type="curve" smooth="yes"/>
      <point x="465" y="0" type="line" smooth="yes"/>
      <point x="484" y="0"/>
      <point x="494" y="12"/>
      <point x="497" y="44" type="curve" smooth="yes"/>
      <point x="499" y="65" type="line" smooth="yes"/>
      <point x="502" y="93"/>
      <point x="496" y="107"/>
      <point x="477" y="107" type="curve" smooth="yes"/>
      <point x="52" y="107" type="line" smooth="yes"/>
      <point x="33" y="107"/>
      <point x="23" y="95"/>
      <point x="20" y="67" type="curve" smooth="yes"/>
      <point x="18" y="46" type="line" smooth="yes"/>
      <point x="15" y="14"/>
      <point x="21" y="0"/>
    </contour>
  </outline>
</glyph>
<glyph name="acute" format="2">
  <advance width="191"/>
  <unicode hex="00B4"/>
  <outline>
    <contour>
      <point x="74" y="572" type="curve" smooth="yes"/>
      <point x="115" y="572"/>
      <point x="129" y="580"/>
      <point x="151" y="602" type="curve" smooth="yes"/>
      <point x="204" y="655" type="line" smooth="yes"/>
      <point x="223" y="674"/>
      <point x="237" y="690"/>
      <point x="237" y="703" type="curve" smooth="yes"/>
      <point x="237" y="714"/>
      <point x="224" y="718"/>
      <point x="186" y="718" type="curve" smooth="yes"/>
      <point x="116" y="718"/>
      <point x="112" y="707"/>
      <point x="95" y="682" type="curve" smooth="yes"/>
      <point x="50" y="615" type="line" smooth="yes"/>
      <point x="41" y="601"/>
      <point x="34" y="594"/>
      <point x="34" y="585" type="curve" smooth="yes"/>
      <point x="34" y="577"/>
      <point x="43" y="572"/>
    </contour>
  </outline>
</glyph>
<glyph name="periodcentered" format="2">
  <advance width="267"/>
  <unicode hex="00B7"/>
  <anchor x="143" y="359" name="_center"/>
  <outline>
    <contour>
      <point x="139" y="289" type="curve" smooth="yes"/>
      <point x="185" y="289"/>
      <point x="214" y="321"/>
      <point x="214" y="363" type="curve" smooth="yes"/>
      <point x="214" y="399"/>
      <point x="184" y="429"/>
      <point x="148" y="429" type="curve" smooth="yes"/>
      <point x="97" y="429"/>
      <point x="73" y="391"/>
      <point x="73" y="353" type="curve" smooth="yes"/>
      <point x="73" y="318"/>
      <point x="103" y="289"/>
    </contour>
  </outline>
</glyph>
<glyph name="cedilla" format="2">
  <advance width="250"/>
  <unicode hex="00B8"/>
  <outline>
    <contour>
      <point x="80" y="-212" type="curve" smooth="yes"/>
      <point x="161" y="-212"/>
      <point x="210" y="-173"/>
      <point x="210" y="-117" type="curve" smooth="yes"/>
      <point x="210" y="-66"/>
      <point x="168" y="-45"/>
      <point x="107" y="-45" type="curve"/>
      <point x="128" y="-57" type="line"/>
      <point x="153" y="10" type="line"/>
      <point x="86" y="10" type="line"/>
      <point x="62" y="-58"/>
      <point x="58" y="-73"/>
      <point x="58" y="-78" type="curve" smooth="yes"/>
      <point x="58" y="-97"/>
      <point x="124" y="-87"/>
      <point x="124" y="-121" type="curve" smooth="yes"/>
      <point x="124" y="-136"/>
      <point x="112" y="-144"/>
      <point x="86" y="-144" type="curve" smooth="yes"/>
      <point x="42" y="-144"/>
      <point x="-1" y="-122"/>
      <point x="-17" y="-122" type="curve" smooth="yes"/>
      <point x="-31" y="-122"/>
      <point x="-45" y="-148"/>
      <point x="-45" y="-166" type="curve" smooth="yes"/>
      <point x="-45" y="-195"/>
      <point x="26" y="-212"/>
    </contour>
  </outline>
</glyph>
<glyph name="ordmasculine" format="2">
  <advance width="337"/>
  <unicode hex="00BA"/>
  <outline>
    <contour>
      <point x="189" y="441" type="curve" smooth="yes"/>
      <point x="277" y="441"/>
      <point x="323" y="492"/>
      <point x="323" y="588" type="curve" smooth="yes"/>
      <point x="323" y="666"/>
      <point x="285" y="708"/>
      <point x="214" y="708" type="curve" smooth="yes"/>
      <point x="126" y="708"/>
      <point x="79" y="656"/>
      <point x="79" y="558" type="curve" smooth="yes"/>
      <point x="79" y="481"/>
      <point x="117" y="441"/>
    </contour>
    <contour>
      <point x="196" y="503" type="curve" smooth="yes"/>
      <point x="170" y="503"/>
      <point x="156" y="525"/>
      <point x="156" y="566" type="curve" smooth="yes"/>
      <point x="156" y="618"/>
      <point x="173" y="646"/>
      <point x="206" y="646" type="curve" smooth="yes"/>
      <point x="232" y="646"/>
      <point x="246" y="624"/>
      <point x="246" y="583" type="curve" smooth="yes"/>
      <point x="246" y="531"/>
      <point x="229" y="503"/>
    </contour>
  </outline>
</glyph>
<glyph name="questiondown" format="2">
  <advance width="425"/>
  <unicode hex="00BF"/>
  <outline>
    <contour>
      <point x="299" y="301" type="curve" smooth="yes"/>
      <point x="276" y="301" type="line" smooth="yes"/>
      <point x="243" y="301"/>
      <point x="229" y="295"/>
      <point x="220" y="274" type="curve"/>
      <point x="208" y="233"/>
      <point x="170" y="204"/>
      <point x="129" y="171" type="curve" smooth="yes"/>
      <point x="69" y="125"/>
      <point x="4" y="73"/>
      <point x="4" y="-29" type="curve" smooth="yes"/>
      <point x="4" y="-126"/>
      <point x="78" y="-185"/>
      <point x="203" y="-185" type="curve" smooth="yes"/>
      <point x="280" y="-185"/>
      <point x="400" y="-162"/>
      <point x="400" y="-102" type="curve" smooth="yes"/>
      <point x="400" y="-79"/>
      <point x="372" y="-22"/>
      <point x="345" y="-22" type="curve" smooth="yes"/>
      <point x="331" y="-22"/>
      <point x="288" y="-53"/>
      <point x="230" y="-53" type="curve" smooth="yes"/>
      <point x="183" y="-53"/>
      <point x="162" y="-35"/>
      <point x="162" y="-5" type="curve" smooth="yes"/>
      <point x="162" y="33"/>
      <point x="204" y="69"/>
      <point x="249" y="110" type="curve" smooth="yes"/>
      <point x="296" y="155"/>
      <point x="345" y="206"/>
      <point x="345" y="272" type="curve" smooth="yes"/>
      <point x="345" y="293"/>
      <point x="336" y="301"/>
    </contour>
    <contour>
      <point x="328" y="525" type="curve" smooth="yes"/>
      <point x="296" y="525" type="line" smooth="yes"/>
      <point x="255" y="525"/>
      <point x="234" y="514"/>
      <point x="232" y="493" type="curve" smooth="yes"/>
      <point x="223" y="401" type="line"/>
      <point x="223" y="380"/>
      <point x="236" y="369"/>
      <point x="279" y="369" type="curve" smooth="yes"/>
      <point x="311" y="369" type="line" smooth="yes"/>
      <point x="353" y="369"/>
      <point x="373" y="380"/>
      <point x="375" y="401" type="curve" smooth="yes"/>
      <point x="384" y="493" type="line"/>
      <point x="384" y="515"/>
      <point x="373" y="525"/>
    </contour>
  </outline>
</glyph>
<glyph name="AE" format="2">
  <advance width="915"/>
  <unicode hex="00C6"/>
  <anchor x="578" y="700" name="top"/>
  <outline>
    <contour>
      <point x="25" y="-2" type="curve" smooth="yes"/>
      <point x="62" y="-2" type="line" smooth="yes"/>
      <point x="86" y="-2"/>
      <point x="101" y="5"/>
      <point x="110" y="19" type="curve" smooth="yes"/>
      <point x="183" y="141" type="line"/>
      <point x="426" y="141" type="line"/>
      <point x="435" y="30" type="line" smooth="yes"/>
      <point x="437" y="9"/>
      <point x="445" y="0"/>
      <point x="467" y="0" type="curve" smooth="yes"/>
      <point x="792" y="0" type="line" smooth="yes"/>
      <point x="823" y="0"/>
      <point x="834" y="15"/>
      <point x="837" y="50" type="curve" smooth="yes"/>
      <point x="840" y="81" type="line" smooth="yes"/>
      <point x="843" y="116"/>
      <point x="837" y="131"/>
      <point x="806" y="131" type="curve" smooth="yes"/>
      <point x="579" y="131" type="line"/>
      <point x="565" y="293" type="line"/>
      <point x="795" y="293" type="line" smooth="yes"/>
      <point x="826" y="293"/>
      <point x="837" y="308"/>
      <point x="840" y="343" type="curve" smooth="yes"/>
      <point x="843" y="374" type="line" smooth="yes"/>
      <point x="846" y="409"/>
      <point x="840" y="424"/>
      <point x="809" y="424" type="curve" smooth="yes"/>
      <point x="552" y="424" type="line"/>
      <point x="540" y="569" type="line"/>
      <point x="851" y="569" type="line" smooth="yes"/>
      <point x="882" y="569"/>
      <point x="893" y="584"/>
      <point x="896" y="619" type="curve" smooth="yes"/>
      <point x="899" y="650" type="line" smooth="yes"/>
      <point x="902" y="685"/>
      <point x="896" y="700"/>
      <point x="865" y="700" type="curve" smooth="yes"/>
      <point x="406" y="700" type="line" smooth="yes"/>
      <point x="385" y="700"/>
      <point x="372" y="692"/>
      <point x="360" y="673" type="curve" smooth="yes"/>
      <point x="-27" y="38" type="line"/>
      <point x="-32" y="31"/>
      <point x="-35" y="25"/>
      <point x="-35" y="20" type="curve" smooth="yes"/>
      <point x="-35" y="0"/>
      <point x="1" y="-2"/>
    </contour>
    <contour>
      <point x="262" y="273" type="line"/>
      <point x="370" y="455" type="line"/>
      <point x="406" y="537" type="line"/>
      <point x="410" y="537" type="line"/>
      <point x="402" y="454" type="line"/>
      <point x="416" y="273" type="line"/>
    </contour>
  </outline>
</glyph>
<glyph name="Eth" format="2">
  <advance width="695"/>
  <unicode hex="00D0"/>
  <outline>
    <contour>
      <point x="47" y="290" type="curve" smooth="yes"/>
      <point x="334" y="290" type="line" smooth="yes"/>
      <point x="357" y="290"/>
      <point x="366" y="307"/>
      <point x="371" y="347" type="curve" smooth="yes"/>
      <point x="373" y="364" type="line" smooth="yes"/>
      <point x="378" y="404"/>
      <point x="369" y="421"/>
      <point x="346" y="421" type="curve" smooth="yes"/>
      <point x="59" y="421" type="line" smooth="yes"/>
      <point x="35" y="421"/>
      <point x="25" y="405"/>
      <point x="21" y="365" type="curve" smooth="yes"/>
      <point x="19" y="347" type="line" smooth="yes"/>
      <point x="15" y="307"/>
      <point x="23" y="290"/>
    </contour>
    <component base="D"/>
  </outline>
</glyph>
<glyph name="multiply" format="2">
  <advance width="560"/>
  <unicode hex="00D7"/>
  <outline>
    <contour>
      <point x="82" y="11" type="curve" smooth="yes"/>
      <point x="88" y="11"/>
      <point x="94" y="14"/>
      <point x="101" y="20" type="curve" smooth="yes"/>
      <point x="264" y="167" type="line"/>
      <point x="396" y="20" type="line" smooth="yes"/>
      <point x="400" y="14"/>
      <point x="406" y="11"/>
      <point x="413" y="11" type="curve" smooth="yes"/>
      <point x="434" y="11"/>
      <point x="486" y="57"/>
      <point x="486" y="79" type="curve" smooth="yes"/>
      <point x="486" y="84"/>
      <point x="483" y="90"/>
      <point x="479" y="95" type="curve" smooth="yes"/>
      <point x="347" y="242" type="line"/>
      <point x="510" y="390" type="line"/>
      <point x="517" y="395"/>
      <point x="521" y="402"/>
      <point x="521" y="410" type="curve" smooth="yes"/>
      <point x="521" y="431"/>
      <point x="481" y="474"/>
      <point x="462" y="474" type="curve" smooth="yes"/>
      <point x="455" y="474"/>
      <point x="449" y="471"/>
      <point x="443" y="465" type="curve" smooth="yes"/>
      <point x="279" y="318" type="line"/>
      <point x="148" y="465" type="line" smooth="yes"/>
      <point x="143" y="471"/>
      <point x="137" y="474"/>
      <point x="131" y="474" type="curve" smooth="yes"/>
      <point x="109" y="474"/>
      <point x="58" y="427"/>
      <point x="58" y="405" type="curve" smooth="yes"/>
      <point x="58" y="399"/>
      <point x="61" y="394"/>
      <point x="65" y="390" type="curve" smooth="yes"/>
      <point x="196" y="242" type="line"/>
      <point x="34" y="95" type="line" smooth="yes"/>
      <point x="26" y="88"/>
      <point x="23" y="81"/>
      <point x="23" y="75" type="curve" smooth="yes"/>
      <point x="23" y="55"/>
      <point x="61" y="11"/>
    </contour>
  </outline>
</glyph>
<glyph name="Oslash" format="2">
  <advance width="731"/>
  <unicode hex="00D8"/>
  <anchor x="396" y="700" name="top"/>
  <outline>
    <contour>
      <point x="67" y="-12" type="curve" smooth="yes"/>
      <point x="74" y="-12"/>
      <point x="82" y="-8"/>
      <point x="89" y="0" type="curve" smooth="yes"/>
      <point x="672" y="658" type="line" smooth="yes"/>
      <point x="679" y="666"/>
      <point x="682" y="672"/>
      <point x="682" y="678" type="curve" smooth="yes"/>
      <point x="682" y="695"/>
      <point x="647" y="724"/>
      <point x="634" y="724" type="curve" smooth="yes"/>
      <point x="626" y="724"/>
      <point x="620" y="720"/>
      <point x="612" y="712" type="curve" smooth="yes"/>
      <point x="29" y="54" type="line" smooth="yes"/>
      <point x="22" y="46"/>
      <point x="19" y="40"/>
      <point x="19" y="34" type="curve" smooth="yes"/>
      <point x="19" y="17"/>
      <point x="54" y="-12"/>
    </contour>
    <component base="O"/>
  </outline>
</glyph>
<glyph name="Thorn" format="2">
  <advance width="567"/>
  <unicode hex="00DE"/>
  <outline>
    <contour>
      <point x="91" y="-2" type="curve" smooth="yes"/>
      <point x="125" y="-2" type="line" smooth="yes"/>
      <point x="167" y="-2"/>
      <point x="186" y="9"/>
      <point x="188" y="30" type="curve" smooth="yes"/>
      <point x="201" y="155" type="line"/>
      <point x="324" y="155" type="line" smooth="yes"/>
      <point x="483" y="155"/>
      <point x="567" y="247"/>
      <point x="567" y="394" type="curve" smooth="yes"/>
      <point x="567" y="524"/>
      <point x="479" y="593"/>
      <point x="330" y="593" type="curve" smooth="yes"/>
      <point x="247" y="593" type="line"/>
      <point x="255" y="670" type="line"/>
      <point x="255" y="691"/>
      <point x="241" y="702"/>
      <point x="198" y="702" type="curve" smooth="yes"/>
      <point x="164" y="702" type="line" smooth="yes"/>
      <point x="116" y="702"/>
      <point x="103" y="688"/>
      <point x="101" y="670" type="curve" smooth="yes"/>
      <point x="34" y="30" type="line"/>
      <point x="34" y="9"/>
      <point x="48" y="-2"/>
    </contour>
    <contour>
      <point x="215" y="287" type="line"/>
      <point x="233" y="462" type="line"/>
      <point x="310" y="462" type="line" smooth="yes"/>
      <point x="374" y="462"/>
      <point x="408" y="434"/>
      <point x="408" y="381" type="curve" smooth="yes"/>
      <point x="408" y="326"/>
      <point x="377" y="287"/>
      <point x="321" y="287" type="curve" smooth="yes"/>
    </contour>
  </outline>
</glyph>
<glyph name="germandbls" format="2">
  <advance width="554"/>
  <unicode hex="00DF"/>
  <outline>
    <contour>
      <point x="80" y="-2" type="curve" smooth="yes"/>
      <point x="108" y="-2" type="line" smooth="yes"/>
      <point x="150" y="-2"/>
      <point x="169" y="9"/>
      <point x="171" y="30" type="curve" smooth="yes"/>
      <point x="221" y="502" type="line" smooth="yes"/>
      <point x="226" y="549"/>
      <point x="260" y="583"/>
      <point x="309" y="583" type="curve" smooth="yes"/>
      <point x="358" y="583"/>
      <point x="374" y="547"/>
      <point x="374" y="518" type="curve" smooth="yes"/>
      <point x="374" y="468"/>
      <point x="333" y="428"/>
      <point x="284" y="428" type="curve"/>
      <point x="282" y="428" type="line"/>
      <point x="265" y="428"/>
      <point x="251" y="417"/>
      <point x="249" y="396" type="curve" smooth="yes"/>
      <point x="244" y="347" type="line" smooth="yes"/>
      <point x="241" y="322"/>
      <point x="252" y="311"/>
      <point x="270" y="311" type="curve"/>
      <point x="273" y="311" type="line"/>
      <point x="338" y="310"/>
      <point x="368" y="276"/>
      <point x="368" y="225" type="curve" smooth="yes"/>
      <point x="368" y="161"/>
      <point x="326" y="117"/>
      <point x="265" y="117" type="curve" smooth="yes"/>
      <point x="250" y="117" type="line" smooth="yes"/>
      <point x="231" y="117"/>
      <point x="221" y="102"/>
      <point x="216" y="80" type="curve" smooth="yes"/>
      <point x="212" y="36" type="line" smooth="yes"/>
      <point x="212" y="11"/>
      <point x="220" y="0"/>
      <point x="238" y="0" type="curve" smooth="yes"/>
      <point x="261" y="0" type="line" smooth="yes"/>
      <point x="419" y="0"/>
      <point x="518" y="105"/>
      <point x="518" y="239" type="curve" smooth="yes"/>
      <point x="518" y="308"/>
      <point x="488" y="355"/>
      <point x="418" y="383" type="curve"/>
      <point x="418" y="387" type="line"/>
      <point x="487" y="414"/>
      <point x="527" y="475"/>
      <point x="527" y="550" type="curve" smooth="yes"/>
      <point x="527" y="649"/>
      <point x="442" y="708"/>
      <point x="324" y="708" type="curve" smooth="yes"/>
      <point x="191" y="708"/>
      <point x="86" y="623"/>
      <point x="72" y="490" type="curve" smooth="yes"/>
      <point x="24" y="34" type="line" smooth="yes"/>
      <point x="21" y="9"/>
      <point x="37" y="-2"/>
    </contour>
  </outline>
</glyph>
